%FSLAX25Y25*%
%MOIN*%
G70*
G01*
G75*
G04 Layer_Physical_Order=2*
G04 Layer_Color=16711680*
%ADD10R,0.03000X0.03000*%
%ADD11R,0.03000X0.03000*%
%ADD12R,0.03600X0.03600*%
%ADD13R,0.05000X0.03600*%
%ADD14R,0.18898X0.18110*%
%ADD15R,0.02000X0.05000*%
%ADD16R,0.04921X0.04803*%
%ADD17R,0.06299X0.11024*%
%ADD18C,0.01500*%
%ADD19C,0.02500*%
%ADD20C,0.01000*%
%ADD21C,0.05000*%
%ADD22C,0.10000*%
%ADD23R,0.06000X0.06000*%
%ADD24C,0.06000*%
%ADD25C,0.11417*%
%ADD26C,0.19685*%
%ADD27C,0.05906*%
%ADD28R,0.05906X0.05906*%
%ADD29C,0.11811*%
%ADD30C,0.05000*%
%ADD31R,0.10630X0.04331*%
%ADD32R,0.36221X0.42126*%
G36*
X313500Y205000D02*
X313500Y4000D01*
X310500Y1000D01*
X252738Y1000D01*
X252617Y1500D01*
X253367Y2478D01*
X253871Y3695D01*
X254043Y5000D01*
X253871Y6305D01*
X253367Y7522D01*
X252566Y8566D01*
X251522Y9368D01*
X250305Y9871D01*
X249000Y10043D01*
X247695Y9871D01*
X246478Y9368D01*
X245434Y8566D01*
X244633Y7522D01*
X244271Y6648D01*
X243729D01*
X243368Y7522D01*
X242566Y8566D01*
X241522Y9368D01*
X240305Y9871D01*
X239000Y10043D01*
X237695Y9871D01*
X236478Y9368D01*
X235434Y8566D01*
X234632Y7522D01*
X234271Y6648D01*
X233729D01*
X233367Y7522D01*
X232566Y8566D01*
X231522Y9368D01*
X230305Y9871D01*
X229000Y10043D01*
X227695Y9871D01*
X226478Y9368D01*
X225434Y8566D01*
X224633Y7522D01*
X224271Y6648D01*
X223729D01*
X223368Y7522D01*
X222566Y8566D01*
X221522Y9368D01*
X220305Y9871D01*
X219000Y10043D01*
X217695Y9871D01*
X216478Y9368D01*
X215434Y8566D01*
X214633Y7522D01*
X214271Y6648D01*
X213729D01*
X213368Y7522D01*
X212566Y8566D01*
X211522Y9368D01*
X210305Y9871D01*
X209000Y10043D01*
X207695Y9871D01*
X206478Y9368D01*
X205434Y8566D01*
X204632Y7522D01*
X204500Y7202D01*
X204000Y7301D01*
Y10000D01*
X194000D01*
Y1000D01*
X182738D01*
X182617Y1500D01*
X183368Y2478D01*
X183871Y3695D01*
X184043Y5000D01*
X183871Y6305D01*
X183368Y7522D01*
X182566Y8566D01*
X181522Y9368D01*
X180305Y9871D01*
X179000Y10043D01*
X177695Y9871D01*
X176478Y9368D01*
X175434Y8566D01*
X174633Y7522D01*
X174129Y6305D01*
X173957Y5000D01*
X174129Y3695D01*
X174633Y2478D01*
X175383Y1500D01*
X175262Y1000D01*
X171102D01*
X171003Y1500D01*
X171017Y1506D01*
X171853Y2147D01*
X172494Y2983D01*
X172897Y3956D01*
X172936Y4250D01*
X165064D01*
X165103Y3956D01*
X165506Y2983D01*
X166147Y2147D01*
X166983Y1506D01*
X166997Y1500D01*
X166898Y1000D01*
X161102D01*
X161003Y1500D01*
X161017Y1506D01*
X161853Y2147D01*
X162494Y2983D01*
X162897Y3956D01*
X162936Y4250D01*
X155064D01*
X155103Y3956D01*
X155506Y2983D01*
X156147Y2147D01*
X156983Y1506D01*
X156997Y1500D01*
X156898Y1000D01*
X152738D01*
X152617Y1500D01*
X153367Y2478D01*
X153871Y3695D01*
X154043Y5000D01*
X153871Y6305D01*
X153367Y7522D01*
X152566Y8566D01*
X151522Y9368D01*
X150305Y9871D01*
X149000Y10043D01*
X147695Y9871D01*
X146478Y9368D01*
X145434Y8566D01*
X144632Y7522D01*
X144271Y6648D01*
X143729D01*
X143368Y7522D01*
X142566Y8566D01*
X141774Y9174D01*
Y12826D01*
X142566Y13434D01*
X143368Y14478D01*
X143729Y15352D01*
X144271D01*
X144632Y14478D01*
X145434Y13434D01*
X146478Y12632D01*
X147695Y12129D01*
X149000Y11957D01*
X150305Y12129D01*
X151522Y12632D01*
X152566Y13434D01*
X153367Y14478D01*
X153871Y15695D01*
X154043Y17000D01*
X153871Y18305D01*
X153367Y19522D01*
X152566Y20566D01*
X151522Y21368D01*
X150305Y21871D01*
X149000Y22043D01*
X147695Y21871D01*
X146478Y21368D01*
X145434Y20566D01*
X144632Y19522D01*
X144271Y18648D01*
X143729D01*
X143368Y19522D01*
X142566Y20566D01*
X141774Y21174D01*
Y33000D01*
X141679Y33718D01*
X141517Y34110D01*
X141402Y34387D01*
X140961Y34961D01*
X135774Y40149D01*
Y46456D01*
X136209Y46791D01*
X136931Y47731D01*
X137384Y48825D01*
X137539Y50000D01*
X137384Y51175D01*
X136931Y52269D01*
X136209Y53209D01*
X135269Y53931D01*
X134175Y54384D01*
X133000Y54539D01*
X131825Y54384D01*
X130731Y53931D01*
X129791Y53209D01*
X129456Y52774D01*
X121544D01*
X121209Y53209D01*
X120269Y53931D01*
X119175Y54384D01*
X118000Y54539D01*
X116825Y54384D01*
X115731Y53931D01*
X114791Y53209D01*
X114069Y52269D01*
X113616Y51175D01*
X113461Y50000D01*
X113616Y48825D01*
X114069Y47731D01*
X114791Y46791D01*
X115731Y46069D01*
X116825Y45616D01*
X118000Y45461D01*
X119175Y45616D01*
X120269Y46069D01*
X121209Y46791D01*
X121544Y47226D01*
X129456D01*
X129791Y46791D01*
X130226Y46456D01*
Y39000D01*
X130321Y38282D01*
X130483Y37890D01*
X130598Y37613D01*
X131039Y37039D01*
X136226Y31851D01*
Y21174D01*
X135434Y20566D01*
X134633Y19522D01*
X134500Y19202D01*
X134000Y19301D01*
Y22000D01*
X124000D01*
Y12000D01*
X134000D01*
Y14699D01*
X134500Y14798D01*
X134633Y14478D01*
X135434Y13434D01*
X136226Y12826D01*
Y9174D01*
X135434Y8566D01*
X134633Y7522D01*
X134500Y7202D01*
X134000Y7301D01*
Y10000D01*
X124000D01*
Y1000D01*
X8000Y1000D01*
X5000Y4000D01*
X5000Y204500D01*
X8500Y208000D01*
X68318Y208000D01*
X68539Y207552D01*
X68133Y207022D01*
X67629Y205805D01*
X67457Y204500D01*
X67629Y203195D01*
X68133Y201978D01*
X68934Y200934D01*
X69978Y200132D01*
X71195Y199629D01*
X72500Y199457D01*
X73805Y199629D01*
X75022Y200132D01*
X76066Y200934D01*
X76868Y201978D01*
X77229Y202852D01*
X77771D01*
X78132Y201978D01*
X78934Y200934D01*
X79978Y200132D01*
X81195Y199629D01*
X82500Y199457D01*
X83805Y199629D01*
X85022Y200132D01*
X86066Y200934D01*
X86867Y201978D01*
X87229Y202852D01*
X87771D01*
X88133Y201978D01*
X88934Y200934D01*
X89978Y200132D01*
X91195Y199629D01*
X92500Y199457D01*
X93805Y199629D01*
X95022Y200132D01*
X96066Y200934D01*
X96868Y201978D01*
X97371Y203195D01*
X97543Y204500D01*
X97371Y205805D01*
X96868Y207022D01*
X96461Y207552D01*
X96682Y208000D01*
X99669D01*
X99839Y207500D01*
X99647Y207353D01*
X99006Y206517D01*
X98603Y205544D01*
X98564Y205250D01*
X106436D01*
X106397Y205544D01*
X105994Y206517D01*
X105353Y207353D01*
X105161Y207500D01*
X105331Y208000D01*
X108318D01*
X108539Y207552D01*
X108133Y207022D01*
X107629Y205805D01*
X107457Y204500D01*
X107629Y203195D01*
X108133Y201978D01*
X108934Y200934D01*
X109978Y200132D01*
X110132Y200069D01*
X110539Y199539D01*
X112085Y197993D01*
X111905Y197465D01*
X111195Y197371D01*
X109978Y196868D01*
X108934Y196066D01*
X108133Y195022D01*
X107629Y193805D01*
X107457Y192500D01*
X107629Y191195D01*
X108133Y189978D01*
X108726Y189205D01*
Y187300D01*
X107700D01*
Y185740D01*
X103000D01*
Y178740D01*
Y173500D01*
X100740D01*
Y166500D01*
X101786D01*
X101838Y166373D01*
X102279Y165798D01*
X105539Y162539D01*
X106113Y162098D01*
X106782Y161821D01*
X107500Y161726D01*
X111532D01*
X112050Y161050D01*
X112990Y160329D01*
X114085Y159876D01*
X115260Y159721D01*
X116435Y159876D01*
X117529Y160329D01*
X118469Y161050D01*
X118988Y161726D01*
X132956D01*
X133291Y161291D01*
X134231Y160569D01*
X135325Y160116D01*
X136500Y159961D01*
X137675Y160116D01*
X138769Y160569D01*
X139709Y161291D01*
X140044Y161726D01*
X155396D01*
X155531Y161550D01*
X156471Y160829D01*
X157565Y160376D01*
X158740Y160221D01*
X159915Y160376D01*
X161010Y160829D01*
X161950Y161550D01*
X162085Y161726D01*
X177396D01*
X177531Y161550D01*
X178471Y160829D01*
X179566Y160376D01*
X180740Y160221D01*
X181915Y160376D01*
X183010Y160829D01*
X183950Y161550D01*
X184085Y161726D01*
X200851D01*
X205678Y156900D01*
X205394Y156476D01*
X204171Y156983D01*
X202358Y157418D01*
X200500Y157564D01*
X198642Y157418D01*
X196829Y156983D01*
X195107Y156269D01*
X193518Y155295D01*
X192100Y154085D01*
X190890Y152667D01*
X189916Y151078D01*
X189202Y149356D01*
X188767Y147543D01*
X188621Y145685D01*
X188767Y143827D01*
X189202Y142014D01*
X189916Y140292D01*
X190890Y138703D01*
X192100Y137285D01*
X193518Y136075D01*
X195107Y135101D01*
X196201Y134647D01*
Y125500D01*
X196356Y124325D01*
X196809Y123231D01*
X197240Y122669D01*
Y122000D01*
X197909D01*
X198471Y121569D01*
X199565Y121116D01*
X200740Y120961D01*
X201915Y121116D01*
X203010Y121569D01*
X203571Y122000D01*
X204240D01*
Y122669D01*
X204494Y123000D01*
X205490D01*
Y125500D01*
Y128000D01*
X205279D01*
Y134846D01*
X205893Y135101D01*
X207482Y136075D01*
X208900Y137285D01*
X210110Y138703D01*
X211084Y140292D01*
X211798Y142014D01*
X212233Y143827D01*
X212379Y145685D01*
X212233Y147543D01*
X211798Y149356D01*
X211084Y151078D01*
X210110Y152667D01*
X208900Y154085D01*
X207482Y155295D01*
X207664Y155771D01*
X208000Y155726D01*
X218500D01*
X219218Y155821D01*
X219610Y155983D01*
X219887Y156098D01*
X220461Y156539D01*
X225649Y161726D01*
X239456D01*
X239791Y161291D01*
X240731Y160569D01*
X241825Y160116D01*
X243000Y159961D01*
X244175Y160116D01*
X245269Y160569D01*
X246209Y161291D01*
X246931Y162231D01*
X247384Y163325D01*
X247539Y164500D01*
X247458Y165113D01*
X247642Y165353D01*
X247757Y165630D01*
X247919Y166022D01*
X247982Y166500D01*
X252351D01*
X252399Y166343D01*
X253115Y165004D01*
X254078Y163830D01*
X255252Y162866D01*
X256591Y162151D01*
X258044Y161710D01*
X259555Y161561D01*
X261066Y161710D01*
X262520Y162151D01*
X263859Y162866D01*
X265032Y163830D01*
X265996Y165004D01*
X266711Y166343D01*
X267152Y167796D01*
X267301Y169307D01*
X267152Y170818D01*
X266711Y172271D01*
X265996Y173610D01*
X265032Y174784D01*
X263859Y175748D01*
X262520Y176463D01*
X261066Y176904D01*
X259555Y177053D01*
X258044Y176904D01*
X257402Y176709D01*
X257000Y177007D01*
Y183600D01*
X257000Y183600D01*
X257000D01*
X256997Y184074D01*
X258721Y185799D01*
X259162Y186373D01*
X259439Y187042D01*
X259534Y187760D01*
Y193240D01*
X259439Y193958D01*
X259277Y194350D01*
X259162Y194627D01*
X258721Y195202D01*
X254000Y199923D01*
Y208000D01*
X310500Y208000D01*
X313500Y205000D01*
D02*
G37*
G36*
X45502Y147361D02*
X29611D01*
Y98339D01*
X12988D01*
Y207000D01*
X45502D01*
Y147361D01*
D02*
G37*
%LPC*%
G36*
X168250Y20936D02*
X167956Y20897D01*
X166983Y20494D01*
X166147Y19853D01*
X165506Y19017D01*
X165103Y18044D01*
X165064Y17750D01*
X168250D01*
Y20936D01*
D02*
G37*
G36*
X169750D02*
Y17750D01*
X172936D01*
X172897Y18044D01*
X172494Y19017D01*
X171853Y19853D01*
X171017Y20494D01*
X170044Y20897D01*
X169750Y20936D01*
D02*
G37*
G36*
X158250D02*
X157956Y20897D01*
X156983Y20494D01*
X156147Y19853D01*
X155506Y19017D01*
X155103Y18044D01*
X155064Y17750D01*
X158250D01*
Y20936D01*
D02*
G37*
G36*
X159750D02*
Y17750D01*
X162936D01*
X162897Y18044D01*
X162494Y19017D01*
X161853Y19853D01*
X161017Y20494D01*
X160044Y20897D01*
X159750Y20936D01*
D02*
G37*
G36*
X274250Y28431D02*
X274086Y28410D01*
X273235Y28057D01*
X272504Y27496D01*
X271943Y26765D01*
X271590Y25914D01*
X271568Y25750D01*
X274250D01*
Y28431D01*
D02*
G37*
G36*
X275750D02*
Y25750D01*
X278432D01*
X278410Y25914D01*
X278057Y26765D01*
X277496Y27496D01*
X276765Y28057D01*
X275914Y28410D01*
X275750Y28431D01*
D02*
G37*
G36*
X278432Y24250D02*
X275750D01*
Y21568D01*
X275914Y21590D01*
X276765Y21943D01*
X277496Y22504D01*
X278057Y23235D01*
X278410Y24086D01*
X278432Y24250D01*
D02*
G37*
G36*
X249000Y22043D02*
X247695Y21871D01*
X246478Y21368D01*
X245434Y20566D01*
X244633Y19522D01*
X244271Y18648D01*
X243729D01*
X243368Y19522D01*
X242566Y20566D01*
X241522Y21368D01*
X240305Y21871D01*
X239000Y22043D01*
X237695Y21871D01*
X236478Y21368D01*
X235434Y20566D01*
X234632Y19522D01*
X234271Y18648D01*
X233729D01*
X233367Y19522D01*
X232566Y20566D01*
X231522Y21368D01*
X230305Y21871D01*
X229000Y22043D01*
X227695Y21871D01*
X226478Y21368D01*
X225434Y20566D01*
X224633Y19522D01*
X224271Y18648D01*
X223729D01*
X223368Y19522D01*
X222566Y20566D01*
X221522Y21368D01*
X220305Y21871D01*
X219000Y22043D01*
X217695Y21871D01*
X216478Y21368D01*
X215434Y20566D01*
X214633Y19522D01*
X214271Y18648D01*
X213729D01*
X213368Y19522D01*
X212566Y20566D01*
X211522Y21368D01*
X210305Y21871D01*
X209000Y22043D01*
X207695Y21871D01*
X206478Y21368D01*
X205434Y20566D01*
X204632Y19522D01*
X204500Y19202D01*
X204000Y19301D01*
Y22000D01*
X194000D01*
Y12000D01*
X204000D01*
Y14699D01*
X204500Y14798D01*
X204632Y14478D01*
X205434Y13434D01*
X206478Y12632D01*
X207695Y12129D01*
X209000Y11957D01*
X210305Y12129D01*
X211522Y12632D01*
X212566Y13434D01*
X213368Y14478D01*
X213729Y15352D01*
X214271D01*
X214633Y14478D01*
X215434Y13434D01*
X216478Y12632D01*
X217695Y12129D01*
X219000Y11957D01*
X220305Y12129D01*
X221522Y12632D01*
X222566Y13434D01*
X223368Y14478D01*
X223729Y15352D01*
X224271D01*
X224633Y14478D01*
X225434Y13434D01*
X226478Y12632D01*
X227695Y12129D01*
X229000Y11957D01*
X230305Y12129D01*
X231522Y12632D01*
X232566Y13434D01*
X233367Y14478D01*
X233729Y15352D01*
X234271D01*
X234632Y14478D01*
X235434Y13434D01*
X236478Y12632D01*
X237695Y12129D01*
X239000Y11957D01*
X240305Y12129D01*
X241522Y12632D01*
X242566Y13434D01*
X243368Y14478D01*
X243729Y15352D01*
X244271D01*
X244633Y14478D01*
X245434Y13434D01*
X246478Y12632D01*
X247695Y12129D01*
X249000Y11957D01*
X250305Y12129D01*
X251522Y12632D01*
X252566Y13434D01*
X253367Y14478D01*
X253871Y15695D01*
X254043Y17000D01*
X253871Y18305D01*
X253367Y19522D01*
X252566Y20566D01*
X251522Y21368D01*
X250305Y21871D01*
X249000Y22043D01*
D02*
G37*
G36*
X274250Y24250D02*
X271568D01*
X271590Y24086D01*
X271943Y23235D01*
X272504Y22504D01*
X273235Y21943D01*
X274086Y21590D01*
X274250Y21568D01*
Y24250D01*
D02*
G37*
G36*
X172936Y16250D02*
X169750D01*
Y13064D01*
X170044Y13103D01*
X171017Y13506D01*
X171853Y14147D01*
X172494Y14983D01*
X172897Y15956D01*
X172936Y16250D01*
D02*
G37*
G36*
X168250Y8936D02*
X167956Y8897D01*
X166983Y8494D01*
X166147Y7853D01*
X165506Y7017D01*
X165103Y6044D01*
X165064Y5750D01*
X168250D01*
Y8936D01*
D02*
G37*
G36*
X169750D02*
Y5750D01*
X172936D01*
X172897Y6044D01*
X172494Y7017D01*
X171853Y7853D01*
X171017Y8494D01*
X170044Y8897D01*
X169750Y8936D01*
D02*
G37*
G36*
X159750D02*
Y5750D01*
X162936D01*
X162897Y6044D01*
X162494Y7017D01*
X161853Y7853D01*
X161017Y8494D01*
X160044Y8897D01*
X159750Y8936D01*
D02*
G37*
G36*
X61000Y57320D02*
X9000D01*
X8610Y57242D01*
X8279Y57021D01*
X8058Y56690D01*
X7980Y56300D01*
Y4300D01*
X8058Y3910D01*
X8279Y3579D01*
X8610Y3358D01*
X9000Y3280D01*
X61000D01*
X61390Y3358D01*
X61721Y3579D01*
X61942Y3910D01*
X62020Y4300D01*
Y56300D01*
X61942Y56690D01*
X61721Y57021D01*
X61390Y57242D01*
X61000Y57320D01*
D02*
G37*
G36*
X158250Y8936D02*
X157956Y8897D01*
X156983Y8494D01*
X156147Y7853D01*
X155506Y7017D01*
X155103Y6044D01*
X155064Y5750D01*
X158250D01*
Y8936D01*
D02*
G37*
G36*
X162936Y16250D02*
X159750D01*
Y13064D01*
X160044Y13103D01*
X161017Y13506D01*
X161853Y14147D01*
X162494Y14983D01*
X162897Y15956D01*
X162936Y16250D01*
D02*
G37*
G36*
X168250D02*
X165064D01*
X165103Y15956D01*
X165506Y14983D01*
X166147Y14147D01*
X166983Y13506D01*
X167956Y13103D01*
X168250Y13064D01*
Y16250D01*
D02*
G37*
G36*
X158250D02*
X155064D01*
X155103Y15956D01*
X155506Y14983D01*
X156147Y14147D01*
X156983Y13506D01*
X157956Y13103D01*
X158250Y13064D01*
Y16250D01*
D02*
G37*
G36*
X292500Y79023D02*
X291207Y78853D01*
X290002Y78354D01*
X288968Y77560D01*
X288174Y76525D01*
X287675Y75321D01*
X287505Y74028D01*
X287675Y72735D01*
X288174Y71530D01*
X288968Y70495D01*
X290002Y69701D01*
X290786Y69377D01*
Y68836D01*
X290002Y68511D01*
X288968Y67717D01*
X288174Y66682D01*
X287675Y65478D01*
X287505Y64185D01*
X287675Y62892D01*
X288174Y61687D01*
X288968Y60652D01*
X290002Y59858D01*
X290785Y59534D01*
Y58993D01*
X290002Y58669D01*
X288968Y57875D01*
X288174Y56840D01*
X287675Y55635D01*
X287505Y54343D01*
X287675Y53050D01*
X288174Y51845D01*
X288968Y50810D01*
X290002Y50016D01*
X290786Y49692D01*
Y49150D01*
X290002Y48826D01*
X288968Y48032D01*
X288174Y46997D01*
X287675Y45792D01*
X287505Y44500D01*
X287675Y43207D01*
X288174Y42002D01*
X288968Y40967D01*
X290002Y40173D01*
X290785Y39849D01*
Y39308D01*
X290002Y38984D01*
X288968Y38190D01*
X288174Y37155D01*
X287675Y35950D01*
X287505Y34658D01*
X287675Y33365D01*
X288174Y32160D01*
X288968Y31125D01*
X290002Y30331D01*
X290786Y30007D01*
Y29465D01*
X290002Y29141D01*
X288968Y28347D01*
X288174Y27312D01*
X287675Y26107D01*
X287505Y24815D01*
X287675Y23522D01*
X288174Y22317D01*
X288968Y21282D01*
X290002Y20488D01*
X290154Y20425D01*
X290055Y19925D01*
X287547D01*
Y10020D01*
X297453D01*
Y19925D01*
X294945D01*
X294846Y20425D01*
X294998Y20488D01*
X296032Y21282D01*
X296826Y22317D01*
X297325Y23522D01*
X297496Y24815D01*
X297325Y26107D01*
X296826Y27312D01*
X296032Y28347D01*
X294998Y29141D01*
X294214Y29465D01*
Y30007D01*
X294998Y30331D01*
X296032Y31125D01*
X296826Y32160D01*
X297325Y33365D01*
X297496Y34658D01*
X297325Y35950D01*
X296826Y37155D01*
X296032Y38190D01*
X294998Y38984D01*
X294215Y39308D01*
Y39849D01*
X294998Y40173D01*
X296032Y40967D01*
X296826Y42002D01*
X297325Y43207D01*
X297496Y44500D01*
X297325Y45792D01*
X296826Y46997D01*
X296032Y48032D01*
X294998Y48826D01*
X294214Y49150D01*
Y49692D01*
X294998Y50016D01*
X296032Y50810D01*
X296826Y51845D01*
X297325Y53050D01*
X297496Y54343D01*
X297325Y55635D01*
X296826Y56840D01*
X296032Y57875D01*
X294998Y58669D01*
X294215Y58993D01*
Y59534D01*
X294998Y59858D01*
X296032Y60652D01*
X296826Y61687D01*
X297325Y62892D01*
X297496Y64185D01*
X297325Y65478D01*
X296826Y66682D01*
X296032Y67717D01*
X294998Y68511D01*
X294214Y68836D01*
Y69377D01*
X294998Y69701D01*
X296032Y70495D01*
X296826Y71530D01*
X297325Y72735D01*
X297496Y74028D01*
X297325Y75321D01*
X296826Y76525D01*
X296032Y77560D01*
X294998Y78354D01*
X293793Y78853D01*
X292500Y79023D01*
D02*
G37*
G36*
X179000Y22043D02*
X177695Y21871D01*
X176478Y21368D01*
X175434Y20566D01*
X174633Y19522D01*
X174129Y18305D01*
X173957Y17000D01*
X174129Y15695D01*
X174633Y14478D01*
X175434Y13434D01*
X176478Y12632D01*
X177695Y12129D01*
X179000Y11957D01*
X180305Y12129D01*
X181522Y12632D01*
X182566Y13434D01*
X183368Y14478D01*
X183871Y15695D01*
X184043Y17000D01*
X183871Y18305D01*
X183368Y19522D01*
X182566Y20566D01*
X181522Y21368D01*
X180305Y21871D01*
X179000Y22043D01*
D02*
G37*
G36*
X45502Y207000D02*
X12988D01*
Y98339D01*
X29611D01*
Y147361D01*
X45502D01*
Y207000D01*
D02*
G37*
G36*
X208740Y124750D02*
X206990D01*
Y123000D01*
X208740D01*
Y124750D01*
D02*
G37*
G36*
Y128000D02*
X206990D01*
Y126250D01*
X208740D01*
Y128000D01*
D02*
G37*
G36*
X114250Y83931D02*
Y81250D01*
X116931D01*
X116910Y81414D01*
X116557Y82265D01*
X115996Y82996D01*
X115265Y83557D01*
X114414Y83910D01*
X114250Y83931D01*
D02*
G37*
G36*
X112750Y79750D02*
X110069D01*
X110090Y79586D01*
X110443Y78735D01*
X111004Y78004D01*
X111735Y77443D01*
X112586Y77090D01*
X112750Y77069D01*
Y79750D01*
D02*
G37*
G36*
X116931D02*
X114250D01*
Y77069D01*
X114414Y77090D01*
X115265Y77443D01*
X115996Y78004D01*
X116557Y78735D01*
X116910Y79586D01*
X116931Y79750D01*
D02*
G37*
G36*
X112750Y83931D02*
X112586Y83910D01*
X111735Y83557D01*
X111004Y82996D01*
X110443Y82265D01*
X110090Y81414D01*
X110069Y81250D01*
X112750D01*
Y83931D01*
D02*
G37*
G36*
X101750Y191750D02*
X98564D01*
X98603Y191456D01*
X99006Y190483D01*
X99647Y189647D01*
X100483Y189006D01*
X101456Y188603D01*
X101750Y188564D01*
Y191750D01*
D02*
G37*
G36*
X92500Y197543D02*
X91195Y197371D01*
X89978Y196868D01*
X88934Y196066D01*
X88133Y195022D01*
X87771Y194148D01*
X87229D01*
X86867Y195022D01*
X86066Y196066D01*
X85022Y196868D01*
X83805Y197371D01*
X82500Y197543D01*
X81195Y197371D01*
X79978Y196868D01*
X78934Y196066D01*
X78132Y195022D01*
X77771Y194148D01*
X77229D01*
X76868Y195022D01*
X76066Y196066D01*
X75022Y196868D01*
X73805Y197371D01*
X72500Y197543D01*
X71195Y197371D01*
X69978Y196868D01*
X68934Y196066D01*
X68133Y195022D01*
X67629Y193805D01*
X67457Y192500D01*
X67629Y191195D01*
X68133Y189978D01*
X68934Y188934D01*
X69978Y188133D01*
X70703Y187832D01*
X70820Y187243D01*
X69539Y185961D01*
X69098Y185387D01*
X68983Y185110D01*
X68821Y184718D01*
X68726Y184000D01*
Y135544D01*
X68291Y135209D01*
X67569Y134269D01*
X67116Y133175D01*
X66961Y132000D01*
X67116Y130825D01*
X67569Y129731D01*
X68291Y128791D01*
X69231Y128069D01*
X70325Y127616D01*
X71500Y127461D01*
X72675Y127616D01*
X73769Y128069D01*
X74709Y128791D01*
X75431Y129731D01*
X75884Y130825D01*
X76039Y132000D01*
X75884Y133175D01*
X75431Y134269D01*
X74709Y135209D01*
X74274Y135544D01*
Y165150D01*
X74736Y165342D01*
X80039Y160039D01*
X80613Y159598D01*
X80890Y159483D01*
X81282Y159321D01*
X82000Y159226D01*
X82650D01*
X82842Y158764D01*
X80039Y155961D01*
X79598Y155387D01*
X79483Y155110D01*
X79321Y154718D01*
X79226Y154000D01*
Y142500D01*
X79321Y141782D01*
X79483Y141390D01*
X79598Y141113D01*
X80039Y140539D01*
X91726Y128851D01*
Y82649D01*
X90437Y81360D01*
X89937Y81567D01*
Y126563D01*
X49717D01*
Y80437D01*
X62793D01*
Y77673D01*
X62928Y76301D01*
X63328Y74981D01*
X63978Y73765D01*
X64853Y72699D01*
X76526Y61026D01*
X77592Y60151D01*
X78808Y59501D01*
X80128Y59101D01*
X81500Y58966D01*
X81500Y58966D01*
X205500D01*
X206872Y59101D01*
X208192Y59501D01*
X209408Y60151D01*
X210474Y61026D01*
X284474Y135026D01*
X284474Y135026D01*
X285349Y136092D01*
X285999Y137308D01*
X286399Y138628D01*
X286534Y140000D01*
Y174889D01*
X286839Y175460D01*
X287291Y176950D01*
X287444Y178500D01*
X287291Y180050D01*
X286839Y181540D01*
X286105Y182913D01*
X285117Y184117D01*
X283913Y185105D01*
X282540Y185839D01*
X281050Y186291D01*
X279500Y186444D01*
X277950Y186291D01*
X276460Y185839D01*
X275087Y185105D01*
X273883Y184117D01*
X272895Y182913D01*
X272161Y181540D01*
X271709Y180050D01*
X271556Y178500D01*
X271709Y176950D01*
X272161Y175460D01*
X272466Y174889D01*
Y142913D01*
X202587Y73034D01*
X93143D01*
X92896Y73534D01*
X93431Y74231D01*
X93884Y75325D01*
X94039Y76500D01*
X93967Y77044D01*
X96461Y79539D01*
X96902Y80113D01*
X97179Y80782D01*
X97274Y81500D01*
Y93150D01*
X97736Y93342D01*
X99539Y91539D01*
X100113Y91098D01*
X100390Y90983D01*
X100782Y90821D01*
X101500Y90726D01*
X103654D01*
Y89335D01*
X105332D01*
X105995Y88526D01*
X107061Y87651D01*
X108277Y87002D01*
X109596Y86601D01*
X110969Y86466D01*
X187685D01*
X189057Y86601D01*
X190377Y87002D01*
X191593Y87651D01*
X192659Y88526D01*
X198709Y94577D01*
X200500Y94436D01*
X202358Y94582D01*
X204171Y95017D01*
X205893Y95731D01*
X207482Y96705D01*
X208900Y97915D01*
X210110Y99333D01*
X211084Y100922D01*
X211798Y102644D01*
X212233Y104457D01*
X212379Y106315D01*
X212233Y108173D01*
X211798Y109986D01*
X211084Y111708D01*
X210110Y113297D01*
X208900Y114715D01*
X207482Y115925D01*
X205893Y116899D01*
X204171Y117613D01*
X202358Y118048D01*
X200500Y118194D01*
X198642Y118048D01*
X196829Y117613D01*
X195107Y116899D01*
X193518Y115925D01*
X192100Y114715D01*
X190890Y113297D01*
X189916Y111708D01*
X189202Y109986D01*
X188767Y108173D01*
X188621Y106315D01*
X188762Y104524D01*
X184772Y100534D01*
X110969D01*
X109596Y100399D01*
X108277Y99998D01*
X107061Y99348D01*
X105995Y98474D01*
X105332Y97665D01*
X103654D01*
Y96274D01*
X102649D01*
X101274Y97649D01*
Y111112D01*
X101774Y111358D01*
X102113Y111098D01*
X102782Y110821D01*
X103500Y110726D01*
X103654D01*
Y109335D01*
X118284D01*
Y117665D01*
X105274D01*
Y136500D01*
X105179Y137218D01*
X104902Y137887D01*
X104461Y138461D01*
X96912Y146011D01*
X97091Y146539D01*
X97675Y146616D01*
X98769Y147069D01*
X99709Y147791D01*
X100431Y148731D01*
X100884Y149825D01*
X101039Y151000D01*
X100884Y152175D01*
X100664Y152706D01*
X101088Y152989D01*
X130226Y123851D01*
Y111544D01*
X129791Y111209D01*
X129069Y110269D01*
X128616Y109175D01*
X128461Y108000D01*
X128616Y106825D01*
X129069Y105731D01*
X129791Y104791D01*
X130731Y104069D01*
X131825Y103616D01*
X133000Y103461D01*
X134175Y103616D01*
X135269Y104069D01*
X136209Y104791D01*
X136931Y105731D01*
X137384Y106825D01*
X137539Y108000D01*
X137384Y109175D01*
X136931Y110269D01*
X136209Y111209D01*
X135774Y111544D01*
Y125000D01*
X135679Y125718D01*
X135517Y126110D01*
X135402Y126387D01*
X134961Y126961D01*
X100467Y161456D01*
X100539Y162000D01*
X100384Y163175D01*
X99931Y164269D01*
X99209Y165209D01*
X98269Y165931D01*
X97175Y166384D01*
X96000Y166539D01*
X95043Y166413D01*
X94809Y166886D01*
X95461Y167539D01*
X95902Y168113D01*
X96017Y168390D01*
X96179Y168782D01*
X96194Y168895D01*
X96709Y169291D01*
X97431Y170231D01*
X97884Y171325D01*
X98039Y172500D01*
X97884Y173675D01*
X97431Y174769D01*
X96709Y175709D01*
X96274Y176044D01*
Y184500D01*
X96179Y185218D01*
X96017Y185610D01*
X95902Y185887D01*
X95461Y186461D01*
X94469Y187454D01*
X94567Y187944D01*
X95022Y188133D01*
X96066Y188934D01*
X96868Y189978D01*
X97371Y191195D01*
X97543Y192500D01*
X97371Y193805D01*
X96868Y195022D01*
X96066Y196066D01*
X95022Y196868D01*
X93805Y197371D01*
X92500Y197543D01*
D02*
G37*
G36*
X101750Y203750D02*
X98564D01*
X98603Y203456D01*
X99006Y202483D01*
X99647Y201647D01*
X100483Y201006D01*
X101456Y200603D01*
X101750Y200564D01*
Y203750D01*
D02*
G37*
G36*
X106436D02*
X103250D01*
Y200564D01*
X103544Y200603D01*
X104517Y201006D01*
X105353Y201647D01*
X105994Y202483D01*
X106397Y203456D01*
X106436Y203750D01*
D02*
G37*
G36*
X103250Y196436D02*
Y193250D01*
X106436D01*
X106397Y193544D01*
X105994Y194517D01*
X105353Y195353D01*
X104517Y195994D01*
X103544Y196397D01*
X103250Y196436D01*
D02*
G37*
G36*
X106436Y191750D02*
X103250D01*
Y188564D01*
X103544Y188603D01*
X104517Y189006D01*
X105353Y189647D01*
X105994Y190483D01*
X106397Y191456D01*
X106436Y191750D01*
D02*
G37*
G36*
X279500Y206444D02*
X277950Y206291D01*
X276460Y205839D01*
X275087Y205105D01*
X273883Y204117D01*
X272895Y202913D01*
X272161Y201540D01*
X271709Y200050D01*
X271556Y198500D01*
X271709Y196950D01*
X272161Y195460D01*
X272895Y194087D01*
X273883Y192883D01*
X275087Y191895D01*
X276460Y191161D01*
X277950Y190709D01*
X279500Y190556D01*
X281050Y190709D01*
X282540Y191161D01*
X283913Y191895D01*
X285117Y192883D01*
X286105Y194087D01*
X286839Y195460D01*
X287291Y196950D01*
X287444Y198500D01*
X287291Y200050D01*
X286839Y201540D01*
X286105Y202913D01*
X285117Y204117D01*
X283913Y205105D01*
X282540Y205839D01*
X281050Y206291D01*
X279500Y206444D01*
D02*
G37*
G36*
X101750Y196436D02*
X101456Y196397D01*
X100483Y195994D01*
X99647Y195353D01*
X99006Y194517D01*
X98603Y193544D01*
X98564Y193250D01*
X101750D01*
Y196436D01*
D02*
G37*
G36*
X259555Y90439D02*
X258044Y90290D01*
X256591Y89849D01*
X255252Y89134D01*
X254078Y88170D01*
X253115Y86996D01*
X252399Y85657D01*
X251958Y84204D01*
X251809Y82693D01*
X251958Y81182D01*
X252399Y79729D01*
X253115Y78390D01*
X254078Y77216D01*
X255252Y76253D01*
X256591Y75537D01*
X258044Y75096D01*
X259555Y74947D01*
X261066Y75096D01*
X262520Y75537D01*
X263859Y76253D01*
X265032Y77216D01*
X265996Y78390D01*
X266711Y79729D01*
X267152Y81182D01*
X267301Y82693D01*
X267152Y84204D01*
X266711Y85657D01*
X265996Y86996D01*
X265032Y88170D01*
X263859Y89134D01*
X262520Y89849D01*
X261066Y90290D01*
X259555Y90439D01*
D02*
G37*
%LPD*%
G36*
X61000Y4300D02*
X9000D01*
Y56300D01*
X61000D01*
Y4300D01*
D02*
G37*
%LPC*%
G36*
X39000Y197560D02*
X38282D01*
Y196842D01*
X39000D01*
Y197560D01*
D02*
G37*
G36*
Y202000D02*
X33879D01*
Y198537D01*
X34486D01*
Y201319D01*
X36070D01*
Y198914D01*
X36676D01*
Y201319D01*
X39000D01*
Y202000D01*
D02*
G37*
G36*
X24500D02*
X18099D01*
Y201149D01*
X21281D01*
X18099Y197985D01*
Y196829D01*
X20698Y199512D01*
X24500Y196709D01*
Y197828D01*
X21272Y200104D01*
X22280Y201149D01*
X24500D01*
Y202000D01*
D02*
G37*
G36*
X39000Y175064D02*
X35285D01*
Y174494D01*
X35848D01*
X35840Y174487D01*
X35788Y174457D01*
X35722Y174420D01*
X35640Y174361D01*
X35559Y174302D01*
X35470Y174235D01*
X35396Y174169D01*
X35337Y174102D01*
X35330Y174095D01*
X35315Y174072D01*
X35293Y174028D01*
X35270Y173984D01*
X35248Y173924D01*
X35226Y173850D01*
X35211Y173776D01*
X35204Y173695D01*
Y173680D01*
Y173643D01*
X35211Y173577D01*
X35226Y173495D01*
X35256Y173399D01*
X35293Y173295D01*
X35344Y173177D01*
X35411Y173051D01*
X35988Y173281D01*
X35981Y173288D01*
X35966Y173318D01*
X35944Y173362D01*
X35922Y173421D01*
X35899Y173488D01*
X35877Y173569D01*
X35862Y173651D01*
X35855Y173732D01*
Y173739D01*
Y173769D01*
X35862Y173806D01*
X35870Y173858D01*
X35885Y173910D01*
X35907Y173976D01*
X35936Y174043D01*
X35981Y174102D01*
X35988Y174109D01*
X36003Y174132D01*
X36033Y174154D01*
X36070Y174191D01*
X36121Y174228D01*
X36181Y174265D01*
X36247Y174302D01*
X36329Y174331D01*
X36343Y174339D01*
X36388Y174346D01*
X36454Y174361D01*
X36543Y174383D01*
X36654Y174405D01*
X36780Y174420D01*
X36913Y174428D01*
X37061Y174435D01*
X39000D01*
Y175064D01*
D02*
G37*
G36*
X24500Y167359D02*
X18099Y164917D01*
Y163992D01*
X24500Y161374D01*
Y162336D01*
X22558Y163085D01*
Y165768D01*
X24500Y166462D01*
Y167359D01*
D02*
G37*
G36*
X39000Y164719D02*
X35285D01*
Y164149D01*
X35848D01*
X35840Y164142D01*
X35788Y164112D01*
X35722Y164075D01*
X35640Y164016D01*
X35559Y163957D01*
X35470Y163890D01*
X35396Y163823D01*
X35337Y163757D01*
X35330Y163749D01*
X35315Y163727D01*
X35293Y163683D01*
X35270Y163638D01*
X35248Y163579D01*
X35226Y163505D01*
X35211Y163431D01*
X35204Y163350D01*
Y163335D01*
Y163298D01*
X35211Y163231D01*
X35226Y163150D01*
X35256Y163054D01*
X35293Y162950D01*
X35344Y162832D01*
X35411Y162706D01*
X35988Y162935D01*
X35981Y162943D01*
X35966Y162972D01*
X35944Y163017D01*
X35922Y163076D01*
X35899Y163143D01*
X35877Y163224D01*
X35862Y163305D01*
X35855Y163387D01*
Y163394D01*
Y163424D01*
X35862Y163461D01*
X35870Y163513D01*
X35885Y163564D01*
X35907Y163631D01*
X35936Y163698D01*
X35981Y163757D01*
X35988Y163764D01*
X36003Y163786D01*
X36033Y163809D01*
X36070Y163846D01*
X36121Y163883D01*
X36181Y163920D01*
X36247Y163957D01*
X36329Y163986D01*
X36343Y163994D01*
X36388Y164001D01*
X36454Y164016D01*
X36543Y164038D01*
X36654Y164060D01*
X36780Y164075D01*
X36913Y164082D01*
X37061Y164090D01*
X39000D01*
Y164719D01*
D02*
G37*
G36*
X37180Y168907D02*
X37091D01*
X37024Y168900D01*
X36943Y168892D01*
X36854Y168885D01*
X36750Y168870D01*
X36647Y168848D01*
X36410Y168789D01*
X36292Y168752D01*
X36166Y168707D01*
X36047Y168648D01*
X35936Y168582D01*
X35825Y168508D01*
X35722Y168426D01*
X35714Y168419D01*
X35700Y168404D01*
X35677Y168374D01*
X35640Y168337D01*
X35603Y168293D01*
X35559Y168234D01*
X35507Y168167D01*
X35463Y168086D01*
X35411Y168004D01*
X35367Y167908D01*
X35322Y167805D01*
X35285Y167694D01*
X35248Y167575D01*
X35226Y167449D01*
X35211Y167316D01*
X35204Y167176D01*
Y167168D01*
Y167146D01*
Y167102D01*
X35211Y167050D01*
X35219Y166991D01*
X35233Y166917D01*
X35248Y166835D01*
X35270Y166739D01*
X35293Y166650D01*
X35330Y166547D01*
X35367Y166450D01*
X35418Y166347D01*
X35478Y166243D01*
X35544Y166140D01*
X35626Y166043D01*
X35714Y165955D01*
X35722Y165947D01*
X35737Y165932D01*
X35766Y165910D01*
X35811Y165881D01*
X35862Y165844D01*
X35922Y165807D01*
X35996Y165762D01*
X36084Y165718D01*
X36181Y165673D01*
X36284Y165629D01*
X36403Y165592D01*
X36528Y165555D01*
X36669Y165525D01*
X36817Y165503D01*
X36972Y165488D01*
X37143Y165481D01*
X37231D01*
X37305Y165488D01*
Y168263D01*
X37335D01*
X37365Y168256D01*
X37409D01*
X37461Y168249D01*
X37520Y168234D01*
X37653Y168212D01*
X37801Y168167D01*
X37964Y168108D01*
X38112Y168027D01*
X38245Y167923D01*
Y167916D01*
X38260Y167908D01*
X38297Y167864D01*
X38349Y167797D01*
X38401Y167708D01*
X38460Y167590D01*
X38512Y167457D01*
X38549Y167309D01*
X38556Y167227D01*
X38563Y167139D01*
Y167131D01*
Y167124D01*
Y167079D01*
X38556Y167013D01*
X38541Y166931D01*
X38519Y166843D01*
X38489Y166739D01*
X38445Y166643D01*
X38386Y166547D01*
X38378Y166539D01*
X38349Y166502D01*
X38304Y166458D01*
X38245Y166406D01*
X38164Y166347D01*
X38060Y166280D01*
X37942Y166214D01*
X37801Y166154D01*
X37883Y165503D01*
X37890D01*
X37905Y165511D01*
X37934Y165518D01*
X37979Y165533D01*
X38023Y165555D01*
X38082Y165577D01*
X38208Y165636D01*
X38349Y165710D01*
X38497Y165814D01*
X38637Y165932D01*
X38771Y166080D01*
Y166088D01*
X38785Y166103D01*
X38800Y166125D01*
X38822Y166154D01*
X38845Y166199D01*
X38867Y166243D01*
X38896Y166302D01*
X38926Y166369D01*
X38956Y166443D01*
X38985Y166517D01*
X39030Y166702D01*
X39067Y166909D01*
X39081Y167139D01*
Y167146D01*
Y167176D01*
Y167220D01*
X39074Y167272D01*
X39067Y167338D01*
X39052Y167420D01*
X39037Y167509D01*
X39022Y167605D01*
X38963Y167812D01*
X38919Y167923D01*
X38874Y168027D01*
X38815Y168138D01*
X38748Y168241D01*
X38674Y168337D01*
X38586Y168434D01*
X38578Y168441D01*
X38563Y168456D01*
X38534Y168478D01*
X38489Y168508D01*
X38438Y168545D01*
X38378Y168582D01*
X38304Y168626D01*
X38223Y168670D01*
X38127Y168715D01*
X38023Y168759D01*
X37905Y168796D01*
X37779Y168833D01*
X37646Y168863D01*
X37498Y168885D01*
X37342Y168900D01*
X37180Y168907D01*
D02*
G37*
G36*
X39000Y172689D02*
X33879D01*
Y172060D01*
X35707D01*
X35700Y172052D01*
X35685Y172045D01*
X35663Y172023D01*
X35626Y171986D01*
X35589Y171949D01*
X35544Y171904D01*
X35500Y171845D01*
X35455Y171786D01*
X35359Y171638D01*
X35285Y171468D01*
X35248Y171371D01*
X35226Y171268D01*
X35211Y171157D01*
X35204Y171046D01*
Y171038D01*
Y171031D01*
Y170987D01*
X35211Y170920D01*
X35219Y170839D01*
X35241Y170742D01*
X35263Y170631D01*
X35300Y170513D01*
X35344Y170402D01*
X35352Y170387D01*
X35367Y170350D01*
X35404Y170291D01*
X35448Y170224D01*
X35500Y170143D01*
X35566Y170062D01*
X35648Y169973D01*
X35737Y169899D01*
X35744Y169891D01*
X35781Y169869D01*
X35833Y169832D01*
X35899Y169788D01*
X35988Y169736D01*
X36092Y169684D01*
X36210Y169632D01*
X36336Y169588D01*
X36343D01*
X36351Y169581D01*
X36373Y169573D01*
X36395Y169566D01*
X36469Y169551D01*
X36565Y169529D01*
X36676Y169507D01*
X36802Y169484D01*
X36943Y169477D01*
X37091Y169470D01*
X37180D01*
X37246Y169477D01*
X37328Y169484D01*
X37416Y169492D01*
X37520Y169507D01*
X37631Y169529D01*
X37868Y169588D01*
X37994Y169625D01*
X38112Y169669D01*
X38238Y169721D01*
X38349Y169788D01*
X38460Y169862D01*
X38563Y169943D01*
X38571Y169951D01*
X38586Y169965D01*
X38608Y169988D01*
X38645Y170025D01*
X38682Y170076D01*
X38726Y170128D01*
X38771Y170187D01*
X38822Y170261D01*
X38867Y170343D01*
X38919Y170424D01*
X39000Y170624D01*
X39037Y170728D01*
X39059Y170839D01*
X39074Y170957D01*
X39081Y171075D01*
Y171083D01*
Y171105D01*
X39074Y171142D01*
Y171186D01*
X39067Y171238D01*
X39052Y171305D01*
X39015Y171453D01*
X38985Y171534D01*
X38948Y171616D01*
X38904Y171704D01*
X38852Y171786D01*
X38785Y171875D01*
X38711Y171956D01*
X38630Y172030D01*
X38534Y172104D01*
X39000D01*
Y172689D01*
D02*
G37*
G36*
X21253Y173362D02*
X21151D01*
X21087Y173353D01*
X20994D01*
X20902Y173344D01*
X20782Y173334D01*
X20661Y173316D01*
X20393Y173269D01*
X20097Y173205D01*
X19801Y173112D01*
X19514Y172983D01*
X19505Y172974D01*
X19477Y172964D01*
X19440Y172946D01*
X19394Y172909D01*
X19329Y172872D01*
X19255Y172826D01*
X19089Y172705D01*
X18904Y172548D01*
X18719Y172363D01*
X18534Y172150D01*
X18376Y171900D01*
X18367Y171891D01*
X18358Y171863D01*
X18339Y171827D01*
X18312Y171780D01*
X18284Y171706D01*
X18256Y171632D01*
X18219Y171540D01*
X18182Y171438D01*
X18145Y171327D01*
X18108Y171207D01*
X18053Y170948D01*
X18007Y170652D01*
X17988Y170346D01*
Y170337D01*
Y170300D01*
Y170254D01*
X17997Y170189D01*
X18007Y170106D01*
X18016Y170004D01*
X18025Y169903D01*
X18053Y169782D01*
X18108Y169533D01*
X18192Y169255D01*
X18247Y169116D01*
X18312Y168987D01*
X18395Y168857D01*
X18478Y168728D01*
X18487Y168719D01*
X18497Y168700D01*
X18525Y168663D01*
X18571Y168617D01*
X18617Y168570D01*
X18682Y168506D01*
X18756Y168441D01*
X18830Y168367D01*
X18922Y168293D01*
X19033Y168219D01*
X19144Y168136D01*
X19264Y168062D01*
X19403Y167997D01*
X19542Y167923D01*
X19690Y167868D01*
X19857Y167812D01*
X20051Y168644D01*
X20042D01*
X20023Y168654D01*
X19986Y168672D01*
X19940Y168691D01*
X19884Y168709D01*
X19810Y168737D01*
X19662Y168811D01*
X19496Y168904D01*
X19329Y169015D01*
X19172Y169153D01*
X19033Y169301D01*
X19015Y169320D01*
X18978Y169375D01*
X18932Y169468D01*
X18867Y169588D01*
X18811Y169745D01*
X18756Y169921D01*
X18719Y170134D01*
X18710Y170365D01*
Y170374D01*
Y170402D01*
Y170439D01*
X18719Y170485D01*
Y170550D01*
X18728Y170624D01*
X18756Y170800D01*
X18793Y170994D01*
X18857Y171197D01*
X18950Y171410D01*
X19070Y171605D01*
Y171614D01*
X19089Y171623D01*
X19135Y171688D01*
X19209Y171771D01*
X19320Y171873D01*
X19459Y171993D01*
X19616Y172104D01*
X19810Y172206D01*
X20023Y172298D01*
X20032D01*
X20051Y172308D01*
X20078Y172317D01*
X20125Y172326D01*
X20180Y172345D01*
X20245Y172363D01*
X20402Y172391D01*
X20587Y172428D01*
X20791Y172465D01*
X21013Y172483D01*
X21253Y172493D01*
X21392D01*
X21457Y172483D01*
X21540D01*
X21632Y172474D01*
X21734Y172465D01*
X21956Y172437D01*
X22197Y172391D01*
X22437Y172335D01*
X22678Y172261D01*
X22687D01*
X22705Y172252D01*
X22733Y172233D01*
X22780Y172215D01*
X22891Y172160D01*
X23020Y172076D01*
X23168Y171975D01*
X23325Y171845D01*
X23464Y171697D01*
X23594Y171521D01*
Y171512D01*
X23603Y171493D01*
X23621Y171466D01*
X23640Y171429D01*
X23658Y171382D01*
X23686Y171327D01*
X23742Y171197D01*
X23797Y171031D01*
X23843Y170846D01*
X23880Y170642D01*
X23889Y170430D01*
Y170421D01*
Y170402D01*
Y170365D01*
X23880Y170309D01*
Y170245D01*
X23871Y170180D01*
X23834Y170013D01*
X23788Y169819D01*
X23714Y169625D01*
X23612Y169422D01*
X23557Y169320D01*
X23483Y169227D01*
X23473Y169218D01*
X23464Y169209D01*
X23436Y169181D01*
X23408Y169144D01*
X23362Y169107D01*
X23307Y169061D01*
X23251Y169005D01*
X23177Y168959D01*
X23094Y168904D01*
X23001Y168839D01*
X22909Y168783D01*
X22798Y168728D01*
X22678Y168682D01*
X22548Y168635D01*
X22410Y168589D01*
X22262Y168552D01*
X22474Y167701D01*
X22483D01*
X22521Y167710D01*
X22576Y167729D01*
X22650Y167756D01*
X22733Y167784D01*
X22835Y167821D01*
X22946Y167868D01*
X23066Y167923D01*
X23325Y168052D01*
X23584Y168219D01*
X23714Y168321D01*
X23843Y168422D01*
X23954Y168534D01*
X24065Y168663D01*
X24074Y168672D01*
X24093Y168691D01*
X24112Y168737D01*
X24148Y168783D01*
X24195Y168857D01*
X24241Y168931D01*
X24287Y169033D01*
X24333Y169135D01*
X24389Y169255D01*
X24435Y169385D01*
X24482Y169523D01*
X24528Y169671D01*
X24565Y169828D01*
X24583Y169995D01*
X24602Y170171D01*
X24611Y170356D01*
Y170365D01*
Y170402D01*
Y170457D01*
X24602Y170531D01*
Y170615D01*
X24592Y170717D01*
X24574Y170827D01*
X24555Y170957D01*
X24509Y171225D01*
X24435Y171503D01*
X24333Y171780D01*
X24269Y171910D01*
X24195Y172039D01*
X24185Y172048D01*
X24176Y172067D01*
X24148Y172104D01*
X24112Y172141D01*
X24074Y172196D01*
X24019Y172261D01*
X23954Y172335D01*
X23880Y172409D01*
X23797Y172483D01*
X23714Y172566D01*
X23501Y172733D01*
X23251Y172890D01*
X22974Y173029D01*
X22964D01*
X22937Y173047D01*
X22891Y173057D01*
X22835Y173084D01*
X22761Y173103D01*
X22669Y173131D01*
X22567Y173168D01*
X22456Y173196D01*
X22335Y173223D01*
X22197Y173260D01*
X21910Y173307D01*
X21586Y173344D01*
X21253Y173362D01*
D02*
G37*
G36*
X37180Y179252D02*
X37091D01*
X37024Y179245D01*
X36943Y179238D01*
X36854Y179230D01*
X36750Y179215D01*
X36647Y179193D01*
X36410Y179134D01*
X36292Y179097D01*
X36166Y179053D01*
X36047Y178993D01*
X35936Y178927D01*
X35825Y178853D01*
X35722Y178771D01*
X35714Y178764D01*
X35700Y178749D01*
X35677Y178720D01*
X35640Y178683D01*
X35603Y178638D01*
X35559Y178579D01*
X35507Y178512D01*
X35463Y178431D01*
X35411Y178350D01*
X35367Y178253D01*
X35322Y178150D01*
X35285Y178039D01*
X35248Y177920D01*
X35226Y177795D01*
X35211Y177661D01*
X35204Y177521D01*
Y177513D01*
Y177491D01*
Y177447D01*
X35211Y177395D01*
X35219Y177336D01*
X35233Y177262D01*
X35248Y177180D01*
X35270Y177084D01*
X35293Y176995D01*
X35330Y176892D01*
X35367Y176796D01*
X35418Y176692D01*
X35478Y176588D01*
X35544Y176485D01*
X35626Y176389D01*
X35714Y176300D01*
X35722Y176292D01*
X35737Y176278D01*
X35766Y176255D01*
X35811Y176226D01*
X35862Y176189D01*
X35922Y176152D01*
X35996Y176107D01*
X36084Y176063D01*
X36181Y176019D01*
X36284Y175974D01*
X36403Y175937D01*
X36528Y175900D01*
X36669Y175871D01*
X36817Y175848D01*
X36972Y175834D01*
X37143Y175826D01*
X37231D01*
X37305Y175834D01*
Y178609D01*
X37335D01*
X37365Y178601D01*
X37409D01*
X37461Y178594D01*
X37520Y178579D01*
X37653Y178557D01*
X37801Y178512D01*
X37964Y178453D01*
X38112Y178372D01*
X38245Y178268D01*
Y178261D01*
X38260Y178253D01*
X38297Y178209D01*
X38349Y178142D01*
X38401Y178054D01*
X38460Y177935D01*
X38512Y177802D01*
X38549Y177654D01*
X38556Y177573D01*
X38563Y177484D01*
Y177476D01*
Y177469D01*
Y177425D01*
X38556Y177358D01*
X38541Y177277D01*
X38519Y177188D01*
X38489Y177084D01*
X38445Y176988D01*
X38386Y176892D01*
X38378Y176884D01*
X38349Y176847D01*
X38304Y176803D01*
X38245Y176751D01*
X38164Y176692D01*
X38060Y176625D01*
X37942Y176559D01*
X37801Y176500D01*
X37883Y175848D01*
X37890D01*
X37905Y175856D01*
X37934Y175863D01*
X37979Y175878D01*
X38023Y175900D01*
X38082Y175922D01*
X38208Y175982D01*
X38349Y176056D01*
X38497Y176159D01*
X38637Y176278D01*
X38771Y176426D01*
Y176433D01*
X38785Y176448D01*
X38800Y176470D01*
X38822Y176500D01*
X38845Y176544D01*
X38867Y176588D01*
X38896Y176648D01*
X38926Y176714D01*
X38956Y176788D01*
X38985Y176862D01*
X39030Y177047D01*
X39067Y177254D01*
X39081Y177484D01*
Y177491D01*
Y177521D01*
Y177565D01*
X39074Y177617D01*
X39067Y177684D01*
X39052Y177765D01*
X39037Y177854D01*
X39022Y177950D01*
X38963Y178157D01*
X38919Y178268D01*
X38874Y178372D01*
X38815Y178483D01*
X38748Y178586D01*
X38674Y178683D01*
X38586Y178779D01*
X38578Y178786D01*
X38563Y178801D01*
X38534Y178823D01*
X38489Y178853D01*
X38438Y178890D01*
X38378Y178927D01*
X38304Y178971D01*
X38223Y179016D01*
X38127Y179060D01*
X38023Y179104D01*
X37905Y179141D01*
X37779Y179178D01*
X37646Y179208D01*
X37498Y179230D01*
X37342Y179245D01*
X37180Y179252D01*
D02*
G37*
G36*
X24500Y191455D02*
X24398D01*
X24324Y191446D01*
X24241Y191437D01*
X24148Y191418D01*
X24056Y191400D01*
X23954Y191363D01*
X23945D01*
X23936Y191353D01*
X23880Y191335D01*
X23797Y191298D01*
X23686Y191242D01*
X23557Y191168D01*
X23408Y191076D01*
X23260Y190974D01*
X23103Y190845D01*
X23094D01*
X23085Y190826D01*
X23029Y190780D01*
X22946Y190697D01*
X22826Y190576D01*
X22687Y190437D01*
X22521Y190262D01*
X22335Y190049D01*
X22141Y189818D01*
X22132Y189808D01*
X22104Y189771D01*
X22058Y189716D01*
X22003Y189651D01*
X21928Y189568D01*
X21845Y189466D01*
X21753Y189365D01*
X21651Y189244D01*
X21429Y189013D01*
X21207Y188782D01*
X21096Y188671D01*
X20985Y188569D01*
X20883Y188477D01*
X20782Y188402D01*
X20772D01*
X20763Y188384D01*
X20735Y188365D01*
X20698Y188347D01*
X20596Y188282D01*
X20476Y188208D01*
X20328Y188144D01*
X20171Y188079D01*
X19995Y188042D01*
X19829Y188023D01*
X19810D01*
X19755Y188032D01*
X19662Y188042D01*
X19560Y188069D01*
X19431Y188107D01*
X19301Y188171D01*
X19172Y188254D01*
X19042Y188365D01*
X19024Y188384D01*
X18987Y188430D01*
X18941Y188495D01*
X18876Y188597D01*
X18821Y188726D01*
X18765Y188874D01*
X18728Y189050D01*
X18719Y189244D01*
Y189253D01*
Y189272D01*
Y189300D01*
X18728Y189337D01*
X18737Y189448D01*
X18765Y189577D01*
X18802Y189716D01*
X18867Y189873D01*
X18950Y190021D01*
X19061Y190160D01*
X19080Y190179D01*
X19126Y190216D01*
X19200Y190271D01*
X19311Y190326D01*
X19440Y190391D01*
X19607Y190447D01*
X19792Y190484D01*
X20005Y190502D01*
X19921Y191307D01*
X19912D01*
X19884Y191298D01*
X19838D01*
X19773Y191288D01*
X19699Y191270D01*
X19616Y191252D01*
X19514Y191224D01*
X19412Y191196D01*
X19191Y191122D01*
X18969Y191011D01*
X18857Y190946D01*
X18746Y190863D01*
X18645Y190780D01*
X18552Y190687D01*
X18543Y190678D01*
X18534Y190659D01*
X18506Y190632D01*
X18478Y190585D01*
X18441Y190530D01*
X18404Y190465D01*
X18358Y190391D01*
X18312Y190299D01*
X18266Y190197D01*
X18219Y190086D01*
X18182Y189966D01*
X18145Y189836D01*
X18117Y189698D01*
X18090Y189550D01*
X18080Y189392D01*
X18071Y189226D01*
Y189216D01*
Y189189D01*
Y189133D01*
X18080Y189068D01*
X18090Y188995D01*
X18099Y188902D01*
X18117Y188800D01*
X18136Y188698D01*
X18201Y188458D01*
X18293Y188217D01*
X18349Y188097D01*
X18414Y187977D01*
X18497Y187866D01*
X18589Y187764D01*
X18598Y187755D01*
X18608Y187736D01*
X18645Y187718D01*
X18682Y187681D01*
X18728Y187635D01*
X18793Y187589D01*
X18857Y187542D01*
X18941Y187487D01*
X19117Y187394D01*
X19339Y187302D01*
X19450Y187265D01*
X19579Y187246D01*
X19708Y187228D01*
X19847Y187218D01*
X19912D01*
X19986Y187228D01*
X20088Y187237D01*
X20199Y187256D01*
X20328Y187293D01*
X20467Y187329D01*
X20606Y187385D01*
X20624Y187394D01*
X20671Y187413D01*
X20744Y187450D01*
X20846Y187505D01*
X20957Y187579D01*
X21096Y187672D01*
X21235Y187783D01*
X21392Y187912D01*
X21410Y187931D01*
X21466Y187977D01*
X21512Y188023D01*
X21558Y188069D01*
X21614Y188125D01*
X21688Y188199D01*
X21762Y188273D01*
X21845Y188365D01*
X21938Y188458D01*
X22039Y188569D01*
X22141Y188689D01*
X22262Y188819D01*
X22382Y188967D01*
X22511Y189115D01*
X22521Y189124D01*
X22539Y189143D01*
X22567Y189180D01*
X22604Y189226D01*
X22659Y189281D01*
X22715Y189346D01*
X22835Y189494D01*
X22974Y189651D01*
X23112Y189799D01*
X23233Y189929D01*
X23279Y189984D01*
X23325Y190031D01*
X23335Y190040D01*
X23362Y190068D01*
X23399Y190104D01*
X23455Y190151D01*
X23519Y190197D01*
X23584Y190252D01*
X23742Y190364D01*
Y187209D01*
X24500D01*
Y191455D01*
D02*
G37*
G36*
X39000Y193682D02*
X33879D01*
Y192987D01*
X37905Y190301D01*
X33879D01*
Y189649D01*
X39000D01*
Y190352D01*
X34982Y193031D01*
X39000D01*
Y193682D01*
D02*
G37*
G36*
X37180Y187215D02*
X37091D01*
X37024Y187207D01*
X36943Y187200D01*
X36854Y187193D01*
X36750Y187178D01*
X36647Y187156D01*
X36410Y187096D01*
X36292Y187059D01*
X36166Y187015D01*
X36047Y186956D01*
X35936Y186889D01*
X35825Y186815D01*
X35722Y186734D01*
X35714Y186726D01*
X35700Y186712D01*
X35677Y186682D01*
X35640Y186645D01*
X35603Y186601D01*
X35559Y186541D01*
X35507Y186475D01*
X35463Y186393D01*
X35411Y186312D01*
X35367Y186216D01*
X35322Y186112D01*
X35285Y186001D01*
X35248Y185883D01*
X35226Y185757D01*
X35211Y185624D01*
X35204Y185483D01*
Y185476D01*
Y185454D01*
Y185409D01*
X35211Y185357D01*
X35219Y185298D01*
X35233Y185224D01*
X35248Y185143D01*
X35270Y185047D01*
X35293Y184958D01*
X35330Y184854D01*
X35367Y184758D01*
X35418Y184654D01*
X35478Y184551D01*
X35544Y184447D01*
X35626Y184351D01*
X35714Y184262D01*
X35722Y184255D01*
X35737Y184240D01*
X35766Y184218D01*
X35811Y184188D01*
X35862Y184151D01*
X35922Y184114D01*
X35996Y184070D01*
X36084Y184025D01*
X36181Y183981D01*
X36284Y183937D01*
X36403Y183900D01*
X36528Y183863D01*
X36669Y183833D01*
X36817Y183811D01*
X36972Y183796D01*
X37143Y183789D01*
X37231D01*
X37305Y183796D01*
Y186571D01*
X37335D01*
X37365Y186564D01*
X37409D01*
X37461Y186556D01*
X37520Y186541D01*
X37653Y186519D01*
X37801Y186475D01*
X37964Y186416D01*
X38112Y186334D01*
X38245Y186231D01*
Y186223D01*
X38260Y186216D01*
X38297Y186171D01*
X38349Y186105D01*
X38401Y186016D01*
X38460Y185898D01*
X38512Y185764D01*
X38549Y185616D01*
X38556Y185535D01*
X38563Y185446D01*
Y185439D01*
Y185431D01*
Y185387D01*
X38556Y185320D01*
X38541Y185239D01*
X38519Y185150D01*
X38489Y185047D01*
X38445Y184950D01*
X38386Y184854D01*
X38378Y184847D01*
X38349Y184810D01*
X38304Y184765D01*
X38245Y184714D01*
X38164Y184654D01*
X38060Y184588D01*
X37942Y184521D01*
X37801Y184462D01*
X37883Y183811D01*
X37890D01*
X37905Y183818D01*
X37934Y183826D01*
X37979Y183840D01*
X38023Y183863D01*
X38082Y183885D01*
X38208Y183944D01*
X38349Y184018D01*
X38497Y184122D01*
X38637Y184240D01*
X38771Y184388D01*
Y184395D01*
X38785Y184410D01*
X38800Y184432D01*
X38822Y184462D01*
X38845Y184506D01*
X38867Y184551D01*
X38896Y184610D01*
X38926Y184677D01*
X38956Y184751D01*
X38985Y184825D01*
X39030Y185010D01*
X39067Y185217D01*
X39081Y185446D01*
Y185454D01*
Y185483D01*
Y185528D01*
X39074Y185579D01*
X39067Y185646D01*
X39052Y185727D01*
X39037Y185816D01*
X39022Y185912D01*
X38963Y186120D01*
X38919Y186231D01*
X38874Y186334D01*
X38815Y186445D01*
X38748Y186549D01*
X38674Y186645D01*
X38586Y186741D01*
X38578Y186749D01*
X38563Y186763D01*
X38534Y186786D01*
X38489Y186815D01*
X38438Y186852D01*
X38378Y186889D01*
X38304Y186934D01*
X38223Y186978D01*
X38127Y187022D01*
X38023Y187067D01*
X37905Y187104D01*
X37779Y187141D01*
X37646Y187170D01*
X37498Y187193D01*
X37342Y187207D01*
X37180Y187215D01*
D02*
G37*
G36*
X39000Y188591D02*
X35285D01*
Y187962D01*
X39000D01*
Y188591D01*
D02*
G37*
G36*
X34597D02*
X33879D01*
Y187962D01*
X34597D01*
Y188591D01*
D02*
G37*
G36*
X37150Y183256D02*
X37054D01*
X37009Y183248D01*
X36950D01*
X36817Y183234D01*
X36662Y183211D01*
X36491Y183174D01*
X36314Y183130D01*
X36144Y183071D01*
X36136D01*
X36121Y183063D01*
X36099Y183049D01*
X36070Y183034D01*
X35988Y182989D01*
X35885Y182930D01*
X35774Y182856D01*
X35663Y182760D01*
X35544Y182649D01*
X35448Y182516D01*
Y182508D01*
X35441Y182501D01*
X35426Y182479D01*
X35411Y182449D01*
X35374Y182375D01*
X35322Y182272D01*
X35278Y182153D01*
X35241Y182013D01*
X35211Y181857D01*
X35204Y181694D01*
Y181687D01*
Y181680D01*
Y181635D01*
X35211Y181576D01*
X35219Y181495D01*
X35241Y181398D01*
X35263Y181295D01*
X35300Y181191D01*
X35352Y181095D01*
X35359Y181080D01*
X35374Y181051D01*
X35411Y181006D01*
X35448Y180947D01*
X35500Y180873D01*
X35566Y180806D01*
X35633Y180732D01*
X35714Y180666D01*
X33879D01*
Y180037D01*
X39000D01*
Y180621D01*
X38534D01*
X38541Y180629D01*
X38556Y180636D01*
X38586Y180658D01*
X38623Y180688D01*
X38660Y180725D01*
X38704Y180769D01*
X38756Y180821D01*
X38808Y180888D01*
X38859Y180954D01*
X38911Y181028D01*
X38956Y181117D01*
X38993Y181213D01*
X39030Y181310D01*
X39059Y181421D01*
X39074Y181539D01*
X39081Y181665D01*
Y181672D01*
Y181687D01*
Y181709D01*
X39074Y181739D01*
X39067Y181828D01*
X39052Y181931D01*
X39022Y182057D01*
X38978Y182198D01*
X38919Y182338D01*
X38837Y182479D01*
Y182486D01*
X38822Y182494D01*
X38793Y182538D01*
X38734Y182605D01*
X38660Y182686D01*
X38563Y182782D01*
X38445Y182878D01*
X38312Y182975D01*
X38156Y183056D01*
X38149D01*
X38134Y183063D01*
X38112Y183071D01*
X38082Y183086D01*
X38038Y183100D01*
X37986Y183123D01*
X37934Y183137D01*
X37868Y183152D01*
X37720Y183189D01*
X37550Y183226D01*
X37357Y183248D01*
X37150Y183256D01*
D02*
G37*
G36*
X24500Y181585D02*
X23714D01*
X19625Y178302D01*
X19616D01*
X19607Y178283D01*
X19551Y178237D01*
X19468Y178172D01*
X19366Y178089D01*
X19246Y177987D01*
X19117Y177876D01*
X18987Y177756D01*
X18857Y177636D01*
Y181215D01*
X18099D01*
Y176618D01*
X18857D01*
X23288Y180235D01*
X23742Y180614D01*
Y176516D01*
X24500D01*
Y181585D01*
D02*
G37*
G36*
X37128Y162573D02*
X37039D01*
X36987Y162565D01*
X36935D01*
X36802Y162551D01*
X36654Y162528D01*
X36491Y162491D01*
X36321Y162447D01*
X36151Y162380D01*
X36144D01*
X36129Y162373D01*
X36107Y162358D01*
X36077Y162343D01*
X35996Y162299D01*
X35892Y162240D01*
X35781Y162158D01*
X35670Y162062D01*
X35552Y161951D01*
X35455Y161825D01*
Y161818D01*
X35448Y161811D01*
X35433Y161788D01*
X35418Y161759D01*
X35374Y161685D01*
X35330Y161581D01*
X35285Y161455D01*
X35241Y161307D01*
X35211Y161145D01*
X35204Y160967D01*
Y160960D01*
Y160937D01*
Y160900D01*
X35211Y160856D01*
X35219Y160804D01*
X35233Y160738D01*
X35248Y160664D01*
X35270Y160582D01*
X35300Y160501D01*
X35337Y160412D01*
X35381Y160323D01*
X35433Y160227D01*
X35492Y160138D01*
X35566Y160049D01*
X35648Y159961D01*
X35744Y159879D01*
X35285D01*
Y159302D01*
X38637D01*
X38704Y159309D01*
X38785D01*
X38874Y159317D01*
X38970Y159324D01*
X39170Y159346D01*
X39377Y159376D01*
X39474Y159398D01*
X39562Y159420D01*
X39644Y159450D01*
X39718Y159480D01*
X39725D01*
X39733Y159487D01*
X39777Y159517D01*
X39844Y159554D01*
X39925Y159613D01*
X40014Y159694D01*
X40110Y159790D01*
X40206Y159909D01*
X40288Y160042D01*
Y160049D01*
X40295Y160057D01*
X40310Y160079D01*
X40317Y160109D01*
X40339Y160146D01*
X40354Y160190D01*
X40391Y160301D01*
X40436Y160434D01*
X40465Y160597D01*
X40495Y160782D01*
X40502Y160982D01*
Y160989D01*
Y161011D01*
Y161048D01*
X40495Y161093D01*
Y161152D01*
X40487Y161211D01*
X40480Y161285D01*
X40465Y161367D01*
X40428Y161537D01*
X40376Y161714D01*
X40302Y161892D01*
X40199Y162055D01*
X40191Y162062D01*
X40184Y162070D01*
X40140Y162121D01*
X40073Y162181D01*
X39977Y162255D01*
X39851Y162329D01*
X39696Y162395D01*
X39607Y162417D01*
X39511Y162432D01*
X39414Y162447D01*
X39303D01*
X39385Y161833D01*
X39400D01*
X39429Y161825D01*
X39481Y161811D01*
X39548Y161796D01*
X39614Y161766D01*
X39681Y161729D01*
X39747Y161685D01*
X39799Y161626D01*
X39807Y161611D01*
X39829Y161581D01*
X39858Y161529D01*
X39888Y161455D01*
X39925Y161367D01*
X39955Y161256D01*
X39977Y161122D01*
X39984Y160982D01*
Y160974D01*
Y160960D01*
Y160937D01*
Y160908D01*
X39977Y160834D01*
X39962Y160730D01*
X39940Y160627D01*
X39910Y160516D01*
X39866Y160405D01*
X39807Y160308D01*
X39799Y160301D01*
X39777Y160271D01*
X39733Y160227D01*
X39681Y160175D01*
X39607Y160123D01*
X39525Y160072D01*
X39429Y160020D01*
X39318Y159983D01*
X39311D01*
X39281Y159975D01*
X39222Y159968D01*
X39148Y159961D01*
X39096Y159953D01*
X39037D01*
X38970Y159946D01*
X38815D01*
X38719Y159938D01*
X38512D01*
X38519Y159946D01*
X38534Y159961D01*
X38556Y159983D01*
X38586Y160012D01*
X38623Y160049D01*
X38667Y160101D01*
X38711Y160160D01*
X38756Y160220D01*
X38845Y160375D01*
X38926Y160545D01*
X38956Y160641D01*
X38978Y160745D01*
X38993Y160856D01*
X39000Y160967D01*
Y160974D01*
Y161004D01*
X38993Y161041D01*
Y161093D01*
X38985Y161159D01*
X38970Y161233D01*
X38956Y161315D01*
X38933Y161404D01*
X38904Y161500D01*
X38867Y161596D01*
X38822Y161692D01*
X38771Y161796D01*
X38704Y161892D01*
X38630Y161988D01*
X38549Y162077D01*
X38452Y162158D01*
X38445Y162166D01*
X38430Y162173D01*
X38393Y162195D01*
X38356Y162225D01*
X38297Y162255D01*
X38238Y162292D01*
X38164Y162329D01*
X38075Y162366D01*
X37986Y162403D01*
X37883Y162440D01*
X37779Y162477D01*
X37661Y162506D01*
X37409Y162558D01*
X37268Y162565D01*
X37128Y162573D01*
D02*
G37*
G36*
X24500Y196034D02*
X18099D01*
Y195183D01*
X23742D01*
Y192028D01*
X24500D01*
Y196034D01*
D02*
G37*
G36*
X22826Y186367D02*
X22761Y185544D01*
X22789D01*
X22817Y185535D01*
X22863Y185526D01*
X22964Y185498D01*
X23103Y185461D01*
X23242Y185406D01*
X23399Y185331D01*
X23538Y185239D01*
X23667Y185128D01*
X23677Y185109D01*
X23714Y185073D01*
X23760Y184999D01*
X23816Y184897D01*
X23871Y184786D01*
X23917Y184647D01*
X23954Y184490D01*
X23964Y184314D01*
Y184305D01*
Y184286D01*
Y184258D01*
X23954Y184221D01*
X23945Y184110D01*
X23908Y183981D01*
X23862Y183824D01*
X23788Y183667D01*
X23677Y183500D01*
X23612Y183426D01*
X23538Y183352D01*
X23529Y183343D01*
X23519Y183334D01*
X23492Y183315D01*
X23464Y183287D01*
X23362Y183222D01*
X23233Y183149D01*
X23076Y183084D01*
X22881Y183019D01*
X22650Y182973D01*
X22530Y182954D01*
X22335D01*
X22289Y182964D01*
X22234D01*
X22169Y182973D01*
X22021Y183001D01*
X21845Y183047D01*
X21669Y183112D01*
X21503Y183204D01*
X21346Y183334D01*
X21337D01*
X21327Y183352D01*
X21281Y183398D01*
X21216Y183482D01*
X21142Y183592D01*
X21078Y183740D01*
X21013Y183907D01*
X20967Y184101D01*
X20948Y184212D01*
Y184323D01*
Y184342D01*
Y184388D01*
X20957Y184462D01*
X20967Y184555D01*
X20994Y184666D01*
X21022Y184776D01*
X21068Y184897D01*
X21124Y185017D01*
X21133Y185026D01*
X21151Y185063D01*
X21198Y185119D01*
X21244Y185193D01*
X21309Y185267D01*
X21392Y185341D01*
X21475Y185424D01*
X21577Y185489D01*
X21475Y186229D01*
X18182Y185609D01*
Y182427D01*
X18932D01*
Y184989D01*
X20661Y185331D01*
X20652Y185322D01*
X20643Y185304D01*
X20624Y185276D01*
X20596Y185230D01*
X20569Y185174D01*
X20532Y185109D01*
X20458Y184961D01*
X20384Y184776D01*
X20319Y184573D01*
X20273Y184351D01*
X20254Y184240D01*
Y184120D01*
Y184110D01*
Y184083D01*
Y184037D01*
X20264Y183981D01*
X20273Y183907D01*
X20282Y183824D01*
X20301Y183731D01*
X20328Y183630D01*
X20393Y183407D01*
X20439Y183287D01*
X20504Y183167D01*
X20569Y183047D01*
X20643Y182926D01*
X20735Y182816D01*
X20837Y182704D01*
X20846Y182695D01*
X20865Y182677D01*
X20892Y182649D01*
X20939Y182612D01*
X21003Y182566D01*
X21068Y182519D01*
X21151Y182464D01*
X21244Y182408D01*
X21346Y182362D01*
X21457Y182307D01*
X21586Y182261D01*
X21716Y182214D01*
X21855Y182177D01*
X22012Y182150D01*
X22169Y182131D01*
X22335Y182122D01*
X22419D01*
X22483Y182131D01*
X22558Y182140D01*
X22641Y182150D01*
X22742Y182168D01*
X22844Y182186D01*
X23085Y182242D01*
X23335Y182334D01*
X23464Y182390D01*
X23584Y182464D01*
X23714Y182538D01*
X23834Y182631D01*
X23843Y182640D01*
X23871Y182658D01*
X23908Y182695D01*
X23954Y182741D01*
X24010Y182806D01*
X24084Y182880D01*
X24148Y182973D01*
X24223Y183074D01*
X24296Y183186D01*
X24361Y183315D01*
X24426Y183454D01*
X24491Y183602D01*
X24537Y183759D01*
X24574Y183935D01*
X24602Y184120D01*
X24611Y184314D01*
Y184323D01*
Y184351D01*
Y184397D01*
X24602Y184462D01*
X24592Y184536D01*
X24583Y184619D01*
X24574Y184721D01*
X24546Y184823D01*
X24491Y185054D01*
X24408Y185285D01*
X24352Y185406D01*
X24287Y185526D01*
X24213Y185637D01*
X24130Y185748D01*
X24121Y185757D01*
X24112Y185775D01*
X24074Y185794D01*
X24037Y185831D01*
X23991Y185877D01*
X23936Y185924D01*
X23862Y185979D01*
X23778Y186025D01*
X23695Y186081D01*
X23594Y186136D01*
X23371Y186238D01*
X23112Y186321D01*
X22974Y186349D01*
X22826Y186367D01*
D02*
G37*
G36*
X24500Y136926D02*
X19857D01*
Y136214D01*
X20560D01*
X20550Y136205D01*
X20485Y136168D01*
X20402Y136121D01*
X20301Y136047D01*
X20199Y135974D01*
X20088Y135890D01*
X19995Y135807D01*
X19921Y135724D01*
X19912Y135714D01*
X19894Y135687D01*
X19866Y135631D01*
X19838Y135576D01*
X19810Y135502D01*
X19782Y135409D01*
X19764Y135317D01*
X19755Y135215D01*
Y135196D01*
Y135150D01*
X19764Y135067D01*
X19782Y134965D01*
X19819Y134845D01*
X19866Y134715D01*
X19930Y134567D01*
X19994Y134447D01*
X19857D01*
Y133754D01*
X19292D01*
X19209Y133744D01*
X19107D01*
X18996Y133735D01*
X18876Y133716D01*
X18765Y133698D01*
X18673Y133670D01*
X18663Y133661D01*
X18617Y133652D01*
X18562Y133624D01*
X18497Y133578D01*
X18423Y133522D01*
X18339Y133458D01*
X18256Y133374D01*
X18182Y133273D01*
X18173Y133263D01*
X18155Y133217D01*
X18117Y133152D01*
X18080Y133060D01*
X18053Y132949D01*
X18016Y132810D01*
X17997Y132653D01*
X17988Y132468D01*
Y132449D01*
Y132412D01*
Y132338D01*
X17997Y132255D01*
X18007Y132144D01*
X18025Y132015D01*
X18044Y131885D01*
X18071Y131737D01*
X18756Y131857D01*
Y131867D01*
X18746Y131894D01*
X18737Y131940D01*
X18728Y132005D01*
Y132079D01*
X18719Y132153D01*
X18710Y132320D01*
Y132338D01*
Y132375D01*
X18719Y132440D01*
X18728Y132514D01*
X18746Y132597D01*
X18774Y132680D01*
X18811Y132755D01*
X18867Y132819D01*
X18876Y132828D01*
X18894Y132838D01*
X18932Y132866D01*
X18996Y132893D01*
X19070Y132921D01*
X19163Y132940D01*
X19283Y132958D01*
X19431Y132967D01*
X19857D01*
Y132070D01*
X20467D01*
Y132967D01*
X24500D01*
Y133754D01*
X20467D01*
Y134447D01*
X20107D01*
X20735Y134697D01*
X20726Y134706D01*
X20707Y134743D01*
X20680Y134799D01*
X20652Y134873D01*
X20624Y134956D01*
X20596Y135058D01*
X20578Y135160D01*
X20569Y135261D01*
Y135271D01*
Y135308D01*
X20578Y135354D01*
X20587Y135418D01*
X20606Y135483D01*
X20633Y135566D01*
X20671Y135650D01*
X20726Y135724D01*
X20735Y135733D01*
X20754Y135761D01*
X20791Y135789D01*
X20837Y135835D01*
X20902Y135881D01*
X20976Y135927D01*
X21059Y135974D01*
X21161Y136011D01*
X21179Y136020D01*
X21235Y136029D01*
X21318Y136047D01*
X21429Y136075D01*
X21568Y136103D01*
X21725Y136121D01*
X21892Y136131D01*
X22076Y136140D01*
X24500D01*
Y136926D01*
D02*
G37*
G36*
X18099Y115096D02*
Y114171D01*
X22752Y112506D01*
X22761D01*
X22780Y112497D01*
X22807Y112488D01*
X22844Y112469D01*
X22900Y112460D01*
X22955Y112442D01*
X23094Y112395D01*
X23251Y112340D01*
X23427Y112284D01*
X23797Y112173D01*
X23788D01*
X23769Y112164D01*
X23742Y112155D01*
X23705Y112145D01*
X23603Y112118D01*
X23464Y112072D01*
X23307Y112025D01*
X23131Y111970D01*
X22946Y111905D01*
X22752Y111831D01*
X18099Y110092D01*
Y109232D01*
X24500Y111729D01*
Y112617D01*
X18099Y115096D01*
D02*
G37*
G36*
X20439Y105698D02*
X19681D01*
Y105689D01*
X19662Y105670D01*
X19653Y105633D01*
X19625Y105587D01*
X19598Y105532D01*
X19560Y105467D01*
X19468Y105310D01*
X19366Y105125D01*
X19237Y104940D01*
X19089Y104745D01*
X18932Y104551D01*
X18922Y104542D01*
X18913Y104533D01*
X18885Y104505D01*
X18857Y104468D01*
X18765Y104385D01*
X18654Y104274D01*
X18525Y104163D01*
X18376Y104042D01*
X18228Y103941D01*
X18071Y103848D01*
Y103340D01*
X24500D01*
Y104126D01*
X19496D01*
X19505Y104135D01*
X19542Y104181D01*
X19598Y104237D01*
X19662Y104329D01*
X19746Y104431D01*
X19838Y104560D01*
X19940Y104709D01*
X20042Y104875D01*
Y104884D01*
X20051Y104894D01*
X20088Y104949D01*
X20134Y105042D01*
X20189Y105152D01*
X20254Y105282D01*
X20319Y105421D01*
X20384Y105560D01*
X20439Y105698D01*
D02*
G37*
G36*
X22224Y142162D02*
X22114D01*
X22030Y142153D01*
X21928Y142143D01*
X21817Y142134D01*
X21688Y142115D01*
X21558Y142088D01*
X21262Y142014D01*
X21114Y141967D01*
X20957Y141912D01*
X20809Y141838D01*
X20671Y141755D01*
X20532Y141662D01*
X20402Y141560D01*
X20393Y141551D01*
X20374Y141533D01*
X20347Y141496D01*
X20301Y141449D01*
X20254Y141394D01*
X20199Y141320D01*
X20134Y141237D01*
X20078Y141135D01*
X20014Y141033D01*
X19958Y140913D01*
X19903Y140784D01*
X19857Y140645D01*
X19810Y140497D01*
X19782Y140340D01*
X19764Y140173D01*
X19755Y139997D01*
Y139988D01*
Y139960D01*
Y139905D01*
X19764Y139840D01*
X19773Y139766D01*
X19792Y139673D01*
X19810Y139572D01*
X19838Y139452D01*
X19866Y139340D01*
X19912Y139211D01*
X19958Y139091D01*
X20023Y138961D01*
X20097Y138832D01*
X20180Y138702D01*
X20282Y138582D01*
X20393Y138471D01*
X20402Y138462D01*
X20421Y138443D01*
X20458Y138416D01*
X20513Y138379D01*
X20578Y138332D01*
X20652Y138286D01*
X20744Y138231D01*
X20855Y138175D01*
X20976Y138119D01*
X21105Y138064D01*
X21253Y138018D01*
X21410Y137971D01*
X21586Y137935D01*
X21771Y137907D01*
X21966Y137888D01*
X22178Y137879D01*
X22289D01*
X22382Y137888D01*
Y141357D01*
X22419D01*
X22456Y141348D01*
X22511D01*
X22576Y141339D01*
X22650Y141320D01*
X22817Y141292D01*
X23001Y141237D01*
X23205Y141163D01*
X23390Y141061D01*
X23557Y140931D01*
Y140922D01*
X23575Y140913D01*
X23621Y140858D01*
X23686Y140774D01*
X23751Y140663D01*
X23825Y140515D01*
X23889Y140349D01*
X23936Y140164D01*
X23945Y140062D01*
X23954Y139951D01*
Y139942D01*
Y139933D01*
Y139877D01*
X23945Y139794D01*
X23926Y139692D01*
X23899Y139581D01*
X23862Y139452D01*
X23806Y139331D01*
X23732Y139211D01*
X23723Y139202D01*
X23686Y139155D01*
X23630Y139100D01*
X23557Y139035D01*
X23455Y138961D01*
X23325Y138878D01*
X23177Y138795D01*
X23001Y138721D01*
X23103Y137907D01*
X23112D01*
X23131Y137916D01*
X23168Y137925D01*
X23223Y137944D01*
X23279Y137971D01*
X23353Y137999D01*
X23510Y138073D01*
X23686Y138166D01*
X23871Y138295D01*
X24047Y138443D01*
X24213Y138628D01*
Y138637D01*
X24232Y138656D01*
X24250Y138684D01*
X24278Y138721D01*
X24306Y138776D01*
X24333Y138832D01*
X24371Y138906D01*
X24408Y138989D01*
X24444Y139082D01*
X24482Y139174D01*
X24537Y139405D01*
X24583Y139664D01*
X24602Y139951D01*
Y139960D01*
Y139997D01*
Y140053D01*
X24592Y140118D01*
X24583Y140201D01*
X24565Y140303D01*
X24546Y140413D01*
X24528Y140534D01*
X24454Y140793D01*
X24398Y140931D01*
X24343Y141061D01*
X24269Y141200D01*
X24185Y141329D01*
X24093Y141449D01*
X23982Y141570D01*
X23973Y141579D01*
X23954Y141597D01*
X23917Y141625D01*
X23862Y141662D01*
X23797Y141709D01*
X23723Y141755D01*
X23630Y141810D01*
X23529Y141866D01*
X23408Y141921D01*
X23279Y141977D01*
X23131Y142023D01*
X22974Y142069D01*
X22807Y142106D01*
X22622Y142134D01*
X22428Y142153D01*
X22224Y142162D01*
D02*
G37*
G36*
Y122265D02*
X22114D01*
X22030Y122256D01*
X21928Y122247D01*
X21817Y122237D01*
X21688Y122219D01*
X21558Y122191D01*
X21262Y122117D01*
X21114Y122071D01*
X20957Y122015D01*
X20809Y121941D01*
X20671Y121858D01*
X20532Y121765D01*
X20402Y121664D01*
X20393Y121654D01*
X20374Y121636D01*
X20347Y121599D01*
X20301Y121553D01*
X20254Y121497D01*
X20199Y121423D01*
X20134Y121340D01*
X20078Y121238D01*
X20014Y121136D01*
X19958Y121016D01*
X19903Y120887D01*
X19857Y120748D01*
X19810Y120600D01*
X19782Y120443D01*
X19764Y120276D01*
X19755Y120100D01*
Y120091D01*
Y120063D01*
Y120008D01*
X19764Y119943D01*
X19773Y119869D01*
X19792Y119777D01*
X19810Y119675D01*
X19838Y119555D01*
X19866Y119444D01*
X19912Y119314D01*
X19958Y119194D01*
X20023Y119064D01*
X20097Y118935D01*
X20180Y118806D01*
X20282Y118685D01*
X20393Y118574D01*
X20402Y118565D01*
X20421Y118546D01*
X20458Y118519D01*
X20513Y118482D01*
X20578Y118436D01*
X20652Y118389D01*
X20744Y118334D01*
X20855Y118278D01*
X20976Y118223D01*
X21105Y118167D01*
X21253Y118121D01*
X21410Y118075D01*
X21586Y118038D01*
X21771Y118010D01*
X21966Y117991D01*
X22178Y117982D01*
X22289D01*
X22382Y117991D01*
Y121460D01*
X22419D01*
X22456Y121451D01*
X22511D01*
X22576Y121442D01*
X22650Y121423D01*
X22817Y121396D01*
X23001Y121340D01*
X23205Y121266D01*
X23390Y121164D01*
X23557Y121035D01*
Y121026D01*
X23575Y121016D01*
X23621Y120961D01*
X23686Y120878D01*
X23751Y120766D01*
X23825Y120618D01*
X23889Y120452D01*
X23936Y120267D01*
X23945Y120165D01*
X23954Y120054D01*
Y120045D01*
Y120036D01*
Y119980D01*
X23945Y119897D01*
X23926Y119795D01*
X23899Y119684D01*
X23862Y119555D01*
X23806Y119434D01*
X23732Y119314D01*
X23723Y119305D01*
X23686Y119259D01*
X23630Y119203D01*
X23557Y119139D01*
X23455Y119064D01*
X23325Y118981D01*
X23177Y118898D01*
X23001Y118824D01*
X23103Y118010D01*
X23112D01*
X23131Y118019D01*
X23168Y118028D01*
X23223Y118047D01*
X23279Y118075D01*
X23353Y118103D01*
X23510Y118176D01*
X23686Y118269D01*
X23871Y118398D01*
X24047Y118546D01*
X24213Y118731D01*
Y118741D01*
X24232Y118759D01*
X24250Y118787D01*
X24278Y118824D01*
X24306Y118879D01*
X24333Y118935D01*
X24371Y119009D01*
X24408Y119092D01*
X24444Y119185D01*
X24482Y119277D01*
X24537Y119509D01*
X24583Y119767D01*
X24602Y120054D01*
Y120063D01*
Y120100D01*
Y120156D01*
X24592Y120221D01*
X24583Y120304D01*
X24565Y120406D01*
X24546Y120517D01*
X24528Y120637D01*
X24454Y120896D01*
X24398Y121035D01*
X24343Y121164D01*
X24269Y121303D01*
X24185Y121432D01*
X24093Y121553D01*
X23982Y121673D01*
X23973Y121682D01*
X23954Y121701D01*
X23917Y121729D01*
X23862Y121765D01*
X23797Y121812D01*
X23723Y121858D01*
X23630Y121914D01*
X23529Y121969D01*
X23408Y122025D01*
X23279Y122080D01*
X23131Y122126D01*
X22974Y122172D01*
X22807Y122210D01*
X22622Y122237D01*
X22428Y122256D01*
X22224Y122265D01*
D02*
G37*
G36*
X57800Y53900D02*
X44200D01*
Y40300D01*
X57800D01*
Y53900D01*
D02*
G37*
G36*
X22197Y126705D02*
X22067D01*
X22003Y126696D01*
X21928D01*
X21845Y126687D01*
X21753Y126677D01*
X21549Y126649D01*
X21327Y126603D01*
X21105Y126548D01*
X20883Y126464D01*
X20874D01*
X20855Y126455D01*
X20828Y126437D01*
X20791Y126418D01*
X20689Y126363D01*
X20569Y126279D01*
X20430Y126169D01*
X20291Y126039D01*
X20153Y125882D01*
X20042Y125706D01*
Y125697D01*
X20032Y125678D01*
X20014Y125651D01*
X19995Y125613D01*
X19977Y125567D01*
X19949Y125512D01*
X19894Y125373D01*
X19847Y125216D01*
X19801Y125022D01*
X19764Y124818D01*
X19755Y124596D01*
Y124587D01*
Y124559D01*
Y124522D01*
X19764Y124467D01*
Y124411D01*
X19773Y124337D01*
X19801Y124161D01*
X19847Y123967D01*
X19921Y123764D01*
X20014Y123560D01*
X20143Y123366D01*
Y123356D01*
X20162Y123347D01*
X20217Y123292D01*
X20301Y123208D01*
X20421Y123107D01*
X20569Y123005D01*
X20754Y122903D01*
X20967Y122811D01*
X21216Y122746D01*
X21337Y123514D01*
X21327D01*
X21318Y123523D01*
X21262Y123532D01*
X21179Y123560D01*
X21078Y123606D01*
X20967Y123653D01*
X20846Y123726D01*
X20735Y123810D01*
X20643Y123902D01*
X20633Y123911D01*
X20606Y123949D01*
X20569Y124013D01*
X20523Y124087D01*
X20476Y124189D01*
X20439Y124300D01*
X20412Y124430D01*
X20402Y124568D01*
Y124577D01*
Y124596D01*
Y124624D01*
X20412Y124670D01*
X20421Y124772D01*
X20458Y124910D01*
X20504Y125058D01*
X20578Y125225D01*
X20689Y125382D01*
X20754Y125456D01*
X20828Y125530D01*
X20837D01*
X20846Y125549D01*
X20874Y125567D01*
X20911Y125586D01*
X20957Y125613D01*
X21013Y125651D01*
X21078Y125678D01*
X21151Y125715D01*
X21244Y125752D01*
X21346Y125780D01*
X21457Y125817D01*
X21577Y125845D01*
X21707Y125863D01*
X21855Y125882D01*
X22012Y125900D01*
X22271D01*
X22326Y125891D01*
X22410D01*
X22493Y125882D01*
X22696Y125854D01*
X22918Y125817D01*
X23149Y125752D01*
X23353Y125669D01*
X23455Y125613D01*
X23538Y125549D01*
X23557Y125530D01*
X23603Y125484D01*
X23667Y125401D01*
X23742Y125299D01*
X23825Y125160D01*
X23889Y125003D01*
X23936Y124818D01*
X23945Y124716D01*
X23954Y124615D01*
Y124605D01*
Y124596D01*
X23945Y124540D01*
X23936Y124448D01*
X23917Y124346D01*
X23889Y124226D01*
X23834Y124097D01*
X23769Y123967D01*
X23677Y123847D01*
X23667Y123828D01*
X23621Y123801D01*
X23557Y123745D01*
X23455Y123680D01*
X23335Y123616D01*
X23187Y123541D01*
X23001Y123486D01*
X22798Y123449D01*
X22900Y122672D01*
X22909D01*
X22937Y122681D01*
X22974Y122690D01*
X23029Y122700D01*
X23103Y122718D01*
X23177Y122737D01*
X23362Y122801D01*
X23557Y122885D01*
X23769Y123005D01*
X23973Y123153D01*
X24065Y123236D01*
X24158Y123329D01*
X24167Y123338D01*
X24176Y123356D01*
X24195Y123384D01*
X24223Y123421D01*
X24260Y123468D01*
X24296Y123532D01*
X24333Y123606D01*
X24380Y123680D01*
X24463Y123865D01*
X24528Y124087D01*
X24583Y124328D01*
X24592Y124467D01*
X24602Y124605D01*
Y124615D01*
Y124652D01*
Y124698D01*
X24592Y124762D01*
X24583Y124846D01*
X24565Y124938D01*
X24546Y125040D01*
X24528Y125151D01*
X24454Y125401D01*
X24398Y125521D01*
X24343Y125651D01*
X24269Y125780D01*
X24185Y125900D01*
X24093Y126021D01*
X23982Y126131D01*
X23973Y126141D01*
X23954Y126159D01*
X23917Y126187D01*
X23871Y126224D01*
X23806Y126261D01*
X23723Y126316D01*
X23630Y126363D01*
X23529Y126418D01*
X23408Y126474D01*
X23270Y126520D01*
X23131Y126576D01*
X22964Y126612D01*
X22798Y126649D01*
X22604Y126677D01*
X22410Y126696D01*
X22197Y126705D01*
D02*
G37*
G36*
X23279Y131719D02*
X23223D01*
X23159Y131709D01*
X23076Y131700D01*
X22974Y131682D01*
X22872Y131654D01*
X22761Y131617D01*
X22659Y131570D01*
X22650Y131561D01*
X22613Y131543D01*
X22558Y131506D01*
X22493Y131459D01*
X22419Y131404D01*
X22345Y131330D01*
X22271Y131256D01*
X22206Y131164D01*
X22197Y131154D01*
X22178Y131117D01*
X22141Y131071D01*
X22104Y130997D01*
X22067Y130914D01*
X22021Y130812D01*
X21984Y130710D01*
X21947Y130590D01*
Y130581D01*
X21938Y130544D01*
X21919Y130488D01*
X21910Y130414D01*
X21892Y130322D01*
X21873Y130201D01*
X21845Y130063D01*
X21827Y129896D01*
Y129887D01*
X21817Y129850D01*
Y129804D01*
X21808Y129739D01*
X21799Y129665D01*
X21780Y129572D01*
X21771Y129471D01*
X21753Y129360D01*
X21707Y129138D01*
X21660Y128897D01*
X21605Y128684D01*
X21577Y128583D01*
X21549Y128490D01*
X21521D01*
X21466Y128481D01*
X21272D01*
X21179Y128490D01*
X21078Y128509D01*
X20967Y128536D01*
X20855Y128583D01*
X20754Y128638D01*
X20671Y128712D01*
X20661Y128721D01*
X20624Y128768D01*
X20587Y128842D01*
X20532Y128934D01*
X20485Y129064D01*
X20439Y129212D01*
X20412Y129397D01*
X20402Y129610D01*
Y129619D01*
Y129637D01*
Y129665D01*
Y129702D01*
X20412Y129795D01*
X20430Y129924D01*
X20448Y130053D01*
X20485Y130192D01*
X20532Y130322D01*
X20596Y130433D01*
X20606Y130442D01*
X20633Y130479D01*
X20680Y130525D01*
X20754Y130581D01*
X20846Y130636D01*
X20967Y130701D01*
X21114Y130756D01*
X21281Y130812D01*
X21179Y131580D01*
X21170D01*
X21161Y131570D01*
X21133D01*
X21096Y131561D01*
X21013Y131534D01*
X20892Y131497D01*
X20772Y131450D01*
X20643Y131395D01*
X20513Y131321D01*
X20393Y131237D01*
X20384Y131228D01*
X20347Y131191D01*
X20291Y131136D01*
X20217Y131062D01*
X20143Y130960D01*
X20069Y130840D01*
X19986Y130701D01*
X19921Y130544D01*
Y130535D01*
X19912Y130525D01*
X19903Y130498D01*
X19894Y130461D01*
X19866Y130368D01*
X19838Y130238D01*
X19810Y130090D01*
X19782Y129905D01*
X19764Y129711D01*
X19755Y129489D01*
Y129480D01*
Y129462D01*
Y129434D01*
Y129387D01*
X19764Y129286D01*
X19773Y129147D01*
X19792Y128990D01*
X19819Y128832D01*
X19857Y128675D01*
X19903Y128527D01*
X19912Y128509D01*
X19930Y128463D01*
X19958Y128398D01*
X19995Y128314D01*
X20051Y128222D01*
X20106Y128129D01*
X20180Y128046D01*
X20254Y127972D01*
X20264Y127963D01*
X20291Y127945D01*
X20337Y127917D01*
X20393Y127880D01*
X20476Y127833D01*
X20560Y127796D01*
X20661Y127760D01*
X20782Y127732D01*
X20791D01*
X20819Y127723D01*
X20874Y127713D01*
X20948Y127704D01*
X21050D01*
X21170Y127695D01*
X21327Y127685D01*
X22918D01*
X23140Y127676D01*
X23371D01*
X23603Y127667D01*
X23705Y127658D01*
X23797D01*
X23880Y127648D01*
X23945Y127639D01*
X23954D01*
X23991Y127630D01*
X24047Y127621D01*
X24121Y127593D01*
X24204Y127575D01*
X24296Y127538D01*
X24398Y127491D01*
X24500Y127445D01*
Y128268D01*
X24491Y128278D01*
X24454Y128287D01*
X24408Y128305D01*
X24333Y128333D01*
X24250Y128361D01*
X24148Y128379D01*
X24037Y128398D01*
X23917Y128416D01*
Y128426D01*
X23936Y128435D01*
X23982Y128490D01*
X24047Y128574D01*
X24130Y128684D01*
X24213Y128823D01*
X24306Y128962D01*
X24389Y129110D01*
X24454Y129267D01*
X24463Y129286D01*
X24472Y129341D01*
X24500Y129425D01*
X24528Y129526D01*
X24555Y129656D01*
X24574Y129804D01*
X24592Y129970D01*
X24602Y130137D01*
Y130146D01*
Y130174D01*
Y130211D01*
X24592Y130266D01*
Y130331D01*
X24583Y130405D01*
X24555Y130571D01*
X24509Y130756D01*
X24444Y130960D01*
X24352Y131145D01*
X24232Y131312D01*
X24213Y131330D01*
X24167Y131376D01*
X24084Y131441D01*
X23973Y131515D01*
X23834Y131589D01*
X23677Y131654D01*
X23483Y131700D01*
X23390Y131709D01*
X23279Y131719D01*
D02*
G37*
G36*
X43400Y42700D02*
X41000D01*
Y40300D01*
X43400D01*
Y42700D01*
D02*
G37*
G36*
Y53900D02*
X33000D01*
Y51500D01*
X32200D01*
Y53900D01*
X25800D01*
Y53100D01*
X25000D01*
Y53900D01*
X11400D01*
Y40300D01*
X25000D01*
Y41100D01*
X25800D01*
Y38700D01*
X25000D01*
Y39500D01*
X21000D01*
Y36300D01*
X25000D01*
Y37100D01*
X25800D01*
Y34700D01*
X25000D01*
Y35500D01*
X20200D01*
Y39500D01*
X17000D01*
Y37100D01*
X16200D01*
Y39500D01*
X13800D01*
Y37100D01*
X11400D01*
Y34700D01*
X15400D01*
Y33900D01*
X13800D01*
Y29900D01*
X11400D01*
Y27500D01*
X13800D01*
Y24300D01*
X11400D01*
Y21900D01*
X17800D01*
Y23500D01*
X18600D01*
Y21900D01*
X25800D01*
Y20300D01*
X29800D01*
Y18700D01*
X29000D01*
Y19500D01*
X26600D01*
Y18700D01*
X25800D01*
Y20300D01*
X25000D01*
Y21100D01*
X11400D01*
Y7500D01*
X25800D01*
Y9100D01*
X29800D01*
Y7500D01*
X36200D01*
Y9100D01*
X37000D01*
Y7500D01*
X41800D01*
Y9900D01*
X40200D01*
Y11500D01*
X39400D01*
Y12300D01*
X37000D01*
Y11500D01*
X36200D01*
Y13100D01*
X40200D01*
Y11500D01*
X41000D01*
Y10700D01*
X43400D01*
Y13100D01*
X44200D01*
Y7500D01*
X49000D01*
Y9900D01*
X47400D01*
Y13100D01*
X48200D01*
Y10700D01*
X49800D01*
Y7500D01*
X57800D01*
Y18700D01*
X57000D01*
Y19500D01*
X53800D01*
Y18700D01*
X53000D01*
Y15500D01*
X52200D01*
Y17100D01*
X50600D01*
Y17900D01*
X52200D01*
Y21100D01*
X50600D01*
Y27500D01*
X52200D01*
Y31500D01*
X50600D01*
Y33100D01*
X53000D01*
Y30700D01*
X55400D01*
Y27500D01*
X57800D01*
Y33900D01*
X54600D01*
Y34700D01*
X57800D01*
Y39500D01*
X48200D01*
Y37100D01*
X47400D01*
Y39500D01*
X41000D01*
Y33100D01*
X43400D01*
Y34700D01*
X49800D01*
Y33900D01*
X44200D01*
Y27500D01*
X45800D01*
Y25900D01*
X46600D01*
Y25100D01*
X48200D01*
Y24300D01*
X45000D01*
Y26700D01*
X43400D01*
Y31500D01*
X38600D01*
Y29900D01*
X37800D01*
Y31500D01*
X36200D01*
Y33100D01*
X40200D01*
Y42700D01*
X37000D01*
Y41100D01*
X36200D01*
Y43500D01*
X37800D01*
Y45900D01*
X38600D01*
Y45100D01*
X41800D01*
Y47500D01*
X43400D01*
Y49900D01*
X38600D01*
Y48300D01*
X37000D01*
Y45900D01*
X36200D01*
Y48300D01*
X34600D01*
Y49100D01*
X36200D01*
Y50700D01*
X43400D01*
Y53900D01*
D02*
G37*
G36*
X24500Y151606D02*
X18099D01*
Y150755D01*
X24500D01*
Y151606D01*
D02*
G37*
G36*
Y149358D02*
X19857D01*
Y148655D01*
X20523D01*
X20513Y148646D01*
X20485Y148627D01*
X20448Y148600D01*
X20402Y148563D01*
X20347Y148507D01*
X20282Y148442D01*
X20208Y148369D01*
X20134Y148276D01*
X20069Y148184D01*
X19995Y148073D01*
X19930Y147952D01*
X19875Y147823D01*
X19829Y147675D01*
X19792Y147527D01*
X19764Y147360D01*
X19755Y147185D01*
Y147175D01*
Y147166D01*
Y147110D01*
X19764Y147037D01*
X19773Y146935D01*
X19792Y146815D01*
X19819Y146685D01*
X19857Y146546D01*
X19912Y146417D01*
X19921Y146398D01*
X19940Y146361D01*
X19967Y146297D01*
X20014Y146222D01*
X20069Y146130D01*
X20143Y146047D01*
X20217Y145964D01*
X20310Y145889D01*
X20319Y145880D01*
X20356Y145862D01*
X20402Y145834D01*
X20467Y145788D01*
X20560Y145751D01*
X20652Y145714D01*
X20763Y145668D01*
X20883Y145640D01*
X20892D01*
X20930Y145631D01*
X20985Y145621D01*
X21059Y145612D01*
X21170D01*
X21299Y145603D01*
X21457Y145594D01*
X24500D01*
Y146380D01*
X21521D01*
X21420Y146389D01*
X21299Y146398D01*
X21179Y146417D01*
X21068Y146444D01*
X20967Y146472D01*
X20957D01*
X20930Y146491D01*
X20883Y146519D01*
X20828Y146546D01*
X20772Y146592D01*
X20707Y146648D01*
X20643Y146722D01*
X20587Y146805D01*
X20578Y146815D01*
X20560Y146842D01*
X20541Y146898D01*
X20513Y146962D01*
X20485Y147037D01*
X20458Y147129D01*
X20448Y147240D01*
X20439Y147351D01*
Y147360D01*
Y147370D01*
Y147397D01*
X20448Y147434D01*
X20458Y147527D01*
X20476Y147647D01*
X20523Y147776D01*
X20578Y147924D01*
X20652Y148073D01*
X20763Y148211D01*
X20782Y148230D01*
X20828Y148267D01*
X20865Y148294D01*
X20911Y148322D01*
X20967Y148359D01*
X21031Y148387D01*
X21105Y148424D01*
X21198Y148461D01*
X21299Y148489D01*
X21410Y148516D01*
X21531Y148535D01*
X21660Y148554D01*
X21817Y148572D01*
X24500D01*
Y149358D01*
D02*
G37*
G36*
X39000Y154374D02*
X35285D01*
Y153804D01*
X35848D01*
X35840Y153796D01*
X35788Y153767D01*
X35722Y153730D01*
X35640Y153671D01*
X35559Y153611D01*
X35470Y153545D01*
X35396Y153478D01*
X35337Y153412D01*
X35330Y153404D01*
X35315Y153382D01*
X35293Y153338D01*
X35270Y153293D01*
X35248Y153234D01*
X35226Y153160D01*
X35211Y153086D01*
X35204Y153005D01*
Y152990D01*
Y152953D01*
X35211Y152886D01*
X35226Y152805D01*
X35256Y152709D01*
X35293Y152605D01*
X35344Y152487D01*
X35411Y152361D01*
X35988Y152590D01*
X35981Y152598D01*
X35966Y152627D01*
X35944Y152672D01*
X35922Y152731D01*
X35899Y152797D01*
X35877Y152879D01*
X35862Y152960D01*
X35855Y153042D01*
Y153049D01*
Y153079D01*
X35862Y153116D01*
X35870Y153167D01*
X35885Y153219D01*
X35907Y153286D01*
X35936Y153352D01*
X35981Y153412D01*
X35988Y153419D01*
X36003Y153441D01*
X36033Y153463D01*
X36070Y153500D01*
X36121Y153537D01*
X36181Y153574D01*
X36247Y153611D01*
X36329Y153641D01*
X36343Y153648D01*
X36388Y153656D01*
X36454Y153671D01*
X36543Y153693D01*
X36654Y153715D01*
X36780Y153730D01*
X36913Y153737D01*
X37061Y153745D01*
X39000D01*
Y154374D01*
D02*
G37*
G36*
X24500Y160699D02*
X18099D01*
Y159829D01*
X23131Y156472D01*
X18099D01*
Y155657D01*
X24500D01*
Y156536D01*
X19477Y159885D01*
X24500D01*
Y160699D01*
D02*
G37*
G36*
X37180Y158562D02*
X37091D01*
X37024Y158555D01*
X36943Y158547D01*
X36854Y158540D01*
X36750Y158525D01*
X36647Y158503D01*
X36410Y158444D01*
X36292Y158407D01*
X36166Y158362D01*
X36047Y158303D01*
X35936Y158236D01*
X35825Y158162D01*
X35722Y158081D01*
X35714Y158074D01*
X35700Y158059D01*
X35677Y158029D01*
X35640Y157992D01*
X35603Y157948D01*
X35559Y157889D01*
X35507Y157822D01*
X35463Y157741D01*
X35411Y157659D01*
X35367Y157563D01*
X35322Y157459D01*
X35285Y157348D01*
X35248Y157230D01*
X35226Y157104D01*
X35211Y156971D01*
X35204Y156830D01*
Y156823D01*
Y156801D01*
Y156756D01*
X35211Y156705D01*
X35219Y156645D01*
X35233Y156571D01*
X35248Y156490D01*
X35270Y156394D01*
X35293Y156305D01*
X35330Y156201D01*
X35367Y156105D01*
X35418Y156002D01*
X35478Y155898D01*
X35544Y155794D01*
X35626Y155698D01*
X35714Y155609D01*
X35722Y155602D01*
X35737Y155587D01*
X35766Y155565D01*
X35811Y155535D01*
X35862Y155498D01*
X35922Y155461D01*
X35996Y155417D01*
X36084Y155373D01*
X36181Y155328D01*
X36284Y155284D01*
X36403Y155247D01*
X36528Y155210D01*
X36669Y155180D01*
X36817Y155158D01*
X36972Y155143D01*
X37143Y155136D01*
X37231D01*
X37305Y155143D01*
Y157918D01*
X37335D01*
X37365Y157911D01*
X37409D01*
X37461Y157903D01*
X37520Y157889D01*
X37653Y157866D01*
X37801Y157822D01*
X37964Y157763D01*
X38112Y157681D01*
X38245Y157578D01*
Y157570D01*
X38260Y157563D01*
X38297Y157519D01*
X38349Y157452D01*
X38401Y157363D01*
X38460Y157245D01*
X38512Y157112D01*
X38549Y156964D01*
X38556Y156882D01*
X38563Y156793D01*
Y156786D01*
Y156779D01*
Y156734D01*
X38556Y156668D01*
X38541Y156586D01*
X38519Y156497D01*
X38489Y156394D01*
X38445Y156298D01*
X38386Y156201D01*
X38378Y156194D01*
X38349Y156157D01*
X38304Y156113D01*
X38245Y156061D01*
X38164Y156002D01*
X38060Y155935D01*
X37942Y155868D01*
X37801Y155809D01*
X37883Y155158D01*
X37890D01*
X37905Y155165D01*
X37934Y155173D01*
X37979Y155188D01*
X38023Y155210D01*
X38082Y155232D01*
X38208Y155291D01*
X38349Y155365D01*
X38497Y155469D01*
X38637Y155587D01*
X38771Y155735D01*
Y155743D01*
X38785Y155757D01*
X38800Y155780D01*
X38822Y155809D01*
X38845Y155854D01*
X38867Y155898D01*
X38896Y155957D01*
X38926Y156024D01*
X38956Y156098D01*
X38985Y156172D01*
X39030Y156357D01*
X39067Y156564D01*
X39081Y156793D01*
Y156801D01*
Y156830D01*
Y156875D01*
X39074Y156927D01*
X39067Y156993D01*
X39052Y157075D01*
X39037Y157163D01*
X39022Y157260D01*
X38963Y157467D01*
X38919Y157578D01*
X38874Y157681D01*
X38815Y157792D01*
X38748Y157896D01*
X38674Y157992D01*
X38586Y158088D01*
X38578Y158096D01*
X38563Y158111D01*
X38534Y158133D01*
X38489Y158162D01*
X38438Y158199D01*
X38378Y158236D01*
X38304Y158281D01*
X38223Y158325D01*
X38127Y158370D01*
X38023Y158414D01*
X37905Y158451D01*
X37779Y158488D01*
X37646Y158518D01*
X37498Y158540D01*
X37342Y158555D01*
X37180Y158562D01*
D02*
G37*
G36*
X20467Y144835D02*
X19857D01*
Y144252D01*
X18710D01*
X18238Y143466D01*
X19857D01*
Y142671D01*
X20467D01*
Y143466D01*
X23307D01*
X23371Y143457D01*
X23519Y143447D01*
X23584Y143438D01*
X23630Y143429D01*
X23649Y143420D01*
X23686Y143392D01*
X23732Y143355D01*
X23778Y143290D01*
X23788Y143272D01*
X23806Y143226D01*
X23825Y143142D01*
X23834Y143022D01*
Y143013D01*
Y142994D01*
Y142966D01*
Y142929D01*
X23825Y142883D01*
Y142818D01*
X23816Y142745D01*
X23806Y142671D01*
X24500Y142569D01*
Y142587D01*
X24509Y142624D01*
X24519Y142689D01*
X24528Y142772D01*
X24546Y142865D01*
X24555Y142966D01*
X24565Y143170D01*
Y143189D01*
Y143244D01*
X24555Y143318D01*
X24546Y143411D01*
X24537Y143521D01*
X24509Y143632D01*
X24482Y143734D01*
X24435Y143836D01*
X24426Y143845D01*
X24408Y143873D01*
X24380Y143910D01*
X24333Y143965D01*
X24287Y144012D01*
X24223Y144067D01*
X24158Y144123D01*
X24074Y144160D01*
X24065D01*
X24028Y144178D01*
X23964Y144187D01*
X23871Y144206D01*
X23751Y144225D01*
X23677Y144234D01*
X23594D01*
X23492Y144243D01*
X23390Y144252D01*
X20467D01*
Y144835D01*
D02*
G37*
G36*
X56200Y26700D02*
X51400D01*
Y21900D01*
X53000D01*
Y20300D01*
X56200D01*
Y26700D01*
D02*
G37*
%LPD*%
G36*
X21734Y118815D02*
X21707D01*
X21679Y118824D01*
X21642D01*
X21531Y118842D01*
X21410Y118870D01*
X21262Y118916D01*
X21124Y118963D01*
X20985Y119037D01*
X20865Y119120D01*
X20855D01*
X20846Y119139D01*
X20791Y119185D01*
X20717Y119268D01*
X20633Y119379D01*
X20550Y119518D01*
X20476Y119684D01*
X20421Y119878D01*
X20412Y119980D01*
X20402Y120091D01*
Y120100D01*
Y120119D01*
Y120147D01*
X20412Y120184D01*
X20421Y120285D01*
X20448Y120406D01*
X20495Y120554D01*
X20560Y120711D01*
X20652Y120859D01*
X20772Y121007D01*
X20791Y121026D01*
X20837Y121063D01*
X20920Y121127D01*
X21031Y121192D01*
X21161Y121266D01*
X21327Y121331D01*
X21521Y121386D01*
X21734Y121414D01*
Y118815D01*
D02*
G37*
G36*
X36787Y155802D02*
X36765D01*
X36743Y155809D01*
X36713D01*
X36625Y155824D01*
X36528Y155846D01*
X36410Y155883D01*
X36299Y155920D01*
X36188Y155979D01*
X36092Y156046D01*
X36084D01*
X36077Y156061D01*
X36033Y156098D01*
X35973Y156164D01*
X35907Y156253D01*
X35840Y156364D01*
X35781Y156497D01*
X35737Y156653D01*
X35729Y156734D01*
X35722Y156823D01*
Y156830D01*
Y156845D01*
Y156867D01*
X35729Y156897D01*
X35737Y156978D01*
X35759Y157075D01*
X35796Y157193D01*
X35848Y157319D01*
X35922Y157437D01*
X36018Y157556D01*
X36033Y157570D01*
X36070Y157600D01*
X36136Y157652D01*
X36225Y157704D01*
X36329Y157763D01*
X36462Y157815D01*
X36617Y157859D01*
X36787Y157881D01*
Y155802D01*
D02*
G37*
G36*
X37202Y161922D02*
X37261D01*
X37335Y161914D01*
X37490Y161892D01*
X37668Y161855D01*
X37838Y161811D01*
X38008Y161737D01*
X38082Y161692D01*
X38149Y161640D01*
X38164Y161626D01*
X38201Y161589D01*
X38253Y161529D01*
X38312Y161441D01*
X38378Y161337D01*
X38430Y161211D01*
X38467Y161071D01*
X38475Y160997D01*
X38482Y160915D01*
Y160908D01*
Y160893D01*
Y160871D01*
X38475Y160841D01*
X38467Y160760D01*
X38438Y160656D01*
X38401Y160545D01*
X38341Y160419D01*
X38260Y160301D01*
X38208Y160242D01*
X38149Y160183D01*
X38142D01*
X38134Y160168D01*
X38112Y160153D01*
X38082Y160138D01*
X38053Y160116D01*
X38008Y160086D01*
X37957Y160064D01*
X37890Y160035D01*
X37823Y160005D01*
X37749Y159983D01*
X37661Y159953D01*
X37564Y159931D01*
X37468Y159916D01*
X37357Y159901D01*
X37231Y159887D01*
X37039D01*
X36995Y159894D01*
X36935D01*
X36869Y159901D01*
X36721Y159924D01*
X36551Y159961D01*
X36380Y160012D01*
X36210Y160086D01*
X36136Y160138D01*
X36070Y160190D01*
X36062D01*
X36055Y160205D01*
X36018Y160242D01*
X35959Y160308D01*
X35892Y160397D01*
X35833Y160501D01*
X35774Y160627D01*
X35737Y160767D01*
X35722Y160841D01*
Y160923D01*
Y160930D01*
Y160937D01*
Y160960D01*
X35729Y160989D01*
X35737Y161071D01*
X35766Y161167D01*
X35803Y161285D01*
X35870Y161404D01*
X35951Y161522D01*
X36010Y161581D01*
X36070Y161640D01*
X36077D01*
X36084Y161655D01*
X36107Y161670D01*
X36136Y161685D01*
X36166Y161707D01*
X36210Y161729D01*
X36262Y161759D01*
X36321Y161781D01*
X36388Y161811D01*
X36469Y161840D01*
X36551Y161862D01*
X36639Y161885D01*
X36743Y161899D01*
X36847Y161914D01*
X36958Y161929D01*
X37150D01*
X37202Y161922D01*
D02*
G37*
G36*
X23362Y130868D02*
X23436Y130849D01*
X23519Y130821D01*
X23603Y130775D01*
X23695Y130719D01*
X23778Y130646D01*
X23788Y130636D01*
X23806Y130599D01*
X23843Y130544D01*
X23880Y130470D01*
X23917Y130368D01*
X23954Y130248D01*
X23973Y130109D01*
X23982Y129943D01*
Y129933D01*
Y129924D01*
Y129868D01*
X23973Y129776D01*
X23954Y129674D01*
X23936Y129545D01*
X23899Y129415D01*
X23853Y129277D01*
X23788Y129138D01*
X23778Y129119D01*
X23751Y129082D01*
X23705Y129017D01*
X23640Y128944D01*
X23566Y128860D01*
X23473Y128768D01*
X23362Y128694D01*
X23242Y128620D01*
X23233Y128611D01*
X23196Y128601D01*
X23131Y128583D01*
X23048Y128555D01*
X22937Y128527D01*
X22807Y128509D01*
X22650Y128499D01*
X22465Y128490D01*
X22169Y128481D01*
Y128490D01*
X22178Y128499D01*
X22187Y128527D01*
X22197Y128564D01*
X22215Y128611D01*
X22234Y128666D01*
X22252Y128731D01*
X22271Y128805D01*
X22298Y128888D01*
X22317Y128990D01*
X22345Y129092D01*
X22373Y129212D01*
X22400Y129341D01*
X22428Y129471D01*
X22446Y129619D01*
X22474Y129776D01*
Y129785D01*
Y129795D01*
X22483Y129850D01*
X22502Y129943D01*
X22521Y130044D01*
X22539Y130155D01*
X22567Y130266D01*
X22594Y130368D01*
X22632Y130461D01*
Y130470D01*
X22650Y130498D01*
X22669Y130535D01*
X22696Y130571D01*
X22770Y130683D01*
X22881Y130775D01*
X22891D01*
X22909Y130793D01*
X22946Y130803D01*
X22992Y130821D01*
X23048Y130840D01*
X23103Y130858D01*
X23177Y130868D01*
X23251Y130877D01*
X23307D01*
X23362Y130868D01*
D02*
G37*
G36*
X21734Y138712D02*
X21707D01*
X21679Y138721D01*
X21642D01*
X21531Y138739D01*
X21410Y138767D01*
X21262Y138813D01*
X21124Y138859D01*
X20985Y138934D01*
X20865Y139017D01*
X20855D01*
X20846Y139035D01*
X20791Y139082D01*
X20717Y139165D01*
X20633Y139276D01*
X20550Y139415D01*
X20476Y139581D01*
X20421Y139775D01*
X20412Y139877D01*
X20402Y139988D01*
Y139997D01*
Y140016D01*
Y140043D01*
X20412Y140080D01*
X20421Y140182D01*
X20448Y140303D01*
X20495Y140451D01*
X20560Y140608D01*
X20652Y140756D01*
X20772Y140904D01*
X20791Y140922D01*
X20837Y140959D01*
X20920Y141024D01*
X21031Y141089D01*
X21161Y141163D01*
X21327Y141227D01*
X21521Y141283D01*
X21734Y141311D01*
Y138712D01*
D02*
G37*
G36*
X21864Y163354D02*
X20106Y164020D01*
X20097D01*
X20069Y164029D01*
X20023Y164047D01*
X19967Y164066D01*
X19903Y164093D01*
X19819Y164121D01*
X19727Y164149D01*
X19635Y164186D01*
X19422Y164260D01*
X19200Y164334D01*
X18978Y164408D01*
X18765Y164473D01*
X18774D01*
X18793Y164482D01*
X18830D01*
X18867Y164500D01*
X18932Y164510D01*
X18996Y164528D01*
X19153Y164565D01*
X19339Y164611D01*
X19542Y164676D01*
X19764Y164741D01*
X19995Y164824D01*
X21864Y165518D01*
Y163354D01*
D02*
G37*
G36*
X40200Y22700D02*
X37800D01*
Y23500D01*
X40200D01*
Y22700D01*
D02*
G37*
G36*
X18600Y29900D02*
X17000D01*
Y25900D01*
X16200D01*
Y28300D01*
X14600D01*
Y29100D01*
X16200D01*
Y30700D01*
X18600D01*
Y29900D01*
D02*
G37*
G36*
X48200Y17100D02*
X43400D01*
Y21900D01*
X48200D01*
Y17100D01*
D02*
G37*
G36*
X31400Y33900D02*
X29800D01*
Y27500D01*
X32200D01*
Y30700D01*
X35400D01*
Y29900D01*
X33000D01*
Y27500D01*
X37000D01*
Y24300D01*
X35400D01*
Y22700D01*
X34600D01*
Y24300D01*
X32200D01*
Y26700D01*
X29800D01*
Y24300D01*
X28200D01*
Y22700D01*
X27400D01*
Y25100D01*
X29000D01*
Y31500D01*
X22600D01*
Y29100D01*
X25800D01*
Y28300D01*
X22600D01*
Y26700D01*
X21000D01*
Y24300D01*
X20200D01*
Y29100D01*
X21800D01*
Y31500D01*
X20200D01*
Y33100D01*
X29000D01*
Y34700D01*
X31400D01*
Y33900D01*
D02*
G37*
G36*
X35400Y37100D02*
X30600D01*
Y38700D01*
X35400D01*
Y37100D01*
D02*
G37*
G36*
X33000Y44300D02*
X29800D01*
Y39500D01*
X29000D01*
Y42700D01*
X25800D01*
Y44300D01*
X26600D01*
Y43500D01*
X29000D01*
Y45900D01*
X29800D01*
Y45100D01*
X32200D01*
Y45900D01*
X33000D01*
Y44300D01*
D02*
G37*
G36*
X31400Y48300D02*
X29000D01*
Y50700D01*
X31400D01*
Y48300D01*
D02*
G37*
G36*
X22600Y42700D02*
X14600D01*
Y50700D01*
X22600D01*
Y42700D01*
D02*
G37*
G36*
X55400D02*
X47400D01*
Y50700D01*
X55400D01*
Y42700D01*
D02*
G37*
G36*
X42600Y13900D02*
X41000D01*
Y13100D01*
X40200D01*
Y14700D01*
X42600D01*
Y13900D01*
D02*
G37*
G36*
X37268Y182605D02*
X37328D01*
X37394Y182597D01*
X37550Y182575D01*
X37720Y182538D01*
X37897Y182486D01*
X38068Y182412D01*
X38142Y182368D01*
X38216Y182316D01*
Y182309D01*
X38230Y182301D01*
X38267Y182264D01*
X38327Y182198D01*
X38386Y182116D01*
X38452Y182013D01*
X38512Y181887D01*
X38549Y181754D01*
X38556Y181680D01*
X38563Y181606D01*
Y181598D01*
Y181583D01*
Y181569D01*
X38556Y181539D01*
X38549Y181458D01*
X38519Y181361D01*
X38482Y181250D01*
X38423Y181132D01*
X38341Y181014D01*
X38290Y180954D01*
X38230Y180903D01*
X38223D01*
X38216Y180888D01*
X38193Y180873D01*
X38164Y180858D01*
X38127Y180836D01*
X38090Y180806D01*
X38031Y180784D01*
X37971Y180755D01*
X37905Y180725D01*
X37831Y180703D01*
X37742Y180673D01*
X37653Y180651D01*
X37550Y180636D01*
X37446Y180621D01*
X37328Y180607D01*
X37128D01*
X37076Y180614D01*
X37017D01*
X36943Y180621D01*
X36861Y180629D01*
X36773Y180644D01*
X36595Y180681D01*
X36410Y180732D01*
X36232Y180806D01*
X36158Y180851D01*
X36084Y180903D01*
X36077D01*
X36070Y180917D01*
X36025Y180954D01*
X35966Y181021D01*
X35899Y181102D01*
X35833Y181206D01*
X35781Y181332D01*
X35737Y181472D01*
X35729Y181546D01*
X35722Y181628D01*
Y181635D01*
Y181643D01*
Y181665D01*
X35729Y181694D01*
X35737Y181776D01*
X35766Y181872D01*
X35803Y181983D01*
X35870Y182101D01*
X35951Y182220D01*
X36010Y182279D01*
X36070Y182331D01*
X36077D01*
X36084Y182346D01*
X36107Y182353D01*
X36136Y182375D01*
X36173Y182397D01*
X36218Y182420D01*
X36269Y182442D01*
X36329Y182471D01*
X36403Y182501D01*
X36484Y182523D01*
X36573Y182545D01*
X36669Y182568D01*
X36773Y182582D01*
X36891Y182597D01*
X37017Y182612D01*
X37217D01*
X37268Y182605D01*
D02*
G37*
G36*
X36787Y184455D02*
X36765D01*
X36743Y184462D01*
X36713D01*
X36625Y184477D01*
X36528Y184499D01*
X36410Y184536D01*
X36299Y184573D01*
X36188Y184632D01*
X36092Y184699D01*
X36084D01*
X36077Y184714D01*
X36033Y184751D01*
X35973Y184817D01*
X35907Y184906D01*
X35840Y185017D01*
X35781Y185150D01*
X35737Y185306D01*
X35729Y185387D01*
X35722Y185476D01*
Y185483D01*
Y185498D01*
Y185520D01*
X35729Y185550D01*
X35737Y185631D01*
X35759Y185727D01*
X35796Y185846D01*
X35848Y185972D01*
X35922Y186090D01*
X36018Y186208D01*
X36033Y186223D01*
X36070Y186253D01*
X36136Y186305D01*
X36225Y186356D01*
X36329Y186416D01*
X36462Y186467D01*
X36617Y186512D01*
X36787Y186534D01*
Y184455D01*
D02*
G37*
G36*
Y176492D02*
X36765D01*
X36743Y176500D01*
X36713D01*
X36625Y176514D01*
X36528Y176537D01*
X36410Y176574D01*
X36299Y176611D01*
X36188Y176670D01*
X36092Y176736D01*
X36084D01*
X36077Y176751D01*
X36033Y176788D01*
X35973Y176855D01*
X35907Y176944D01*
X35840Y177055D01*
X35781Y177188D01*
X35737Y177343D01*
X35729Y177425D01*
X35722Y177513D01*
Y177521D01*
Y177536D01*
Y177558D01*
X35729Y177587D01*
X35737Y177669D01*
X35759Y177765D01*
X35796Y177883D01*
X35848Y178009D01*
X35922Y178128D01*
X36018Y178246D01*
X36033Y178261D01*
X36070Y178290D01*
X36136Y178342D01*
X36225Y178394D01*
X36329Y178453D01*
X36462Y178505D01*
X36617Y178549D01*
X36787Y178572D01*
Y176492D01*
D02*
G37*
G36*
Y166147D02*
X36765D01*
X36743Y166154D01*
X36713D01*
X36625Y166169D01*
X36528Y166191D01*
X36410Y166228D01*
X36299Y166265D01*
X36188Y166325D01*
X36092Y166391D01*
X36084D01*
X36077Y166406D01*
X36033Y166443D01*
X35973Y166510D01*
X35907Y166598D01*
X35840Y166709D01*
X35781Y166843D01*
X35737Y166998D01*
X35729Y167079D01*
X35722Y167168D01*
Y167176D01*
Y167190D01*
Y167213D01*
X35729Y167242D01*
X35737Y167324D01*
X35759Y167420D01*
X35796Y167538D01*
X35848Y167664D01*
X35922Y167782D01*
X36018Y167901D01*
X36033Y167916D01*
X36070Y167945D01*
X36136Y167997D01*
X36225Y168049D01*
X36329Y168108D01*
X36462Y168160D01*
X36617Y168204D01*
X36787Y168226D01*
Y166147D01*
D02*
G37*
G36*
X37283Y172104D02*
X37350D01*
X37490Y172089D01*
X37646Y172067D01*
X37809Y172037D01*
X37957Y171993D01*
X38023Y171963D01*
X38082Y171934D01*
X38090D01*
X38105Y171919D01*
X38127Y171904D01*
X38156Y171882D01*
X38238Y171815D01*
X38319Y171719D01*
X38408Y171608D01*
X38489Y171468D01*
X38519Y171394D01*
X38541Y171305D01*
X38556Y171223D01*
X38563Y171127D01*
Y171120D01*
Y171112D01*
Y171090D01*
X38556Y171061D01*
X38541Y170979D01*
X38519Y170883D01*
X38475Y170772D01*
X38415Y170654D01*
X38327Y170535D01*
X38267Y170476D01*
X38208Y170417D01*
X38201D01*
X38193Y170402D01*
X38171Y170387D01*
X38142Y170372D01*
X38105Y170343D01*
X38060Y170321D01*
X38001Y170291D01*
X37942Y170261D01*
X37868Y170239D01*
X37794Y170210D01*
X37705Y170180D01*
X37609Y170158D01*
X37505Y170143D01*
X37394Y170128D01*
X37268Y170113D01*
X37076D01*
X37024Y170121D01*
X36965D01*
X36891Y170128D01*
X36736Y170150D01*
X36565Y170180D01*
X36380Y170232D01*
X36218Y170306D01*
X36136Y170350D01*
X36070Y170402D01*
X36062D01*
X36055Y170417D01*
X36018Y170454D01*
X35959Y170513D01*
X35892Y170594D01*
X35833Y170698D01*
X35774Y170816D01*
X35737Y170957D01*
X35722Y171031D01*
Y171105D01*
Y171112D01*
Y171120D01*
Y171142D01*
X35729Y171172D01*
X35744Y171253D01*
X35766Y171349D01*
X35811Y171460D01*
X35877Y171579D01*
X35914Y171638D01*
X35966Y171697D01*
X36018Y171756D01*
X36084Y171815D01*
X36092D01*
X36099Y171830D01*
X36121Y171845D01*
X36151Y171860D01*
X36188Y171882D01*
X36232Y171912D01*
X36284Y171934D01*
X36343Y171963D01*
X36417Y171993D01*
X36491Y172015D01*
X36580Y172045D01*
X36669Y172067D01*
X36773Y172082D01*
X36884Y172097D01*
X36995Y172111D01*
X37231D01*
X37283Y172104D01*
D02*
G37*
G36*
X33000Y14700D02*
X35400D01*
Y13900D01*
X33800D01*
Y13100D01*
X33000D01*
Y9900D01*
X32200D01*
Y12300D01*
X26600D01*
Y11500D01*
X25800D01*
Y13100D01*
X29000D01*
Y15500D01*
X25800D01*
Y16300D01*
X29800D01*
Y13100D01*
X32200D01*
Y16300D01*
X33000D01*
Y14700D01*
D02*
G37*
G36*
X55400Y9900D02*
X52200D01*
Y10700D01*
X53800D01*
Y11500D01*
X54600D01*
Y13100D01*
X55400D01*
Y9900D01*
D02*
G37*
G36*
X22600D02*
X14600D01*
Y17900D01*
X22600D01*
Y9900D01*
D02*
G37*
%LPC*%
G36*
X47400Y21100D02*
X44200D01*
Y17900D01*
X47400D01*
Y21100D01*
D02*
G37*
G36*
X54600Y49900D02*
X48200D01*
Y43500D01*
X53800D01*
Y44300D01*
X54600D01*
Y49900D01*
D02*
G37*
G36*
X21800Y17100D02*
X15400D01*
Y10700D01*
X21800D01*
Y17100D01*
D02*
G37*
G36*
Y49900D02*
X15400D01*
Y43500D01*
X21800D01*
Y49900D01*
D02*
G37*
%LPD*%
D10*
X206240Y125500D02*
D03*
X200740D02*
D03*
X250740Y170000D02*
D03*
X245240D02*
D03*
X164240D02*
D03*
X158740D02*
D03*
X186240D02*
D03*
X180740D02*
D03*
X142240D02*
D03*
X136740D02*
D03*
X109740D02*
D03*
X104240D02*
D03*
X230240D02*
D03*
X224740D02*
D03*
X207240D02*
D03*
X201740D02*
D03*
X86240D02*
D03*
X80740D02*
D03*
D11*
X239500Y182240D02*
D03*
Y176740D02*
D03*
X151500Y182240D02*
D03*
Y176740D02*
D03*
X173500Y182240D02*
D03*
Y176740D02*
D03*
X129500Y182240D02*
D03*
Y176740D02*
D03*
X106500Y182240D02*
D03*
Y176740D02*
D03*
X217500Y182240D02*
D03*
Y176740D02*
D03*
X194500Y182240D02*
D03*
Y176740D02*
D03*
X76000Y182240D02*
D03*
Y176740D02*
D03*
D12*
X244500Y183500D02*
D03*
Y176000D02*
D03*
X156500Y183500D02*
D03*
Y176000D02*
D03*
X178500Y183500D02*
D03*
Y176000D02*
D03*
X134500Y183500D02*
D03*
Y176000D02*
D03*
X111500Y183500D02*
D03*
Y176000D02*
D03*
X222500Y183500D02*
D03*
Y176000D02*
D03*
X199500Y183500D02*
D03*
Y176000D02*
D03*
X81000Y183500D02*
D03*
Y176000D02*
D03*
D13*
X252500Y179800D02*
D03*
X164500D02*
D03*
X186500D02*
D03*
X142500D02*
D03*
X119500D02*
D03*
X230500D02*
D03*
X207500D02*
D03*
X89000D02*
D03*
D18*
X136740Y164740D02*
Y170000D01*
X158740Y164760D02*
Y170000D01*
X201740Y164760D02*
Y170000D01*
X243000Y164500D02*
X245240Y166740D01*
Y170000D01*
X104240Y167760D02*
Y170000D01*
X76000Y168000D02*
X82000Y162000D01*
X96000D01*
X148000Y120000D02*
X201251D01*
X88500Y143000D02*
X89000D01*
X82000Y142500D02*
Y154000D01*
X85750Y157750D01*
X76000Y168000D02*
Y176740D01*
X169000Y5000D02*
Y17000D01*
X159000Y5000D02*
Y17000D01*
Y5000D02*
X169000D01*
X206240Y125500D02*
X249500D01*
X206240D02*
X216000Y115740D01*
X201251Y120000D02*
X206240Y124990D01*
X252500Y174500D02*
Y179800D01*
X250740Y172740D02*
X252500Y174500D01*
X250740Y170000D02*
Y172740D01*
X230240Y170000D02*
X230500Y170260D01*
X207240Y170000D02*
X207500Y170260D01*
X164240Y170000D02*
X164500Y170260D01*
X142240Y170000D02*
X142500Y170260D01*
Y179800D01*
X134500Y176000D02*
X136157D01*
X136657Y175500D01*
X133760Y176740D02*
X134500Y176000D01*
X129500Y176740D02*
X133760D01*
X133740Y182740D02*
X134500Y183500D01*
X151500Y182740D02*
X155740D01*
X152500Y187500D02*
X156500Y183500D01*
X152500Y187500D02*
Y192500D01*
X156500Y176000D02*
X158343D01*
X158750Y175593D01*
X164500Y170260D02*
Y179800D01*
X157250Y187750D02*
X157950Y187050D01*
X160950D01*
X164500Y183500D01*
Y179800D02*
Y183500D01*
X155760Y176740D02*
X156500Y176000D01*
X151500Y176740D02*
X155760D01*
X155740Y182740D02*
X156500Y183500D01*
X157250Y187750D02*
Y199750D01*
X204000Y188500D02*
X207500Y185000D01*
Y181300D02*
Y185000D01*
X206000Y179800D02*
X207500Y181300D01*
X204000Y188500D02*
Y199500D01*
X194500Y182740D02*
X198740D01*
X199000Y192500D02*
X199500Y192000D01*
Y183500D02*
Y192000D01*
X200603Y176740D02*
X201750Y175593D01*
X194500Y176740D02*
X200603D01*
X198740Y182740D02*
X199500Y183500D01*
X186500Y170260D02*
Y179800D01*
X173500Y182740D02*
X177740D01*
X177000Y190500D02*
X179000Y192500D01*
X177000Y183500D02*
Y190500D01*
X179603Y176740D02*
X180750Y175593D01*
X173500Y176740D02*
X179603D01*
X177740Y182740D02*
X178500Y183500D01*
X185500Y180800D02*
X186500Y179800D01*
X207500Y170260D02*
Y179800D01*
X222500Y176000D02*
X224343D01*
X224750Y175593D01*
X230500Y170260D02*
Y179800D01*
X256760Y187760D02*
Y193240D01*
X251500Y198500D02*
X256760Y193240D01*
X245000Y198500D02*
X251500D01*
X239000Y204500D02*
X245000Y198500D01*
X252500Y183500D02*
X256760Y187760D01*
X252500Y179800D02*
Y183500D01*
X239500Y182740D02*
X243740D01*
X239500D02*
Y192000D01*
Y182240D02*
Y182740D01*
X239000Y192500D02*
X239500Y192000D01*
X217500Y182740D02*
X221740D01*
X219000Y192500D02*
X221500Y190000D01*
Y183500D02*
Y190000D01*
X199000Y204500D02*
X204000Y199500D01*
X198000Y191500D02*
X199000Y192500D01*
X179000Y204500D02*
X184000Y199500D01*
Y180800D02*
Y199500D01*
X112500Y201500D02*
X117500Y196500D01*
X112500Y201500D02*
Y204500D01*
X132500D02*
X137500Y199500D01*
Y189000D02*
Y199500D01*
X152500Y204500D02*
X157250Y199750D01*
X86240Y170000D02*
Y177040D01*
X89000Y179800D01*
X80260Y176740D02*
X81000Y176000D01*
X76000Y176740D02*
X80260D01*
X80240Y182740D02*
X81000Y183500D01*
X76000Y182740D02*
X80240D01*
X243760Y176740D02*
X244500Y176000D01*
X239500Y176740D02*
X243760D01*
X243740Y182740D02*
X244500Y183500D01*
X221760Y176740D02*
X222500Y176000D01*
X217500Y176740D02*
X221760D01*
X221740Y182740D02*
X222500Y183500D01*
X89500Y76500D02*
X94500Y81500D01*
X103500Y113500D02*
X110969D01*
X101500Y93500D02*
X110969D01*
X113500Y80500D02*
X193000D01*
X216000Y103500D01*
Y115740D01*
X275000Y25000D02*
Y119000D01*
X291000Y135000D01*
Y182000D01*
X284500Y188500D02*
X291000Y182000D01*
X275000Y188500D02*
X284500D01*
X270000Y183500D02*
X275000Y188500D01*
X270000Y146000D02*
Y183500D01*
X249500Y125500D02*
X270000Y146000D01*
X200500Y145685D02*
X200740Y145445D01*
X179000Y27000D02*
X273500D01*
X169000Y17000D02*
X179000Y27000D01*
X159000Y17000D02*
X169000D01*
X134500Y183500D02*
Y190500D01*
X132500Y192500D02*
X134500Y190500D01*
X129500Y182740D02*
X133740D01*
X137500Y189000D02*
X142500Y184000D01*
Y179800D02*
Y184000D01*
X110740Y182740D02*
X111500Y183500D01*
X106500Y176740D02*
X110760D01*
X111500Y176000D01*
Y183500D02*
Y191500D01*
X106500Y182740D02*
X110740D01*
X117500Y187500D02*
Y196500D01*
Y187500D02*
X119500Y185500D01*
Y179800D02*
Y185500D01*
X109740Y170000D02*
X116500D01*
X119500Y173000D01*
Y179800D01*
X102500Y192500D02*
Y204500D01*
X85750Y157750D02*
X93533D01*
X104240Y167760D02*
X107500Y164500D01*
X224740Y164740D02*
Y170000D01*
Y164740D02*
X224980Y164500D01*
X243000D01*
X218500Y158500D02*
X224740Y164740D01*
X208000Y158500D02*
X218500D01*
X230500Y179800D02*
Y185000D01*
X234000Y188500D01*
Y196000D01*
X231500Y198500D02*
X234000Y196000D01*
X217000Y198500D02*
X231500D01*
X214000Y195500D02*
X217000Y198500D01*
X214000Y168500D02*
Y195500D01*
X209218Y164000D02*
X209500D01*
X209218D02*
X209717Y164500D01*
X209500Y164000D02*
X210000Y164500D01*
X214000Y168500D01*
X209717Y164500D02*
X210000D01*
X210500D01*
X94500Y81500D02*
Y130000D01*
X82000Y142500D02*
X94500Y130000D01*
X98500Y96500D02*
X101500Y93500D01*
X98500Y96500D02*
Y133500D01*
X89000Y143000D02*
X98500Y133500D01*
X88500Y150500D02*
X102500Y136500D01*
Y114500D02*
X103500Y113500D01*
X102500Y114500D02*
Y136500D01*
X98500Y169500D02*
X148000Y120000D01*
X98500Y169500D02*
Y188500D01*
X102500Y192500D01*
X201740Y164760D02*
X208000Y158500D01*
X180740Y164760D02*
Y170000D01*
X136500Y164500D02*
X201480D01*
X93500Y169500D02*
Y172500D01*
X89000Y165000D02*
X93500Y169500D01*
X84000Y165000D02*
X89000D01*
X80740Y168260D02*
X84000Y165000D01*
X107500Y164500D02*
X136500D01*
X71500Y132000D02*
Y184000D01*
X75000Y187500D01*
X90500D01*
X93500Y184500D01*
Y172500D02*
Y184500D01*
X93533Y157750D02*
X96500Y154782D01*
Y151000D02*
Y154782D01*
X139000Y5000D02*
Y17000D01*
Y33000D01*
X133000Y108000D02*
Y125000D01*
X96000Y162000D02*
X133000Y125000D01*
Y39000D02*
X139000Y33000D01*
X133000Y39000D02*
Y50000D01*
X118000D02*
X133000D01*
D21*
X200740Y125500D02*
Y145445D01*
D22*
X69827Y77673D02*
X81500Y66000D01*
X173500D02*
X205500D01*
X81500D02*
X173500D01*
X69827Y77673D02*
Y103500D01*
X205500Y66000D02*
X279500Y140000D01*
Y178500D01*
X110969Y93500D02*
X187685D01*
X200500Y106315D01*
D23*
X162500Y204500D02*
D03*
X129000Y17000D02*
D03*
X199000D02*
D03*
X249000Y204500D02*
D03*
X162500Y192500D02*
D03*
X129000Y5000D02*
D03*
X199000D02*
D03*
X249000Y192500D02*
D03*
D24*
X152500Y204500D02*
D03*
X142500D02*
D03*
X132500D02*
D03*
X122500D02*
D03*
X112500D02*
D03*
X102500D02*
D03*
X92500D02*
D03*
X82500D02*
D03*
X72500D02*
D03*
X139000Y17000D02*
D03*
X149000D02*
D03*
X159000D02*
D03*
X169000D02*
D03*
X179000D02*
D03*
X249000D02*
D03*
X239000D02*
D03*
X229000D02*
D03*
X219000D02*
D03*
X209000D02*
D03*
X229000Y204500D02*
D03*
X239000D02*
D03*
X179000D02*
D03*
X189000D02*
D03*
X199000D02*
D03*
X209000D02*
D03*
X219000D02*
D03*
X152500Y192500D02*
D03*
X142500D02*
D03*
X132500D02*
D03*
X122500D02*
D03*
X112500D02*
D03*
X102500D02*
D03*
X92500D02*
D03*
X82500D02*
D03*
X72500D02*
D03*
X139000Y5000D02*
D03*
X149000D02*
D03*
X159000D02*
D03*
X169000D02*
D03*
X179000D02*
D03*
X249000D02*
D03*
X239000D02*
D03*
X229000D02*
D03*
X219000D02*
D03*
X209000D02*
D03*
X229000Y192500D02*
D03*
X239000D02*
D03*
X179000D02*
D03*
X189000D02*
D03*
X199000D02*
D03*
X209000D02*
D03*
X219000D02*
D03*
D25*
X259555Y169307D02*
D03*
Y82693D02*
D03*
D26*
X200500Y145685D02*
D03*
Y106315D02*
D03*
D27*
X292500Y74028D02*
D03*
Y64185D02*
D03*
Y54343D02*
D03*
Y44500D02*
D03*
Y34658D02*
D03*
Y24815D02*
D03*
D28*
Y14973D02*
D03*
D29*
X279500Y178500D02*
D03*
Y198500D02*
D03*
D30*
X243000Y164500D02*
D03*
X96000Y162000D02*
D03*
X88500Y150500D02*
D03*
Y143000D02*
D03*
X136657Y175500D02*
D03*
X158750Y175593D02*
D03*
X180750D02*
D03*
X201750D02*
D03*
X246750D02*
D03*
X224750D02*
D03*
X89500Y76500D02*
D03*
X113500Y80500D02*
D03*
X275000Y25000D02*
D03*
X173500Y66000D02*
D03*
X113750Y175593D02*
D03*
X210500Y164500D02*
D03*
X136500D02*
D03*
X158740Y164760D02*
D03*
X180740D02*
D03*
X115260Y164260D02*
D03*
X93500Y172500D02*
D03*
X71500Y132000D02*
D03*
X96500Y151000D02*
D03*
X133000Y108000D02*
D03*
Y50000D02*
D03*
X118000D02*
D03*
D31*
X110969Y113500D02*
D03*
Y93500D02*
D03*
D32*
X69827Y103500D02*
D03*
M02*
