%FSLAX25Y25*%
%MOIN*%
G70*
G01*
G75*
G04 Layer_Physical_Order=1*
G04 Layer_Color=255*
%ADD10R,0.03000X0.03000*%
%ADD11R,0.03000X0.03000*%
%ADD12R,0.03600X0.03600*%
%ADD13R,0.05000X0.03600*%
%ADD14R,0.18898X0.18110*%
%ADD15R,0.02000X0.05000*%
%ADD16R,0.04921X0.04803*%
%ADD17R,0.06299X0.11024*%
%ADD18C,0.01500*%
%ADD19C,0.02500*%
%ADD20C,0.01000*%
%ADD21C,0.05000*%
%ADD22C,0.10000*%
%ADD23R,0.06000X0.06000*%
%ADD24C,0.06000*%
%ADD25C,0.11417*%
%ADD26C,0.19685*%
%ADD27C,0.05906*%
%ADD28R,0.05906X0.05906*%
%ADD29C,0.11811*%
%ADD30C,0.05000*%
G36*
X38760Y92500D02*
X44986D01*
Y91232D01*
X33618D01*
Y69122D01*
X42293D01*
Y25878D01*
X33618D01*
Y3768D01*
X56516D01*
Y25878D01*
X47841D01*
Y69122D01*
X52200D01*
X69783Y51539D01*
X70357Y51098D01*
X70634Y50983D01*
X71026Y50821D01*
X71744Y50726D01*
X108000D01*
X108718Y50821D01*
X109110Y50983D01*
X109387Y51098D01*
X109961Y51539D01*
X115717Y57295D01*
X116158Y57869D01*
X116435Y58538D01*
X116530Y59256D01*
Y62988D01*
X118906D01*
Y78012D01*
X117865D01*
X117547Y78512D01*
X117884Y79325D01*
X118039Y80500D01*
X117884Y81675D01*
X117431Y82769D01*
X116709Y83709D01*
X116042Y84222D01*
X116211Y84722D01*
X119142D01*
X122722Y81142D01*
Y48256D01*
X122778Y47832D01*
X122834Y47408D01*
X122997Y47012D01*
X123161Y46617D01*
X123682Y45938D01*
X125658Y43962D01*
X125467Y43500D01*
X121760D01*
Y40423D01*
X120539Y39202D01*
X120098Y38627D01*
X119983Y38350D01*
X119821Y37958D01*
X119726Y37240D01*
Y34600D01*
X118000D01*
Y27000D01*
X119726D01*
Y23500D01*
X119821Y22782D01*
X119983Y22390D01*
X120098Y22113D01*
X120539Y21539D01*
X124000Y18077D01*
Y12000D01*
X131226D01*
Y11149D01*
X130077Y10000D01*
X124000D01*
Y1000D01*
X8000D01*
X5694Y3306D01*
X5886Y3768D01*
X27382D01*
Y25878D01*
X18707D01*
Y69122D01*
X27382D01*
Y91232D01*
X18707D01*
Y92500D01*
X21240D01*
Y93226D01*
X23740D01*
Y92500D01*
X36240D01*
Y93226D01*
X38760D01*
Y92500D01*
D02*
G37*
G36*
X142682Y30682D02*
X142977Y30456D01*
X143361Y30161D01*
X143772Y29991D01*
Y28598D01*
X150309D01*
X150501Y28137D01*
X146682Y24318D01*
X146161Y23639D01*
X145997Y23244D01*
X145834Y22848D01*
X145778Y22424D01*
X145722Y22000D01*
Y20787D01*
X145434Y20566D01*
X144632Y19522D01*
X144129Y18305D01*
X143957Y17000D01*
X144129Y15695D01*
X144632Y14478D01*
X145434Y13434D01*
X146478Y12632D01*
X147695Y12129D01*
X149000Y11957D01*
X150305Y12129D01*
X151126Y12468D01*
X151409Y12045D01*
X149360Y9996D01*
X149000Y10043D01*
X147695Y9871D01*
X146478Y9368D01*
X145434Y8566D01*
X144632Y7522D01*
X144129Y6305D01*
X143957Y5000D01*
X144129Y3695D01*
X144632Y2478D01*
X145383Y1500D01*
X145262Y1000D01*
X141102D01*
X141003Y1500D01*
X141017Y1506D01*
X141853Y2147D01*
X142494Y2983D01*
X142897Y3956D01*
X142936Y4250D01*
X139000D01*
Y5000D01*
X138250D01*
Y8936D01*
X137956Y8897D01*
X136983Y8494D01*
X136814Y8364D01*
X136695Y8436D01*
X136442Y8709D01*
X136679Y9282D01*
X136774Y10000D01*
Y13062D01*
X137274Y13386D01*
X137956Y13103D01*
X138250Y13064D01*
Y17000D01*
Y20936D01*
X137956Y20897D01*
X137274Y20615D01*
X136774Y20938D01*
Y21000D01*
X136679Y21718D01*
X136402Y22387D01*
X135961Y22961D01*
X134182Y24740D01*
X134390Y25240D01*
X135750D01*
Y27740D01*
X136500D01*
Y28490D01*
X139000D01*
Y29740D01*
X140000D01*
Y32711D01*
X140462Y32902D01*
X142682Y30682D01*
D02*
G37*
G36*
X310500Y208000D02*
X313500Y205000D01*
X313500Y4000D01*
X310500Y1000D01*
X252738D01*
X252617Y1500D01*
X253367Y2478D01*
X253871Y3695D01*
X254043Y5000D01*
X253871Y6305D01*
X253367Y7522D01*
X252566Y8566D01*
X251774Y9174D01*
Y12826D01*
X252566Y13434D01*
X253367Y14478D01*
X253871Y15695D01*
X254043Y17000D01*
X253871Y18305D01*
X253367Y19522D01*
X252566Y20566D01*
X252323Y20753D01*
X252483Y21226D01*
X267000D01*
X267718Y21321D01*
X268110Y21483D01*
X268387Y21598D01*
X268961Y22039D01*
X270336Y23414D01*
X270827Y23316D01*
X271069Y22731D01*
X271791Y21791D01*
X272731Y21069D01*
X273825Y20616D01*
X275000Y20461D01*
X276175Y20616D01*
X276584Y20786D01*
X277000Y20508D01*
Y17740D01*
Y12240D01*
X281454D01*
X281768Y12199D01*
X287547D01*
Y10020D01*
X297453D01*
Y19925D01*
X294945D01*
X294846Y20425D01*
X294998Y20488D01*
X296032Y21282D01*
X296826Y22317D01*
X297325Y23522D01*
X297496Y24815D01*
X297325Y26107D01*
X296826Y27312D01*
X296032Y28347D01*
X294998Y29141D01*
X294214Y29465D01*
Y30007D01*
X294998Y30331D01*
X296032Y31125D01*
X296826Y32160D01*
X297325Y33365D01*
X297496Y34658D01*
X297325Y35950D01*
X296826Y37155D01*
X296032Y38190D01*
X294998Y38984D01*
X294215Y39308D01*
Y39849D01*
X294998Y40173D01*
X296032Y40967D01*
X296826Y42002D01*
X297325Y43207D01*
X297496Y44500D01*
X297325Y45792D01*
X296826Y46997D01*
X296032Y48032D01*
X294998Y48826D01*
X294214Y49150D01*
Y49692D01*
X294998Y50016D01*
X296032Y50810D01*
X296826Y51845D01*
X297325Y53050D01*
X297496Y54343D01*
X297325Y55635D01*
X296826Y56840D01*
X296032Y57875D01*
X294998Y58669D01*
X294215Y58993D01*
Y59534D01*
X294998Y59858D01*
X296032Y60652D01*
X296826Y61687D01*
X297325Y62892D01*
X297496Y64185D01*
X297325Y65478D01*
X296826Y66682D01*
X296032Y67717D01*
X294998Y68511D01*
X294214Y68836D01*
Y69377D01*
X294998Y69701D01*
X296032Y70495D01*
X296826Y71530D01*
X297325Y72735D01*
X297496Y74028D01*
X297325Y75321D01*
X296826Y76525D01*
X296032Y77560D01*
X294998Y78354D01*
X293793Y78853D01*
X292500Y79023D01*
X291207Y78853D01*
X290002Y78354D01*
X288968Y77560D01*
X288386Y76801D01*
X284000D01*
Y77240D01*
X277000D01*
Y70240D01*
Y64740D01*
X280577D01*
X281226Y64091D01*
Y56000D01*
X277500D01*
Y49923D01*
X277351Y49774D01*
X276000D01*
Y50250D01*
X276166Y50652D01*
X276278Y51500D01*
X276166Y52348D01*
X276000Y52750D01*
Y56000D01*
X270000D01*
Y54778D01*
X269152Y54666D01*
X268361Y54339D01*
X267977Y54044D01*
X267682Y53818D01*
X265182Y51318D01*
X264661Y50639D01*
X264497Y50244D01*
X264334Y49848D01*
X264278Y49424D01*
X264222Y49000D01*
Y34858D01*
X262642Y33278D01*
X193000D01*
X192250Y33179D01*
X192152Y33166D01*
X191920Y33070D01*
X191361Y32839D01*
X190977Y32544D01*
X190682Y32318D01*
X189250Y30886D01*
X188750D01*
X177818Y41818D01*
X177139Y42339D01*
X176744Y42503D01*
X176348Y42666D01*
X175924Y42722D01*
X175500Y42778D01*
X160000D01*
X159250Y42679D01*
X159152Y42666D01*
X158920Y42570D01*
X158361Y42339D01*
X157977Y42044D01*
X157682Y41818D01*
X153682Y37818D01*
X153193Y37180D01*
X153137Y37180D01*
X152693Y37402D01*
Y37402D01*
X145234D01*
X140318Y42318D01*
X139639Y42839D01*
X139244Y43003D01*
X138848Y43166D01*
X138424Y43222D01*
X138000Y43278D01*
X134260D01*
Y43500D01*
X134037D01*
X133926Y44345D01*
X133599Y45135D01*
X133304Y45519D01*
X133078Y45814D01*
X132864Y46028D01*
X133114Y46485D01*
X133914Y46590D01*
X134765Y46943D01*
X135496Y47504D01*
X136057Y48235D01*
X136410Y49086D01*
X136432Y49250D01*
X133000D01*
Y50000D01*
X132250D01*
Y53431D01*
X132086Y53410D01*
X131235Y53057D01*
X130504Y52496D01*
X129943Y51765D01*
X129778Y51367D01*
X129278Y51467D01*
Y82500D01*
X129179Y83250D01*
X129166Y83348D01*
X129070Y83580D01*
X128839Y84139D01*
X128544Y84523D01*
X128318Y84818D01*
X122818Y90318D01*
X122139Y90839D01*
X121744Y91003D01*
X121348Y91166D01*
X120924Y91222D01*
X120500Y91278D01*
X110500D01*
X109652Y91166D01*
X109092Y90935D01*
X108861Y90839D01*
X108566Y90613D01*
X108182Y90318D01*
X101438Y83574D01*
X100917Y82895D01*
X100753Y82500D01*
X100590Y82104D01*
X100534Y81680D01*
X100478Y81256D01*
Y80598D01*
X100016Y80407D01*
X81774Y98649D01*
Y124500D01*
X81679Y125218D01*
X81517Y125610D01*
X81402Y125887D01*
X80961Y126461D01*
X75967Y131456D01*
X76039Y132000D01*
X75913Y132957D01*
X76386Y133191D01*
X89539Y120039D01*
X90113Y119598D01*
X90782Y119321D01*
X91500Y119226D01*
X134000D01*
X134718Y119321D01*
X135110Y119483D01*
X135387Y119598D01*
X135961Y120039D01*
X149649Y133726D01*
X168606D01*
Y128988D01*
X178906D01*
Y131961D01*
X191315D01*
X192490Y132116D01*
X193131Y132381D01*
X193584Y132569D01*
X194524Y133291D01*
X195975Y134741D01*
X196829Y134387D01*
X198642Y133952D01*
X200500Y133806D01*
X202358Y133952D01*
X204171Y134387D01*
X205893Y135101D01*
X207482Y136075D01*
X208900Y137285D01*
X210066Y138651D01*
X280185D01*
X281557Y138786D01*
X282877Y139187D01*
X284093Y139837D01*
X285159Y140711D01*
X305474Y161026D01*
X306348Y162092D01*
X306998Y163308D01*
X307399Y164628D01*
X307534Y166000D01*
X307534Y166000D01*
Y187500D01*
X307399Y188872D01*
X306998Y190192D01*
X306348Y191408D01*
X305474Y192474D01*
X294474Y203474D01*
X293408Y204348D01*
X292192Y204998D01*
X290872Y205399D01*
X289500Y205534D01*
X283111D01*
X282540Y205839D01*
X281050Y206291D01*
X279500Y206444D01*
X277950Y206291D01*
X276460Y205839D01*
X275087Y205105D01*
X273883Y204117D01*
X272895Y202913D01*
X272161Y201540D01*
X271709Y200050D01*
X271556Y198500D01*
X271709Y196950D01*
X272161Y195460D01*
X272895Y194087D01*
X273883Y192883D01*
X275087Y191895D01*
X276460Y191161D01*
X277950Y190709D01*
X279500Y190556D01*
X281050Y190709D01*
X282540Y191161D01*
X283111Y191466D01*
X286586D01*
X293466Y184587D01*
Y168913D01*
X277272Y152719D01*
X210066D01*
X208900Y154085D01*
X207482Y155295D01*
X205893Y156269D01*
X204171Y156983D01*
X202358Y157418D01*
X200500Y157564D01*
X198642Y157418D01*
X196829Y156983D01*
X195606Y156476D01*
X195323Y156900D01*
X200149Y161726D01*
X206956D01*
X207291Y161291D01*
X208231Y160569D01*
X209325Y160116D01*
X210500Y159961D01*
X211675Y160116D01*
X212769Y160569D01*
X213709Y161291D01*
X214431Y162231D01*
X214884Y163325D01*
X215039Y164500D01*
X214884Y165675D01*
X214431Y166769D01*
X213709Y167709D01*
X212769Y168431D01*
X211675Y168884D01*
X210500Y169039D01*
X209325Y168884D01*
X208231Y168431D01*
X207291Y167709D01*
X206956Y167274D01*
X205260D01*
Y173200D01*
X206800D01*
Y174240D01*
X208250D01*
Y176740D01*
X209000D01*
Y177490D01*
X211500D01*
Y178740D01*
X212500D01*
Y185740D01*
X210274D01*
Y187625D01*
X210305Y187629D01*
X211522Y188133D01*
X212566Y188934D01*
X213368Y189978D01*
X213729Y190852D01*
X214271D01*
X214633Y189978D01*
X215434Y188934D01*
X216478Y188133D01*
X217695Y187629D01*
X218405Y187535D01*
X218585Y187007D01*
X217039Y185461D01*
X216598Y184887D01*
X216483Y184610D01*
X216321Y184218D01*
X216239Y183600D01*
X214500D01*
Y176000D01*
X216226D01*
Y173500D01*
X215760D01*
Y166500D01*
X228260D01*
Y173200D01*
X229800D01*
Y174740D01*
X231250D01*
Y177240D01*
X232000D01*
Y177990D01*
X234500D01*
Y179240D01*
X235500D01*
Y186240D01*
X234774D01*
Y188973D01*
X235274Y189143D01*
X235434Y188934D01*
X236478Y188133D01*
X237695Y187629D01*
X239000Y187457D01*
X240305Y187629D01*
X240561Y187734D01*
X240976Y187457D01*
Y183699D01*
X240877Y183600D01*
X236500D01*
Y176000D01*
X236986D01*
Y173500D01*
X236260D01*
Y166500D01*
X238508D01*
X238786Y166084D01*
X238616Y165675D01*
X238461Y164500D01*
X238616Y163325D01*
X239069Y162231D01*
X239791Y161291D01*
X240731Y160569D01*
X241825Y160116D01*
X243000Y159961D01*
X244175Y160116D01*
X245269Y160569D01*
X246209Y161291D01*
X246931Y162231D01*
X247384Y163325D01*
X247539Y164500D01*
X247459Y165108D01*
X247662Y165373D01*
X247777Y165650D01*
X247939Y166042D01*
X247999Y166500D01*
X248760D01*
Y172724D01*
X249246Y173097D01*
X249325Y173200D01*
X251800D01*
Y174740D01*
X253457D01*
X253671Y174288D01*
X253115Y173610D01*
X252399Y172271D01*
X251958Y170818D01*
X251809Y169307D01*
X251958Y167796D01*
X252399Y166343D01*
X253115Y165004D01*
X254078Y163830D01*
X255252Y162866D01*
X256591Y162151D01*
X258044Y161710D01*
X259555Y161561D01*
X261066Y161710D01*
X262520Y162151D01*
X263859Y162866D01*
X265032Y163830D01*
X265996Y165004D01*
X266711Y166343D01*
X267152Y167796D01*
X267301Y169307D01*
X267152Y170818D01*
X266711Y172271D01*
X265996Y173610D01*
X265032Y174784D01*
X263859Y175748D01*
X262520Y176463D01*
X261066Y176904D01*
X259555Y177053D01*
X258044Y176904D01*
X257000Y176587D01*
X256500Y176958D01*
Y179240D01*
X257500D01*
Y186240D01*
X253154D01*
X252800Y186594D01*
Y187300D01*
X253217Y187500D01*
X254000D01*
Y197500D01*
X246524D01*
Y198101D01*
X247923Y199500D01*
X254000D01*
Y207646D01*
X254354Y208000D01*
X310500D01*
D02*
G37*
G36*
X214633Y201978D02*
X215434Y200934D01*
X216478Y200132D01*
X217695Y199629D01*
X219000Y199457D01*
X220305Y199629D01*
X220993Y199914D01*
X221141Y199864D01*
X221476Y199573D01*
Y197336D01*
X221060Y197058D01*
X220305Y197371D01*
X219000Y197543D01*
X217695Y197371D01*
X216478Y196868D01*
X215434Y196066D01*
X214633Y195022D01*
X214271Y194148D01*
X213729D01*
X213368Y195022D01*
X212566Y196066D01*
X211522Y196868D01*
X210305Y197371D01*
X209000Y197543D01*
X207695Y197371D01*
X206478Y196868D01*
X205434Y196066D01*
X204632Y195022D01*
X204271Y194148D01*
X203729D01*
X203367Y195022D01*
X202566Y196066D01*
X201522Y196868D01*
X200305Y197371D01*
X199000Y197543D01*
X197695Y197371D01*
X196478Y196868D01*
X195434Y196066D01*
X194632Y195022D01*
X194271Y194148D01*
X193729D01*
X193368Y195022D01*
X192566Y196066D01*
X191522Y196868D01*
X190305Y197371D01*
X189000Y197543D01*
X187695Y197371D01*
X187189Y197162D01*
X186774Y197440D01*
Y198351D01*
X188010Y199587D01*
X189000Y199457D01*
X190305Y199629D01*
X191522Y200132D01*
X192566Y200934D01*
X193368Y201978D01*
X193729Y202852D01*
X194271D01*
X194632Y201978D01*
X195434Y200934D01*
X196478Y200132D01*
X197695Y199629D01*
X199000Y199457D01*
X200305Y199629D01*
X201522Y200132D01*
X202566Y200934D01*
X203367Y201978D01*
X203729Y202852D01*
X204271D01*
X204632Y201978D01*
X205434Y200934D01*
X206478Y200132D01*
X207695Y199629D01*
X209000Y199457D01*
X210305Y199629D01*
X211522Y200132D01*
X212566Y200934D01*
X213368Y201978D01*
X213729Y202852D01*
X214271D01*
X214633Y201978D01*
D02*
G37*
G36*
X68318Y208000D02*
X68539Y207552D01*
X68133Y207022D01*
X67629Y205805D01*
X67457Y204500D01*
X67629Y203195D01*
X68133Y201978D01*
X68934Y200934D01*
X69978Y200132D01*
X71195Y199629D01*
X72500Y199457D01*
X73805Y199629D01*
X75022Y200132D01*
X76066Y200934D01*
X76868Y201978D01*
X77229Y202852D01*
X77771D01*
X78132Y201978D01*
X78934Y200934D01*
X79978Y200132D01*
X81195Y199629D01*
X82500Y199457D01*
X83805Y199629D01*
X85022Y200132D01*
X86066Y200934D01*
X86867Y201978D01*
X87229Y202852D01*
X87771D01*
X88133Y201978D01*
X88934Y200934D01*
X89978Y200132D01*
X91195Y199629D01*
X92500Y199457D01*
X93805Y199629D01*
X95022Y200132D01*
X96066Y200934D01*
X96868Y201978D01*
X97229Y202852D01*
X97771D01*
X98132Y201978D01*
X98934Y200934D01*
X99978Y200132D01*
X101195Y199629D01*
X102500Y199457D01*
X103805Y199629D01*
X105022Y200132D01*
X106066Y200934D01*
X106868Y201978D01*
X107229Y202852D01*
X107771D01*
X108133Y201978D01*
X108934Y200934D01*
X109978Y200132D01*
X111195Y199629D01*
X112500Y199457D01*
X113805Y199629D01*
X114106Y199753D01*
X114502Y199449D01*
X114476Y199250D01*
Y197543D01*
X114060Y197266D01*
X113805Y197371D01*
X112500Y197543D01*
X111195Y197371D01*
X109978Y196868D01*
X108934Y196066D01*
X108133Y195022D01*
X107771Y194148D01*
X107229D01*
X106868Y195022D01*
X106066Y196066D01*
X105022Y196868D01*
X103805Y197371D01*
X102500Y197543D01*
X101195Y197371D01*
X99978Y196868D01*
X98934Y196066D01*
X98132Y195022D01*
X97771Y194148D01*
X97229D01*
X96868Y195022D01*
X96066Y196066D01*
X95022Y196868D01*
X93805Y197371D01*
X92500Y197543D01*
X91195Y197371D01*
X89978Y196868D01*
X88934Y196066D01*
X88133Y195022D01*
X87771Y194148D01*
X87229D01*
X86867Y195022D01*
X86066Y196066D01*
X85022Y196868D01*
X83805Y197371D01*
X82500Y197543D01*
X81195Y197371D01*
X79978Y196868D01*
X78934Y196066D01*
X78132Y195022D01*
X77771Y194148D01*
X77229D01*
X76868Y195022D01*
X76066Y196066D01*
X75022Y196868D01*
X73805Y197371D01*
X72500Y197543D01*
X71195Y197371D01*
X69978Y196868D01*
X68934Y196066D01*
X68133Y195022D01*
X67629Y193805D01*
X67457Y192500D01*
X67629Y191195D01*
X68133Y189978D01*
X68934Y188934D01*
X69978Y188133D01*
X71195Y187629D01*
X72500Y187457D01*
X73805Y187629D01*
X75022Y188133D01*
X76066Y188934D01*
X76868Y189978D01*
X77229Y190852D01*
X77771D01*
X78132Y189978D01*
X78934Y188934D01*
X79978Y188133D01*
X81195Y187629D01*
X82500Y187457D01*
X83805Y187629D01*
X85022Y188133D01*
X86066Y188934D01*
X86867Y189978D01*
X87229Y190852D01*
X87771D01*
X88133Y189978D01*
X88934Y188934D01*
X89978Y188133D01*
X91195Y187629D01*
X92500Y187457D01*
X93805Y187629D01*
X95022Y188133D01*
X96066Y188934D01*
X96868Y189978D01*
X97229Y190852D01*
X97771D01*
X98132Y189978D01*
X98934Y188934D01*
X99978Y188133D01*
X101195Y187629D01*
X102500Y187457D01*
X103805Y187629D01*
X105022Y188133D01*
X106066Y188934D01*
X106868Y189978D01*
X107229Y190852D01*
X107771D01*
X108133Y189978D01*
X108134Y189976D01*
X107789Y189711D01*
X106039Y187961D01*
X105598Y187387D01*
X105483Y187110D01*
X105321Y186718D01*
X105226Y186000D01*
Y183600D01*
X103500D01*
Y176000D01*
X105226D01*
Y171760D01*
X105321Y171042D01*
X105483Y170650D01*
X105598Y170373D01*
X106039Y169799D01*
X106260Y169577D01*
Y167034D01*
X102889D01*
X97967Y171956D01*
X98039Y172500D01*
X97884Y173675D01*
X97431Y174769D01*
X96709Y175709D01*
X95769Y176431D01*
X94675Y176884D01*
X93500Y177039D01*
X92325Y176884D01*
X91231Y176431D01*
X90291Y175709D01*
X89569Y174769D01*
X89116Y173675D01*
X88961Y172500D01*
X89116Y171325D01*
X89569Y170231D01*
X90291Y169291D01*
X91231Y168569D01*
X92325Y168116D01*
X93500Y167961D01*
X94045Y168033D01*
X96094Y165983D01*
X95859Y165512D01*
X95086Y165410D01*
X94235Y165057D01*
X93504Y164496D01*
X92943Y163765D01*
X92590Y162914D01*
X92568Y162750D01*
X96000D01*
Y162000D01*
X96750D01*
Y158569D01*
X96914Y158590D01*
X97765Y158943D01*
X98496Y159504D01*
X99057Y160235D01*
X99410Y161086D01*
X99513Y161872D01*
X99832Y162070D01*
X100020Y162114D01*
X100353Y161858D01*
X100630Y161743D01*
X101022Y161581D01*
X101740Y161486D01*
X111716D01*
X112050Y161050D01*
X112990Y160329D01*
X114085Y159876D01*
X115260Y159721D01*
X116435Y159876D01*
X117529Y160329D01*
X118469Y161050D01*
X119191Y161990D01*
X119644Y163085D01*
X119799Y164260D01*
X119644Y165435D01*
X119191Y166529D01*
X118760Y167091D01*
Y173200D01*
X118800D01*
Y174240D01*
X120250D01*
Y176740D01*
X121000D01*
Y177490D01*
X123500D01*
Y178740D01*
X124500D01*
Y185740D01*
X123774D01*
Y187625D01*
X123805Y187629D01*
X125022Y188133D01*
X126066Y188934D01*
X126867Y189978D01*
X127229Y190852D01*
X127771D01*
X128132Y189978D01*
X128934Y188934D01*
X129978Y188133D01*
X131056Y187686D01*
X131244Y187167D01*
X129039Y184961D01*
X128598Y184387D01*
X128483Y184110D01*
X128321Y183718D01*
X128305Y183600D01*
X126500D01*
Y176000D01*
X128226D01*
Y173500D01*
X127760D01*
Y166500D01*
X132008D01*
X132285Y166084D01*
X132116Y165675D01*
X131961Y164500D01*
X132116Y163325D01*
X132569Y162231D01*
X133291Y161291D01*
X134231Y160569D01*
X135325Y160116D01*
X136500Y159961D01*
X137675Y160116D01*
X138769Y160569D01*
X139709Y161291D01*
X140431Y162231D01*
X140884Y163325D01*
X141039Y164500D01*
X140884Y165675D01*
X140431Y166769D01*
X140260Y166992D01*
Y173200D01*
X141800D01*
Y174240D01*
X143250D01*
Y176740D01*
X144000D01*
Y177490D01*
X146500D01*
Y178740D01*
X147500D01*
Y185740D01*
X146774D01*
Y189856D01*
X146868Y189978D01*
X147229Y190852D01*
X147771D01*
X148133Y189978D01*
X148934Y188934D01*
X149978Y188133D01*
X151195Y187629D01*
X151905Y187535D01*
X152085Y187007D01*
X151039Y185961D01*
X150598Y185387D01*
X150483Y185110D01*
X150321Y184718D01*
X150226Y184000D01*
Y183600D01*
X148500D01*
Y176000D01*
X150226D01*
Y173500D01*
X149760D01*
Y166500D01*
X154140D01*
X154418Y166084D01*
X154356Y165935D01*
X154201Y164760D01*
X154356Y163585D01*
X154809Y162490D01*
X155531Y161550D01*
X156471Y160829D01*
X157565Y160376D01*
X158740Y160221D01*
X159915Y160376D01*
X161010Y160829D01*
X161950Y161550D01*
X162671Y162490D01*
X163124Y163585D01*
X163279Y164760D01*
X163124Y165935D01*
X162671Y167029D01*
X162260Y167565D01*
Y173200D01*
X163800D01*
Y174240D01*
X165250D01*
Y176740D01*
X166000D01*
Y177490D01*
X168500D01*
Y178740D01*
X169500D01*
Y185740D01*
X165154D01*
X164800Y186094D01*
Y187300D01*
X165217Y187500D01*
X167500D01*
Y197500D01*
X164076D01*
X163885Y197962D01*
X164461Y198539D01*
X164902Y199113D01*
X165062Y199500D01*
X167500D01*
Y207646D01*
X167854Y208000D01*
X174818D01*
X175039Y207552D01*
X174633Y207022D01*
X174129Y205805D01*
X173957Y204500D01*
X174129Y203195D01*
X174633Y201978D01*
X175434Y200934D01*
X176478Y200132D01*
X177695Y199629D01*
X179000Y199457D01*
X180305Y199629D01*
X180835Y199848D01*
X181232Y199544D01*
X181226Y199500D01*
Y197440D01*
X180810Y197162D01*
X180305Y197371D01*
X179000Y197543D01*
X177695Y197371D01*
X176478Y196868D01*
X175434Y196066D01*
X174633Y195022D01*
X174129Y193805D01*
X173957Y192500D01*
X174129Y191195D01*
X174633Y189978D01*
X175434Y188934D01*
X175439Y188861D01*
X173039Y186461D01*
X172598Y185887D01*
X172483Y185610D01*
X172321Y185218D01*
X172226Y184500D01*
Y183600D01*
X170500D01*
Y176000D01*
X172226D01*
Y173500D01*
X171760D01*
Y166500D01*
X176140D01*
X176418Y166084D01*
X176356Y165935D01*
X176201Y164760D01*
X176356Y163585D01*
X176810Y162490D01*
X177531Y161550D01*
X178471Y160829D01*
X179566Y160376D01*
X180740Y160221D01*
X181915Y160376D01*
X183010Y160829D01*
X183950Y161550D01*
X184671Y162490D01*
X185124Y163585D01*
X185279Y164760D01*
X185124Y165935D01*
X184671Y167029D01*
X184260Y167565D01*
Y173200D01*
X185800D01*
Y174240D01*
X187250D01*
Y176740D01*
X188000D01*
Y177490D01*
X190500D01*
Y178740D01*
X191500D01*
Y176000D01*
X193226D01*
Y173500D01*
X192760D01*
Y166682D01*
X179851Y153774D01*
X100044D01*
X99709Y154209D01*
X98769Y154931D01*
X97675Y155384D01*
X96500Y155539D01*
X95325Y155384D01*
X94231Y154931D01*
X93291Y154209D01*
X92623Y153340D01*
X92080Y153227D01*
X91709Y153709D01*
X91274Y154044D01*
Y165000D01*
X91179Y165718D01*
X91017Y166110D01*
X90902Y166387D01*
X90461Y166961D01*
X77701Y179721D01*
X77127Y180162D01*
X76850Y180277D01*
X76458Y180439D01*
X75740Y180534D01*
X73500D01*
Y181240D01*
X68000D01*
Y181260D01*
X61000D01*
Y175760D01*
Y175033D01*
X47341D01*
Y183122D01*
X56516D01*
Y205232D01*
X33618D01*
Y183122D01*
X41793D01*
Y172000D01*
Y139878D01*
X33618D01*
Y117768D01*
X39841D01*
X40043Y117305D01*
X39795Y117000D01*
X31260D01*
Y116274D01*
X28740D01*
Y117000D01*
X20205D01*
X19957Y117305D01*
X20159Y117768D01*
X27382D01*
Y139878D01*
X18707D01*
Y183122D01*
X27382D01*
Y205232D01*
X6386D01*
X6194Y205694D01*
X8500Y208000D01*
X68318D01*
D02*
G37*
G36*
X194632Y189978D02*
X195434Y188934D01*
X196478Y188133D01*
X197695Y187629D01*
X199000Y187457D01*
X199809Y187563D01*
X200200Y187110D01*
Y183600D01*
X191500D01*
Y185740D01*
X190774D01*
Y187823D01*
X191522Y188133D01*
X192566Y188934D01*
X193368Y189978D01*
X193729Y190852D01*
X194271D01*
X194632Y189978D01*
D02*
G37*
%LPC*%
G36*
X118750Y53431D02*
Y50750D01*
X121432D01*
X121410Y50914D01*
X121057Y51765D01*
X120496Y52496D01*
X119765Y53057D01*
X118914Y53410D01*
X118750Y53431D01*
D02*
G37*
G36*
X133750D02*
Y50750D01*
X136432D01*
X136410Y50914D01*
X136057Y51765D01*
X135496Y52496D01*
X134765Y53057D01*
X133914Y53410D01*
X133750Y53431D01*
D02*
G37*
G36*
X259555Y90439D02*
X258044Y90290D01*
X256591Y89849D01*
X255252Y89134D01*
X254078Y88170D01*
X253115Y86996D01*
X252399Y85657D01*
X251958Y84204D01*
X251809Y82693D01*
X251958Y81182D01*
X252399Y79729D01*
X253115Y78390D01*
X254078Y77216D01*
X255252Y76253D01*
X256591Y75537D01*
X258044Y75096D01*
X259555Y74947D01*
X261066Y75096D01*
X262520Y75537D01*
X263859Y76253D01*
X265032Y77216D01*
X265996Y78390D01*
X266711Y79729D01*
X267152Y81182D01*
X267301Y82693D01*
X267152Y84204D01*
X266711Y85657D01*
X265996Y86996D01*
X265032Y88170D01*
X263859Y89134D01*
X262520Y89849D01*
X261066Y90290D01*
X259555Y90439D01*
D02*
G37*
G36*
X178906Y78012D02*
X168606D01*
Y62988D01*
X170139D01*
X170291Y62791D01*
X171231Y62069D01*
X172325Y61616D01*
X173500Y61461D01*
X174000D01*
X175175Y61616D01*
X175816Y61881D01*
X176269Y62069D01*
X177209Y62791D01*
X177361Y62988D01*
X178906D01*
Y78012D01*
D02*
G37*
G36*
X117250Y53431D02*
X117086Y53410D01*
X116235Y53057D01*
X115504Y52496D01*
X114943Y51765D01*
X114590Y50914D01*
X114568Y50750D01*
X117250D01*
Y53431D01*
D02*
G37*
G36*
X139750Y20936D02*
Y17750D01*
X142936D01*
X142897Y18044D01*
X142494Y19017D01*
X141853Y19853D01*
X141017Y20494D01*
X140044Y20897D01*
X139750Y20936D01*
D02*
G37*
G36*
X142936Y16250D02*
X139750D01*
Y13064D01*
X140044Y13103D01*
X141017Y13506D01*
X141853Y14147D01*
X142494Y14983D01*
X142897Y15956D01*
X142936Y16250D01*
D02*
G37*
G36*
X139750Y8936D02*
Y5750D01*
X142936D01*
X142897Y6044D01*
X142494Y7017D01*
X141853Y7853D01*
X141017Y8494D01*
X140044Y8897D01*
X139750Y8936D01*
D02*
G37*
G36*
X121432Y49250D02*
X118750D01*
Y46569D01*
X118914Y46590D01*
X119765Y46943D01*
X120496Y47504D01*
X121057Y48235D01*
X121410Y49086D01*
X121432Y49250D01*
D02*
G37*
G36*
X117250D02*
X114568D01*
X114590Y49086D01*
X114943Y48235D01*
X115504Y47504D01*
X116235Y46943D01*
X117086Y46590D01*
X117250Y46569D01*
Y49250D01*
D02*
G37*
G36*
X139000Y26990D02*
X137250D01*
Y25240D01*
X139000D01*
Y26990D01*
D02*
G37*
G36*
X168500Y175990D02*
X166750D01*
Y174240D01*
X168500D01*
Y175990D01*
D02*
G37*
G36*
X146500D02*
X144750D01*
Y174240D01*
X146500D01*
Y175990D01*
D02*
G37*
G36*
X123500D02*
X121750D01*
Y174240D01*
X123500D01*
Y175990D01*
D02*
G37*
G36*
X234500Y176490D02*
X232750D01*
Y174740D01*
X234500D01*
Y176490D01*
D02*
G37*
G36*
X211500Y175990D02*
X209750D01*
Y174240D01*
X211500D01*
Y175990D01*
D02*
G37*
G36*
X190500D02*
X188750D01*
Y174240D01*
X190500D01*
Y175990D01*
D02*
G37*
G36*
X279500Y186444D02*
X277950Y186291D01*
X276460Y185839D01*
X275087Y185105D01*
X273883Y184117D01*
X272895Y182913D01*
X272161Y181540D01*
X271709Y180050D01*
X271556Y178500D01*
X271709Y176950D01*
X272161Y175460D01*
X272895Y174087D01*
X273883Y172883D01*
X275087Y171895D01*
X276460Y171161D01*
X277950Y170709D01*
X279500Y170556D01*
X281050Y170709D01*
X282540Y171161D01*
X283913Y171895D01*
X285117Y172883D01*
X286105Y174087D01*
X286839Y175460D01*
X287291Y176950D01*
X287444Y178500D01*
X287291Y180050D01*
X286839Y181540D01*
X286105Y182913D01*
X285117Y184117D01*
X283913Y185105D01*
X282540Y185839D01*
X281050Y186291D01*
X279500Y186444D01*
D02*
G37*
G36*
X136432Y107250D02*
X133750D01*
Y104569D01*
X133914Y104590D01*
X134765Y104943D01*
X135496Y105504D01*
X136057Y106235D01*
X136410Y107086D01*
X136432Y107250D01*
D02*
G37*
G36*
X132250D02*
X129569D01*
X129590Y107086D01*
X129943Y106235D01*
X130504Y105504D01*
X131235Y104943D01*
X132086Y104590D01*
X132250Y104569D01*
Y107250D01*
D02*
G37*
G36*
X200500Y118194D02*
X198642Y118048D01*
X196829Y117613D01*
X195107Y116899D01*
X193518Y115925D01*
X192100Y114715D01*
X190890Y113297D01*
X189916Y111708D01*
X189202Y109986D01*
X188767Y108173D01*
X188621Y106315D01*
X188767Y104457D01*
X189202Y102644D01*
X189916Y100922D01*
X190890Y99333D01*
X192100Y97915D01*
X193518Y96705D01*
X195107Y95731D01*
X196829Y95017D01*
X198642Y94582D01*
X200500Y94436D01*
X202358Y94582D01*
X204171Y95017D01*
X205893Y95731D01*
X207482Y96705D01*
X208900Y97915D01*
X210110Y99333D01*
X211084Y100922D01*
X211798Y102644D01*
X212233Y104457D01*
X212379Y106315D01*
X212233Y108173D01*
X211798Y109986D01*
X211084Y111708D01*
X210110Y113297D01*
X208900Y114715D01*
X207482Y115925D01*
X205893Y116899D01*
X204171Y117613D01*
X202358Y118048D01*
X200500Y118194D01*
D02*
G37*
G36*
X95250Y161250D02*
X92568D01*
X92590Y161086D01*
X92943Y160235D01*
X93504Y159504D01*
X94235Y158943D01*
X95086Y158590D01*
X95250Y158569D01*
Y161250D01*
D02*
G37*
G36*
X133750Y111432D02*
Y108750D01*
X136432D01*
X136410Y108914D01*
X136057Y109765D01*
X135496Y110496D01*
X134765Y111057D01*
X133914Y111410D01*
X133750Y111432D01*
D02*
G37*
G36*
X132250D02*
X132086Y111410D01*
X131235Y111057D01*
X130504Y110496D01*
X129943Y109765D01*
X129590Y108914D01*
X129569Y108750D01*
X132250D01*
Y111432D01*
D02*
G37*
%LPD*%
D10*
X34760Y113500D02*
D03*
X40260D02*
D03*
X239760Y170000D02*
D03*
X245260D02*
D03*
X153260D02*
D03*
X158760D02*
D03*
X219260D02*
D03*
X224760D02*
D03*
X131260D02*
D03*
X136760D02*
D03*
X109760D02*
D03*
X115260D02*
D03*
X196260D02*
D03*
X201760D02*
D03*
X175260D02*
D03*
X180760D02*
D03*
X32740Y96000D02*
D03*
X27240D02*
D03*
X17740D02*
D03*
X12240D02*
D03*
X125260Y40000D02*
D03*
X130760D02*
D03*
X42260Y96000D02*
D03*
X47760D02*
D03*
X25240Y113500D02*
D03*
X19740D02*
D03*
D11*
X70000Y177740D02*
D03*
Y172240D02*
D03*
X64500Y172260D02*
D03*
Y177760D02*
D03*
X254000Y182740D02*
D03*
Y177240D02*
D03*
X166000Y182240D02*
D03*
Y176740D02*
D03*
X232000Y182740D02*
D03*
Y177240D02*
D03*
X144000Y182240D02*
D03*
Y176740D02*
D03*
X121000Y182240D02*
D03*
Y176740D02*
D03*
X209000Y182240D02*
D03*
Y176740D02*
D03*
X188000Y182240D02*
D03*
Y176740D02*
D03*
X280500Y73740D02*
D03*
Y68240D02*
D03*
Y21240D02*
D03*
Y15740D02*
D03*
X136500Y33240D02*
D03*
Y27740D02*
D03*
X60000Y157260D02*
D03*
Y162760D02*
D03*
D12*
X249000Y183500D02*
D03*
Y176000D02*
D03*
X161000Y183500D02*
D03*
Y176000D02*
D03*
X227000Y183500D02*
D03*
Y176000D02*
D03*
X139000Y183500D02*
D03*
Y176000D02*
D03*
X116000Y183500D02*
D03*
Y176000D02*
D03*
X204000Y183500D02*
D03*
Y176000D02*
D03*
X183000Y183500D02*
D03*
Y176000D02*
D03*
X67000Y156500D02*
D03*
Y164000D02*
D03*
X130500Y34500D02*
D03*
Y27000D02*
D03*
D13*
X241000Y179800D02*
D03*
X153000D02*
D03*
X219000D02*
D03*
X131000D02*
D03*
X108000D02*
D03*
X196000D02*
D03*
X175000D02*
D03*
X75000Y160200D02*
D03*
X122500Y30800D02*
D03*
D14*
X15933Y14823D02*
D03*
X45067D02*
D03*
Y80177D02*
D03*
X15933D02*
D03*
X45067Y194177D02*
D03*
X15933D02*
D03*
Y128823D02*
D03*
X45067D02*
D03*
D15*
X280500Y51500D02*
D03*
X273000D02*
D03*
X276700Y41500D02*
D03*
X280500D02*
D03*
X273000D02*
D03*
D16*
X148232Y33000D02*
D03*
X164768D02*
D03*
D17*
X173756Y70500D02*
D03*
Y136500D02*
D03*
X113756Y70500D02*
D03*
Y136500D02*
D03*
X103756Y70500D02*
D03*
Y136500D02*
D03*
D18*
X45067Y80177D02*
X71744Y53500D01*
X108000D01*
X243000Y164500D02*
X245260Y166760D01*
Y170000D01*
X250500Y162500D02*
Y172000D01*
X246000Y158000D02*
X250500Y162500D01*
X232000Y158000D02*
X246000D01*
X232000D02*
Y177240D01*
X75740Y177760D02*
X88500Y165000D01*
Y150500D02*
Y165000D01*
X82000Y150000D02*
X88500Y143500D01*
X82000Y150000D02*
Y165000D01*
X88500Y143000D02*
Y143500D01*
X209000Y176740D02*
X213740D01*
X246500Y176000D02*
X250500Y172000D01*
X211000Y198500D02*
X214000Y195500D01*
X196500Y198500D02*
X211000D01*
X194000Y196000D02*
X196500Y198500D01*
X194000Y185600D02*
Y196000D01*
X191750Y183350D02*
X194000Y185600D01*
X191750Y180490D02*
Y183350D01*
X188000Y176740D02*
X191750Y180490D01*
X139000Y5000D02*
Y17000D01*
X239760Y178560D02*
X241000Y179800D01*
X239760Y170000D02*
Y178560D01*
X219000Y170260D02*
X219260Y170000D01*
X196000Y170260D02*
X196260Y170000D01*
X196000Y170260D02*
Y179800D01*
X153000Y170260D02*
X153260Y170000D01*
X131000Y170260D02*
X131260Y170000D01*
X131000Y170260D02*
Y179800D01*
Y183000D01*
X137500Y189500D01*
Y199500D01*
X142500Y204500D01*
X139760Y182740D02*
X144000D01*
Y191000D01*
Y182240D02*
Y182740D01*
X142500Y192500D02*
X144000Y191000D01*
X136450Y176000D02*
X139000D01*
X139740Y176740D01*
X144000D01*
X139000Y183500D02*
X139760Y182740D01*
X136450Y175707D02*
Y176000D01*
Y175707D02*
X136657Y175500D01*
X153000Y170260D02*
Y179800D01*
Y184000D01*
X157500Y188500D01*
Y196500D01*
X159500Y198500D01*
X160500D01*
X162500Y200500D01*
Y204500D01*
X161760Y182740D02*
X166000D01*
X161000Y191000D02*
X162500Y192500D01*
X161000Y183500D02*
Y191000D01*
X158750Y175593D02*
Y175750D01*
X159000Y176000D01*
X161000D01*
X183760Y182740D02*
X188000D01*
Y191500D01*
Y182240D02*
Y182740D01*
Y191500D02*
X189000Y192500D01*
X183000Y183500D02*
X183760Y182740D01*
X177550Y187050D02*
X181550D01*
X175000Y184500D02*
X177550Y187050D01*
X181550D02*
X184000Y189500D01*
Y199500D01*
X175000Y179800D02*
Y184500D01*
X219000Y183500D02*
X224250Y188750D01*
X219000Y179800D02*
Y183500D01*
X229000Y192500D02*
X232000Y189500D01*
Y182740D02*
Y189500D01*
X227760Y182740D02*
X232000D01*
X175000Y170260D02*
Y179800D01*
X183000Y176000D02*
X183740Y176740D01*
X188000D01*
X184000Y199500D02*
X189000Y204500D01*
X204760Y182740D02*
X209000D01*
X207500D02*
Y191000D01*
X209000Y182240D02*
Y182740D01*
X207500Y191000D02*
X209000Y192500D01*
X204000Y176000D02*
X204740Y176740D01*
X209000D01*
X204000Y183500D02*
X204760Y182740D01*
X219000Y170260D02*
Y179800D01*
X243750Y199250D02*
X249000Y204500D01*
X243750Y182550D02*
Y199250D01*
X241000Y179800D02*
X243750Y182550D01*
X249000Y176000D02*
X250240Y177240D01*
X254000D01*
X249000Y183500D02*
X249760Y182740D01*
X254000D01*
X224250Y199750D02*
X229000Y204500D01*
X224250Y188750D02*
Y199750D01*
X224500Y176000D02*
X227000D01*
X228240Y177240D01*
X232000D01*
X227000Y183500D02*
X227760Y182740D01*
X224750Y175593D02*
Y175750D01*
X224500Y176000D02*
X224750Y175750D01*
X161000Y176000D02*
X161740Y176740D01*
X166000D01*
X161000Y183500D02*
X161760Y182740D01*
X148500Y136500D02*
X173756D01*
X65500Y100500D02*
X89500Y76500D01*
X43500Y100500D02*
X65500D01*
X42260Y99260D02*
X43500Y100500D01*
X42260Y96000D02*
Y99260D01*
X12240Y98740D02*
X17000Y103500D01*
X12240Y96000D02*
Y98740D01*
X64500Y177760D02*
X75740D01*
X74760Y172240D02*
X82000Y165000D01*
X70000Y172240D02*
X74760D01*
X44567Y128823D02*
Y172000D01*
X44827Y172260D02*
X64500D01*
Y169000D02*
Y172260D01*
Y169000D02*
X65950Y167550D01*
X71950D01*
X75000Y164500D01*
Y160200D02*
Y164500D01*
X60000Y120000D02*
Y157260D01*
X66240D02*
X67000Y156500D01*
X60000Y157260D02*
X66240D01*
X19500Y113260D02*
X19740Y113500D01*
X19500Y110000D02*
Y113260D01*
Y110000D02*
X21500Y108000D01*
X48000D01*
X60000Y120000D01*
X44567Y117807D02*
Y128823D01*
X15933D02*
Y194177D01*
X25240Y113500D02*
X34760D01*
X15433Y117807D02*
X15933Y128823D01*
X15433Y117807D02*
X19740Y113500D01*
X40260D02*
X44567Y117807D01*
X15933Y14823D02*
Y80177D01*
X45067D02*
X47760Y82870D01*
Y96000D01*
X32740D02*
X42260D01*
X17740D02*
X27240D01*
X15933Y94193D02*
X17740Y96000D01*
X15933Y80177D02*
Y94193D01*
X122500Y30800D02*
Y37240D01*
X125260Y40000D01*
X122500Y23500D02*
X129000Y17000D01*
X122500Y23500D02*
Y30800D01*
X139000Y17000D02*
Y25240D01*
X136500Y27740D02*
X139000Y25240D01*
X129000Y5000D02*
X134000Y10000D01*
Y21000D01*
X132000Y23000D02*
X134000Y21000D01*
X128000Y23000D02*
X132000D01*
X126950Y24050D02*
X128000Y23000D01*
X126950Y24050D02*
Y30950D01*
X130500Y34500D01*
X131760Y33240D02*
X136500D01*
X130500Y34500D02*
X131760Y33240D01*
X135760Y27000D02*
X136500Y27740D01*
X130500Y27000D02*
X135760D01*
X113756Y70500D02*
Y80244D01*
X113500Y80500D02*
X113756Y80244D01*
X275000Y25000D02*
X276700Y26700D01*
Y41500D01*
X193000Y21000D02*
X196000Y24000D01*
X193000Y7000D02*
Y21000D01*
Y7000D02*
X195000Y5000D01*
X199000D01*
X196000Y24000D02*
X267000D01*
X249000Y5000D02*
Y17000D01*
X239000Y5000D02*
Y17000D01*
X229000Y5000D02*
Y17000D01*
X219000Y5000D02*
Y17000D01*
X209000Y5000D02*
Y17000D01*
X280500Y73740D02*
X280787Y74028D01*
X292500D01*
X280500Y41500D02*
X283000D01*
X284000Y42500D01*
Y65240D01*
X280500Y68740D02*
X284000Y65240D01*
X280500Y21240D02*
Y41500D01*
X281000Y15740D02*
X281768Y14973D01*
X292500D01*
X267000Y24000D02*
X273000Y30000D01*
Y41500D01*
Y45500D01*
X274500Y47000D01*
X278500D01*
X280500Y49000D01*
Y51500D01*
X115000Y183500D02*
X115760Y182740D01*
X116740Y176740D02*
X121000D01*
X116000Y176000D02*
X116740Y176740D01*
X108000Y171760D02*
Y179800D01*
Y171760D02*
X109760Y170000D01*
X117250Y199250D02*
X122500Y204500D01*
X117250Y190533D02*
Y199250D01*
X114468Y187750D02*
X117250Y190533D01*
X109750Y187750D02*
X114468D01*
X108000Y186000D02*
X109750Y187750D01*
X108000Y179800D02*
Y186000D01*
X121000Y182240D02*
Y182740D01*
Y191000D01*
X115760Y182740D02*
X121000D01*
X249000Y183500D02*
Y192500D01*
X166000Y157000D02*
Y176740D01*
X144000Y157000D02*
Y176740D01*
Y157000D02*
X166000D01*
X96000Y162000D02*
X101000Y157000D01*
X121000Y157500D02*
Y176740D01*
X101000Y157000D02*
X144000D01*
X214000Y168500D02*
Y195500D01*
Y168500D02*
X224500Y158000D01*
X232000D01*
X96500Y151000D02*
X181000D01*
X196260Y166260D01*
Y170000D01*
X199000Y164500D02*
X210500D01*
X181000Y146500D02*
X199000Y164500D01*
X151500Y146500D02*
X181000D01*
X134000Y122000D02*
X148500Y136500D01*
X67000Y146500D02*
Y156500D01*
Y146500D02*
X91500Y122000D01*
X134000D01*
X131500Y126500D02*
X151500Y146500D01*
X93000Y126500D02*
X131500D01*
X70550Y148950D02*
X93000Y126500D01*
X70550Y148950D02*
Y160050D01*
X67000Y163600D02*
X70550Y160050D01*
X66260Y163260D02*
X67000Y164000D01*
X60000Y163260D02*
X66260D01*
X45067Y14823D02*
Y80177D01*
X136760Y164760D02*
Y170000D01*
X136500Y164500D02*
X136760Y164760D01*
X158740D02*
X158760Y164740D01*
Y170000D01*
X180740Y164760D02*
X180760D01*
Y170000D01*
X115260Y164260D02*
Y170000D01*
X101740Y164260D02*
X115260D01*
X93500Y172500D02*
X101740Y164260D01*
X71500Y132000D02*
X79000Y124500D01*
X133000Y50000D02*
Y108000D01*
X113756Y59256D02*
Y70500D01*
X108000Y53500D02*
X113756Y59256D01*
X79000Y97500D02*
Y124500D01*
Y97500D02*
X103756Y72744D01*
Y70500D02*
Y72744D01*
X17000Y103500D02*
X51000D01*
X65500Y118000D01*
Y126000D01*
X71500Y132000D01*
X166000Y157000D02*
X181500D01*
X188000Y163500D01*
Y176740D01*
X44567Y172000D02*
X44827Y172260D01*
X44567Y172000D02*
Y194177D01*
D19*
X130760Y40000D02*
X138000D01*
X145000Y33000D01*
X148232D01*
X156000D02*
Y35500D01*
Y29000D02*
Y33000D01*
X148232D02*
X156000D01*
X149000Y5000D02*
X155000Y11000D01*
X193000Y30000D02*
X264000D01*
X156000Y35500D02*
X160000Y39500D01*
X149000Y22000D02*
X156000Y29000D01*
X149000Y17000D02*
Y22000D01*
X179000Y5000D02*
X183500D01*
X264000Y30000D02*
X267500Y33500D01*
Y49000D01*
X270000Y51500D01*
X273000D01*
X130760Y40000D02*
Y43496D01*
X126000Y48256D02*
X130760Y43496D01*
X126000Y48256D02*
Y82500D01*
X120500Y88000D02*
X126000Y82500D01*
X103756Y72744D02*
Y81256D01*
X110500Y88000D01*
X120500D01*
X155000Y11000D02*
X182500D01*
X185000Y13500D01*
X183500Y5000D02*
X189000Y10500D01*
Y26000D01*
X160000Y39500D02*
X175500D01*
X189000Y26000D01*
X193000Y30000D01*
X164768Y33000D02*
X175000D01*
X185000Y23000D01*
Y13500D02*
Y23000D01*
D20*
X199000Y5000D02*
X201500D01*
D21*
X173756Y136500D02*
X191315D01*
X200500Y145685D01*
X173500Y66000D02*
X174000D01*
X173756Y66244D02*
X174000Y66000D01*
X173756Y66244D02*
Y70500D01*
D22*
X280185Y145685D02*
X300500Y166000D01*
X200500Y145685D02*
X280185D01*
X300500Y166000D02*
Y187500D01*
X289500Y198500D02*
X300500Y187500D01*
X279500Y198500D02*
X289500D01*
D23*
X162500Y204500D02*
D03*
X129000Y17000D02*
D03*
X199000D02*
D03*
X249000Y204500D02*
D03*
X162500Y192500D02*
D03*
X129000Y5000D02*
D03*
X199000D02*
D03*
X249000Y192500D02*
D03*
D24*
X152500Y204500D02*
D03*
X142500D02*
D03*
X132500D02*
D03*
X122500D02*
D03*
X112500D02*
D03*
X102500D02*
D03*
X92500D02*
D03*
X82500D02*
D03*
X72500D02*
D03*
X139000Y17000D02*
D03*
X149000D02*
D03*
X159000D02*
D03*
X169000D02*
D03*
X179000D02*
D03*
X249000D02*
D03*
X239000D02*
D03*
X229000D02*
D03*
X219000D02*
D03*
X209000D02*
D03*
X229000Y204500D02*
D03*
X239000D02*
D03*
X179000D02*
D03*
X189000D02*
D03*
X199000D02*
D03*
X209000D02*
D03*
X219000D02*
D03*
X152500Y192500D02*
D03*
X142500D02*
D03*
X132500D02*
D03*
X122500D02*
D03*
X112500D02*
D03*
X102500D02*
D03*
X92500D02*
D03*
X82500D02*
D03*
X72500D02*
D03*
X139000Y5000D02*
D03*
X149000D02*
D03*
X159000D02*
D03*
X169000D02*
D03*
X179000D02*
D03*
X249000D02*
D03*
X239000D02*
D03*
X229000D02*
D03*
X219000D02*
D03*
X209000D02*
D03*
X229000Y192500D02*
D03*
X239000D02*
D03*
X179000D02*
D03*
X189000D02*
D03*
X199000D02*
D03*
X209000D02*
D03*
X219000D02*
D03*
D25*
X259555Y169307D02*
D03*
Y82693D02*
D03*
D26*
X200500Y145685D02*
D03*
Y106315D02*
D03*
D27*
X292500Y74028D02*
D03*
Y64185D02*
D03*
Y54343D02*
D03*
Y44500D02*
D03*
Y34658D02*
D03*
Y24815D02*
D03*
D28*
Y14973D02*
D03*
D29*
X279500Y178500D02*
D03*
Y198500D02*
D03*
D30*
X243000Y164500D02*
D03*
X96000Y162000D02*
D03*
X88500Y150500D02*
D03*
Y143000D02*
D03*
X136657Y175500D02*
D03*
X158750Y175593D02*
D03*
X180750D02*
D03*
X201750D02*
D03*
X246750D02*
D03*
X224750D02*
D03*
X89500Y76500D02*
D03*
X113500Y80500D02*
D03*
X275000Y25000D02*
D03*
X173500Y66000D02*
D03*
X113750Y175593D02*
D03*
X210500Y164500D02*
D03*
X136500D02*
D03*
X158740Y164760D02*
D03*
X180740D02*
D03*
X115260Y164260D02*
D03*
X93500Y172500D02*
D03*
X71500Y132000D02*
D03*
X96500Y151000D02*
D03*
X133000Y108000D02*
D03*
Y50000D02*
D03*
X118000D02*
D03*
M02*
