M48
;Layer_Color=9474304
;FILE_FORMAT=2:3
INCH,LZ
;TYPE=PLATED
T1F00S00C0.028
T2F00S00C0.031
T3F00S00C0.039
T4F00S00C0.059
T5F00S00C0.091
T6F00S00C0.114
%
T01
X0118Y005
X0133
X0275Y0025
X0243Y01645
X02467Y01756
X02247
X02105Y01645
X02017Y01756
X01808
X01807Y01648
X01587
X01587Y01756
X01367Y01755
X01365Y01645
X01153Y01643
X01138Y01756
X00935Y01725
X0096Y0162
X00965Y0151
X00885Y01505
Y0143
X00715Y0132
X00895Y00765
X01135Y00805
X0133Y0108
X01735Y0066
T02
X0129Y0005
X0139
X0149
X0159
X0169
X0179
Y0017
X0169
X0159
X0149
X0139
X0129
X0199
X0209
Y0005
X0199
X0219
X0229
X0239
X0249
Y0017
X0239
X0229
X0219
Y01925
X0229
X0239
X0249
Y02045
X0239
X0229
X0219
X0209
X0199
X0189
X0179
Y01925
X0189
X0199
X0209
X01625
X01525
X01425
X01325
X01225
X01125
X01025
X00925
X00825
X00725
Y02045
X00825
X00925
X01025
X01125
X01225
X01325
X01425
X01525
X01625
T03
X02925Y0015
Y00248
Y00347
Y00445
Y00543
Y00642
Y0074
T04
X02795Y01785
Y01985
T05
X02005Y01063
Y01457
T06
X02596Y00827
Y01693
M30
